<?xml version="1.0" encoding="utf-8" ?>
<svg baseProfile="full" height="200mm" version="1.1" viewBox="0,0,200,200" width="200mm" xmlns="http://www.w3.org/2000/svg" xmlns:ev="http://www.w3.org/2001/xml-events" xmlns:xlink="http://www.w3.org/1999/xlink"><defs /><rect fill="#1a1a1a" height="200" width="200" x="0" y="0" /><rect fill="#1a1a1a" height="200" width="180" x="10" y="0" /><text alignment-baseline="middle" fill="#e1ed5e" style="dominant-baseline: central; font-size:9.0px; font-family:Arial;" text-anchor="middle" x="100.0" y="100.0">2020</text><line stroke="#e1ed5e" stroke-width="0.3" x1="100.0" x2="100.0" y1="15.0" y2="10.0" /><path d="M 100.0 14.0 a86.0,86.0 0 0,1 42.35913384403234,11.155469271406648" fill="none" id="id73" stroke="none" /><text fill="#e1ed5e" style="font-size:6.75px; font-family:Arial;" text-anchor="middle"><textPath startOffset="22.145653131862478" xlink:href="#id73">January</textPath></text><line stroke="#e1ed5e" stroke-width="0.3" x1="143.13028292997686" x2="145.6673583964461" y1="26.7553504044142" y2="22.446841604673864" /><path d="M 143.63769802327073 25.89364864446614 a86.0,86.0 0 0,1 29.32050498858742,28.57503671076993" fill="none" id="id74" stroke="none" /><text fill="#e1ed5e" style="font-size:6.75px; font-family:Arial;" text-anchor="middle"><textPath startOffset="20.669276256404974" xlink:href="#id74">February</textPath></text><line stroke="#e1ed5e" stroke-width="0.3" x1="172.87174338648825" x2="177.1583165268699" y1="56.24261187166439" y2="53.66864786411523" /><path d="M 173.72905801456457 55.72781907015455 a86.0,86.0 0 0,1 12.242430191666344,42.057860355516425" fill="none" id="id75" stroke="none" /><text fill="#e1ed5e" style="font-size:6.75px; font-family:Arial;" text-anchor="middle"><textPath startOffset="22.145653131862474" xlink:href="#id75">March</textPath></text><line stroke="#e1ed5e" stroke-width="0.3" x1="184.99686870605535" x2="189.99668451229388" y1="99.2704041080226" y2="99.22748670261217" /><path d="M 185.99683186730306 99.26182062694052 a86.0,86.0 0 0,1 -10.086455211305974,41.156179273409016" fill="none" id="id76" stroke="none" /><text fill="#e1ed5e" style="font-size:6.75px; font-family:Arial;" text-anchor="middle"><textPath startOffset="21.40746469413373" xlink:href="#id76">April</textPath></text><line stroke="#e1ed5e" stroke-width="0.3" x1="174.33088141563837" x2="178.70328620479359" y1="141.23008692659167" y2="143.65538615756765" /><path d="M 175.20536237346943 141.71514677278685 a86.0,86.0 0 0,1 -30.301960400862466,31.631185727798858" fill="none" id="id77" stroke="none" /><text fill="#e1ed5e" style="font-size:6.75px; font-family:Arial;" text-anchor="middle"><textPath startOffset="22.145653131862474" xlink:href="#id77">May</textPath></text><path d="M 113.31354834802062 116.24036423190432 l 17.61354719674596 21.485663657316422 a48.78256265442994,48.78256265442994 0 0,0 -0.6521746135870397,0.5253457036871201 l -17.242121812803667 -21.784857654796944" fill="red" stroke="none" /><line stroke="#e1ed5e" stroke-width="0.3" x1="143.1302829299769" x2="145.66735839644613" y1="173.24464959558577" y2="177.55315839532614" /><path d="M 143.63769802327073 174.10635135553383 a86.0,86.0 0 0,1 -40.68552437913181,11.842963189579606" fill="none" id="id78" stroke="none" /><text fill="#e1ed5e" style="font-size:6.75px; font-family:Arial;" text-anchor="middle"><textPath startOffset="21.407464694133747" xlink:href="#id78">June</textPath></text><path d="M 106.38641147887787 120.00534299687104 l 11.13470352912253 34.87930021504118 a57.61348393928697,57.61348393928697 0 0,0 -0.9447496603520809,0.2926858597614394 l -10.534313235898827 -35.065302662609255" fill="red" stroke="none" /><path d="M 105.3480935250658 120.30758222061773 l 9.357118568976176 35.530503308693454 a57.74196964348747,57.74196964348747 0 0,0 -0.9607018358178244,0.24420664986958177 l -8.745811439932954 -35.685895190398305" fill="red" stroke="none" /><path d="M 103.58742460773223 120.69131181640829 l 6.327906342724765 36.497682209164005 a58.04218143310978,58.04218143310978 0 0,0 -0.9831861765539247,0.1617829112057239 l -5.700442663117768 -36.600931118865404" fill="red" stroke="none" /><path d="M 101.80034050326958 120.92268563240118 l 3.6925091755199078 42.91255378293933 a64.07112601482528,64.07112601482528 0 0,0 -1.0966261537805329,0.08488579985113089 l -2.9553140269641394 -42.969617349785516" fill="red" stroke="none" /><path d="M 101.44090949804482 120.95050786540614 l 2.9333587639924006 42.650392644694314 a63.75114719378751,63.75114719378751 0 0,0 -1.0924385893199515,0.06571839276916441 l -2.2007758225399843 -42.69446301528817" fill="red" stroke="none" /><path d="M 100.72087961077811 120.9876233191556 l 1.4699192440033724 42.795094966580386 a63.82033180374162,63.82033180374162 0 0,0 -1.0952379939836165,0.028209445648392173 l -0.7350679359490121 -42.814022129578824" fill="red" stroke="none" /><line stroke="#e1ed5e" stroke-width="0.3" x1="101.45913802915013" x2="101.54496967792366" y1="184.9874750549273" y2="189.98673829345242" /><path d="M 101.47630435890484 185.9873277026323 a86.0,86.0 0 0,1 -42.54439059252881,-10.42667462771756" fill="none" id="id79" stroke="none" /><text fill="#e1ed5e" style="font-size:6.75px; font-family:Arial;" text-anchor="middle"><textPath startOffset="22.145653131862474" xlink:href="#id79">July</textPath></text><path d="M 100.36049292484886 120.99690560180557 l 0.729469034186446 42.48791417106155 a63.49417578538652,63.49417578538652 0 0,0 -1.0899619590352931,0.009356012519401566 l -5.204035635797856e-15 -42.49417578538652" fill="red" stroke="none" /><path d="M 99.63950707515114 120.99690560180557 l -0.7329683477880392 42.691731645134844 a63.69802329685845,63.69802329685845 0 0,0 -1.093139024580922,-0.02815538364212874 l 1.4657206864397052 -42.67285854414267" fill="red" stroke="none" /><path d="M 99.27912038922189 120.98762331915562 l -1.4680532184195145 42.74076766771918 a63.7659724673491,63.7659724673491 0 0,0 -1.093660030141682,-0.04696646742377239 l 2.201539009162035 -42.709268631869584" fill="red" stroke="none" /><path d="M 98.55909050195518 120.95050786540614 l -3.367293092765879 48.959702549566295 a70.07536180727145,70.07536180727145 0 0,0 -1.1993932255179336,-0.09284062114799164 l 4.207255313059049 -48.89468416142325" fill="red" stroke="none" /><path d="M 98.19965949673042 120.92268563240118 l -4.235640491013881 49.22456295595693 a70.40645958348041,70.40645958348041 0 0,0 -1.203281385001257,-0.11395199820655878 l 5.080021439400154 -49.14459920224519" fill="red" stroke="none" /><path d="M 97.84075906011543 120.88869738790638 l -5.11203277701934 49.45427985536629 a70.71779032827392,70.71779032827392 0 0,0 -1.2064593044163225,-0.13518628149314516 l 5.960227983036461 -49.35923781336617" fill="red" stroke="none" /><path d="M 97.48249496171623 120.84855314841334 l -6.021395742820623 49.86579461124207 a71.2280268266855,71.2280268266855 0 0,0 -1.2126475854046452,-0.15700150798107482 l 6.876521150116062 -49.7550815070606" fill="red" stroke="none" /><path d="M 97.12497278360702 120.80226474461374 l -5.873187731617232 42.49546070078642 a63.899399929403465,63.899399929403465 0 0,0 -1.0853005581691566,-0.15950180767356184 l 6.601813395394074 -42.388377819813975" fill="red" stroke="none" /><path d="M 96.41257539226777 120.69131181640829 l -8.341532544770475 48.11174304222386 a69.82950935404165,69.82950935404165 0 0,0 -1.1793381686214346,-0.21491470014421304 l 9.166205446942968 -47.96146016814828" fill="red" stroke="none" /><path d="M 96.05791012581884 120.62667999033965 l -7.954218055339794 41.619829998156824 a63.37310271796683,63.37310271796683 0 0,0 -1.066791168267089,-0.21338811088256607 l 8.66750570913784 -41.477152490611395" fill="red" stroke="none" /><path d="M 95.70440661134978 120.55596938700252 l -10.047816986276764 48.08244163002825 a70.1210730674197,70.1210730674197 0 0,0 -1.176156062920994,-0.2563377396897512 l 10.871735465816895 -47.902872432204774" fill="red" stroke="none" /><path d="M 94.6519064749342 120.30758222061772 l -12.603478669672093 47.857461383310095 a70.48923402753266,70.48923402753266 0 0,0 -1.1674984108877537,-0.318206883522279 l 13.423158481494541 -47.63405400564367" fill="red" stroke="none" /><path d="M 94.30408787586889 120.21278271476187 l -13.417126806107179 47.61264971755885 a70.46699611719026,70.46699611719026 0 0,0 -1.1614973887385525,-0.3380949620174783 l 14.232484207227339 -47.375311061238854" fill="red" stroke="none" /><path d="M 93.61358852112213 120.00534299687104 l -15.169511910795041 47.518280003451466 a70.88086833745146,70.88086833745146 0 0,0 -1.1559564638743387,-0.379985849888329 l 15.982991112317125 -47.25087323216111" fill="red" stroke="none" /><path d="M 93.27111125876986 119.89276391827306 l -13.51003147197917 39.940007471633315 a63.16307800917756,63.16307800917756 0 0,0 -1.0241268324759512,-0.35624447443806595 l 14.193664076500143 -39.702204564626655" fill="red" stroke="none" /><path d="M 92.93061703081489 119.77432235084164 l -16.71565127058994 46.75665160166063 a70.65478291563713,70.65478291563713 0 0,0 -1.1385878583892777,-0.41810523268568817 l 17.51582828063334 -46.46281551996622" fill="red" stroke="none" /><path d="M 92.59220618246901 119.65005319985036 l -17.565945723215766 46.595757990726476 a70.79685845393576,70.79685845393576 0 0,0 -1.133517501930131,-0.4384689204759139 l 18.363235487639425 -46.28734918211252" fill="red" stroke="none" /><path d="M 92.25597844496254 119.51999308798841 l -18.32769991396647 46.19777632290186 a70.7004941757854,70.7004941757854 0 0,0 -1.1242911724587976,-0.457239432153012 l 19.118045547615708 -45.87634963416955" fill="red" stroke="none" /><path d="M 91.92203290615298 119.3841803445677 l -19.644600880006728 47.13989074616985 a72.06936110130604,72.06936110130604 0 0,0 -1.1378891569556948,-0.4856972180326318 l 20.45092511213285 -46.795718878477814" fill="red" stroke="none" /><path d="M 91.26138138417905 119.09545874513695 l -17.51013943139556 38.2628147346373 a63.07906812566185,63.07906812566185 0 0,0 -0.9807632219760837,-0.45904670952300597 l 18.164391367243134 -37.95659179354377" fill="red" stroke="none" /><path d="M 90.93487009805054 118.94263497670748 l -21.242631736348454 44.38893025015957 a70.21002470878926,70.21002470878926 0 0,0 -1.0827046143332506,-0.5296050818905119 l 22.001496599943774 -44.01773141817184" fill="red" stroke="none" /><path d="M 90.6110303473126 118.78422872680471 l -21.953441513475735 43.921589054409516 a70.1025414754677,70.1025414754677 0 0,0 -1.071810369355583,-0.5472740115441965 l 22.7041791045449 -43.538257091192484" fill="red" stroke="none" /><line stroke="#e1ed5e" stroke-width="0.3" x1="58.13341422392154" x2="55.67067388415222" y1="173.97424548756322" y2="178.32567169271397" /><path d="M 57.64086615596768 174.84453072859336 a86.0,86.0 0 0,1 -31.369924170532247,-30.572349798747897" fill="none" id="id80" stroke="none" /><text fill="#e1ed5e" style="font-size:6.75px; font-family:Arial;" text-anchor="middle"><textPath startOffset="22.145653131862474" xlink:href="#id80">August</textPath></text><path d="M 89.65649057296885 118.27599006163327 l -24.156761809288305 42.682683460802295 a70.0444758206848,70.0444758206848 0 0,0 -1.041352996951805,-0.6012254331115526 l 24.885907274100507 -42.26171113041457" fill="red" stroke="none" /><path d="M 89.03521579738668 117.91015095944536 l -21.957951185842894 35.86666305797858 a63.05435933639252,63.05435933639252 0 0,0 -0.918299281964387,-0.5730866690670132 l 22.570414596596994 -35.48444059207002" fill="red" stroke="none" /><path d="M 88.4268655584334 117.5232005979908 l -27.089086952971538 41.016330285460626 a70.15442993293328,70.15442993293328 0 0,0 -0.9992119237799466,-0.6723143757304609 l 27.789195164848493 -40.54526623567305" fill="red" stroke="none" /><path d="M 88.1277618465304 117.32195027204791 l -24.007791625438898 35.02808546306054 a63.4657606777268,63.4657606777268 0 0,0 -0.893370971367955,-0.6236423207009483 l 24.605557687980617 -34.610798326554466" fill="red" stroke="none" /><path d="M 87.83215693770417 117.11559508785305 l -28.68799144396797 40.35325266153657 a70.51147193787504,70.51147193787504 0 0,0 -0.9805089901115988,-0.7098128941436443 l 29.376481444453525 -39.854838996019865" fill="red" stroke="none" /><path d="M 87.2517909369889 116.68781488649013 l -30.3068083442922 39.67258498429615 a70.92410871867278,70.92410871867278 0 0,0 -0.9611569536640082,-0.7474014606749915 l 30.98337524259144 -39.146482472000365" fill="red" stroke="none" /><path d="M 86.96720088162412 116.46651593811092 l -31.018644613072983 39.19104416944437 a70.98093893399223,70.98093893399223 0 0,0 -0.9489449488180248,-0.7644028784794322 l 31.68684033224627 -38.652792997171524" fill="red" stroke="none" /><path d="M 86.13680546590413 115.77377054828092 l -32.792759490935794 37.31214061685372 a70.67454994705261,70.67454994705261 0 0,0 -0.9044153944900722,-0.808733822655091 l 33.42843991224924 -36.743711264315245" fill="red" stroke="none" /><path d="M 85.34317274990678 115.03919595460226 l -34.689031666740206 35.594002426970775 a70.70172961524887,70.70172961524887 0 0,0 -0.8619149543947822,-0.8545482041789787 l 35.29493854126495 -34.993274212563136" fill="red" stroke="none" /><path d="M 84.83555147118756 114.52719865689866 l -36.41055640701389 34.880489397811814 a71.42199082244971,71.42199082244971 0 0,0 -0.8405489702243488,-0.8926338780532465 l 37.003961210974495 -34.25031405981408" fill="red" stroke="none" /><path d="M 84.58840730492382 114.26474011684316 l -36.887000659282236 34.14205711928737 a71.26261913166255,71.26261913166255 0 0,0 -0.8232607259700369,-0.9049077518932959 l 37.46765908609415 -33.5038117918364" fill="red" stroke="none" /><path d="M 84.3458050057657 113.99807769240083 l -45.57472336037611 40.753198656538395 a82.1381927285563,82.1381927285563 0 0,0 -0.9308562426587231,-1.059143529222009 l 46.26759066699342 -39.96484284950509" fill="red" stroke="none" /><path d="M 83.8745106332314 113.45245675266167 l -46.82254695765567 39.06103397366572 a81.97635015884222,81.97635015884222 0 0,0 -0.8921883607624399,-1.0883247323319243 l 47.48618213765674 -38.2515069596353" fill="red" stroke="none" /><path d="M 83.64595745247003 113.17365903436017 l -47.41883403915533 38.19725609880432 a81.88986939639959,81.88986939639959 0 0,0 -0.8724529892548964,-1.1023158511330342 l 48.06755345905179 -37.3776203037566" fill="red" stroke="none" /><path d="M 82.98947788004972 112.3143062007846 l -51.03156635985085 36.942918602353814 a84.0,84.0 0 0,0 -0.8355396058801574,-1.175291093161984 l 51.658221064260964 -36.061450282482326" fill="red" stroke="none" /><path d="M 82.78059297857968 112.02048342749411 l -49.93405170607428 34.8578461647276 a81.89728203318037,81.89728203318037 0 0,0 -0.7948336478710498,-1.159686046135211 l 50.52507509076065 -33.995525383522335" fill="red" stroke="none" /><path d="M 82.37810715431573 111.42229804090323 l -50.93948269593732 33.01835725013654 a81.70455347687965,81.70455347687965 0 0,0 -0.7527802672086951,-1.1834956135310457 l 51.498780654771906 -32.13904796192682" fill="red" stroke="none" /><path d="M 81.99639281039703 110.81064883170644 l -52.1509360396324 31.315138673700574 a81.83056830215321,81.83056830215321 0 0,0 -0.7128077265469205,-1.2105033543303825 l 52.680817476309095 -30.415284151076634" fill="red" stroke="none" /><line stroke="#e1ed5e" stroke-width="0.3" x1="26.387840678322732" x2="22.057713659400548" y1="142.50000000000003" y2="145.00000000000006" /><path d="M 25.521815274538298 143.00000000000003 a86.0,86.0 0 0,1 -11.493303480769221,-40.785679425670985" fill="none" id="id81" stroke="none" /><text fill="#e1ed5e" style="font-size:6.75px; font-family:Arial;" text-anchor="middle"><textPath startOffset="21.40746469413373" xlink:href="#id81">September</textPath></text><path d="M 81.81346652052679 110.50000000000001 l -52.718264744916084 30.436904341687296 a81.87380868337453,81.87380868337453 0 0,0 -0.6922884143233463,-1.2232072943146912 l 53.23298652426081 -29.52744027727348" fill="red" stroke="none" /><path d="M 81.4637452351635 109.86951160357371 l -53.791997590296205 28.641208870519144 a81.94175785386517,81.94175785386517 0 0,0 -0.6504299927737097,-1.2472852735528148 l 54.275735652044865 -27.713577353861826" fill="red" stroke="none" /><path d="M 80.9802524753101 108.90220220490708 l -56.04995840726947 26.2342106629136 a82.88563360395341,82.88563360395341 0 0,0 -0.5921015562345151,-1.293848757690112 l 56.492044428359044 -25.268172923008798" fill="red" stroke="none" /><path d="M 80.83023694016515 108.57439118712176 l -55.502993822200956 24.825783167090115 a81.80215319449347,81.80215319449347 0 0,0 -0.5623552047305859,-1.286778760673708 l 55.92098290894851 -23.869342336640557" fill="red" stroke="none" /><path d="M 80.41425534168474 107.57618678355246 l -56.86756335254098 21.99759515916274 a81.97387927991528,81.97387927991528 0 0,0 -0.49640772252880017,-1.3167804607929223 l 57.23680175888421 -21.01814641817567" fill="red" stroke="none" /><path d="M 80.28708602549918 107.23885506374661 l -57.25999615113566 21.02666372028621 a81.9985880691846,81.9985880691846 0 0,0 -0.473873081176809,-1.3255073464575526 l 57.61250940235641 -20.040621417447735" fill="red" stroke="none" /><path d="M 80.05021161711548 106.5578916946017 l -58.006726734656105 19.067963237674668 a82.06036004235793,82.06036004235793 0 0,0 -0.42841480460308146,-1.3420032735704426 l 58.325506255036444 -18.069390930412833" fill="red" stroke="none" /><path d="M 79.83685265289637 105.86919833188381 l -58.52982800334083 17.037179908919327 a81.95905400635368,81.95905400635368 0 0,0 -0.3816228518515526,-1.3542448716481508 l 58.81366934726696 -16.02992711336818" fill="red" stroke="none" /><path d="M 79.64726062577567 105.17358676015961 l -59.09694108449323 15.02221132688772 a81.97635015884222,81.97635015884222 0 0,0 -0.33498063687127067,-1.3668353108574045 l 59.3461092478808 -14.005520191422216" fill="red" stroke="none" /><path d="M 79.407916724674 104.11899336999214 l -59.73012506706369 11.947697853127572 a81.91334274620544,81.91334274620544 0 0,0 -0.2639704578665814,-1.3812049788561096 l 59.92642181721243 -10.920590309238149" fill="red" stroke="none" /><path d="M 79.22317932658666 103.0534771498775 l -61.00058904149703 8.964985918448429 a82.65584186374869,82.65584186374869 0 0,0 -0.1942628111772009,-1.4055889297671182 l 61.14549636922944 -7.916508680481225" fill="red" stroke="none" /><path d="M 79.0935383218832 101.97986365728391 l -61.820301407647065 5.854446817629211 a83.09689375220614,83.09689375220614 0 0,0 -0.12229637861673469,-1.4212692982977762 l 61.91169140896154 -4.792356471955772" fill="red" stroke="none" /><path d="M 79.03789590574601 101.26102812881392 l -61.90591030871021 3.7241058382356678 a83.0178256265443,83.0178256265443 0 0,0 -0.07336566144762244,-1.423274232289906 l 61.96071755961441 -2.660859812569031" fill="red" stroke="none" /><path d="M 79.00696218219943 100.54070618675478 l -60.98701026478471 1.5708090486020272 a82.00723614542889,82.00723614542889 0 0,0 -0.024167018585254017,-1.4076076753082878 l 61.004988714968626 -0.5236544573246869" fill="red" stroke="none" /><line stroke="#e1ed5e" stroke-width="0.3" x1="15.003131293944662" x2="10.003315487706104" y1="100.72959589197737" y2="100.7725132973878" /><path d="M 14.003168132696942 100.73817937305945 a86.0,86.0 0 0,1 10.791469493833604,-42.45332614584628" fill="none" id="id82" stroke="none" /><text fill="#e1ed5e" style="font-size:6.75px; font-family:Arial;" text-anchor="middle"><textPath startOffset="22.145653131862435" xlink:href="#id82">October</textPath></text><path d="M 79.00077361379809 99.81974689727619 l -60.87403695611831 -0.5225303939708154 a81.87627956230145,81.87627956230145 0 0,0 0.024128426500859296,-1.405359879867219 l 60.856097098018786 1.567437189807087" fill="red" stroke="none" /><path d="M 79.03789590574601 98.7389718711861 l -60.81698585199612 -3.658598846957691 a81.92693258030357,81.92693258030357 0 0,0 0.09650227552064727,-1.403121906731974 l 60.74521961531041 4.70206417784399" fill="red" stroke="none" /><path d="M 79.13060592940154 97.66154086499901 l -60.57624626716423 -6.787694744194255 a81.95534768796328,81.95534768796328 0 0,0 0.16866376890177565,-1.3967779594028713 l 60.450800412002785 7.826566380520562" fill="red" stroke="none" /><path d="M 79.22317932658666 96.9465228501225 l -60.256202420123394 -8.855586719467619 a81.9034592304977,81.9034592304977 0 0,0 0.2163753193724882,-1.389284767552331 l 60.09530560861264 9.8886596689514" fill="red" stroke="none" /><path d="M 79.34024301695615 96.23510406497455 l -60.02851733354232 -10.939195513294022 a82.0171196611366,82.0171196611366 0 0,0 0.2643048849431871,-1.3829548426363896 l 59.831886156316976 11.968052920963725" fill="red" stroke="none" /><path d="M 79.48165901384962 95.52812308129327 l -59.688841339167176 -13.008905158030949 a82.09001058948112,82.09001058948112 0 0,0 0.3118995818884344,-1.3742871071354668 l 59.45673089572108 14.031626599105424" fill="red" stroke="none" /><path d="M 79.73907114497095 94.47779374421319 l -58.788638196192984 -16.023104761834418 a81.93310977762091,81.93310977762091 0 0,0 0.38150204871783705,-1.3538161839437626 l 58.50491765540056 17.029928869681193" fill="red" stroke="none" /><path d="M 79.94057633289273 93.78553927170692 l -58.73264245724564 -18.195522766585363 a82.48658665725378,82.48658665725378 0 0,0 0.43064001774913924,-1.3489737220571154 l 58.41163772371924 19.20106552233387" fill="red" stroke="none" /><path d="M 80.28708602549916 92.7611449362534 l -57.24028091772194 -21.019424013492234 a81.97758559830568,81.97758559830568 0 0,0 0.49643016681333696,-1.3168399969241977 l 56.871020067094165 21.998932290610576" fill="red" stroke="none" /><path d="M 81.1358732173502 90.77261029715801 l -54.79785787427341 -26.804378241983095 a82.002294387575,82.002294387575 0 0,0 0.6293874726774028,-1.2591965553082567 l 54.32965048838427 27.74110665345512" fill="red" stroke="none" /><path d="M 81.63589988554816 89.8137432299009 l -53.26107609968003 -29.543021091252843 a81.90593010942463,81.90593010942463 0 0,0 0.6925600187774031,-1.2236871933603728 l 52.746082715881265 30.452965054712323" fill="red" stroke="none" /><line stroke="#e1ed5e" stroke-width="0.3" x1="26.387840678322718" x2="22.05771365940052" y1="57.49999999999999" y2="54.99999999999999" /><path d="M 25.521815274538284 56.99999999999999 a86.0,86.0 0 0,1 29.574782752854787,-30.34633250058573" fill="none" id="id83" stroke="none" /><text fill="#e1ed5e" style="font-size:6.75px; font-family:Arial;" text-anchor="middle"><textPath startOffset="21.40746469413373" xlink:href="#id83">November</textPath></text><path d="M 82.37810715431573 88.57770195909679 l -51.2297597871711 -33.20651135364592 a82.05047652665021,82.05047652665021 0 0,0 0.7762583076549421,-1.1753540157659492 l 50.652177040595426 34.081045247750936" fill="red" stroke="none" /><path d="M 82.78059297857968 87.97951657250589 l -50.37978291500619 -35.1690011657923 a82.44087539710554,82.44087539710554 0 0,0 0.8200311492584391,-1.153476506746306 l 49.76863666721778 36.028654899248124" fill="red" stroke="none" /><path d="M 83.64595745247003 86.82634096563983 l -47.510235029978695 -38.27088226707493 a82.00723614542889,82.00723614542889 0 0,0 0.892524507927932,-1.0887347772170695 l 46.84626370281214 39.08081932599049" fill="red" stroke="none" /><path d="M 85.08716467003674 85.21462403516908 l -43.30670535107931 -42.93656479444546 a81.98376279562302,81.98376279562302 0 0,0 0.9994526520869962,-0.9909103730571381 l 42.563260778862336 43.67365517773127" fill="red" stroke="none" /><path d="M 85.60350026404147 84.71141617570332 l -42.940495153141406 -45.60131779573136 a83.63678079774093,83.63678079774093 0 0,0 1.0537048677249086,-0.9752934946659088 l 42.15136051410254 46.33172903652964" fill="red" stroke="none" /><path d="M 87.83215693770416 82.88440491214696 l -25.924134398225902 -36.46554159939979 a65.7414401694317,65.7414401694317 0 0,0 0.9254044013042958,-0.6460041426380629 l 25.294334905747842 36.90519055784298" fill="red" stroke="none" /><line stroke="#e1ed5e" stroke-width="0.3" x1="56.869717070023135" x2="54.33264160355391" y1="26.7553504044142" y2="22.446841604673864" /><path d="M 56.362301976729285 25.89364864446614 a86.0,86.0 0 0,1 42.16139366436587,-11.88097634709845" fill="none" id="id84" stroke="none" /><text fill="#e1ed5e" style="font-size:6.75px; font-family:Arial;" text-anchor="middle"><textPath startOffset="22.145653131862474" xlink:href="#id84">December</textPath></text></svg>