<?xml version="1.0" encoding="utf-8" ?>
<svg baseProfile="full" height="200mm" version="1.1" viewBox="0,0,200,200" width="200mm" xmlns="http://www.w3.org/2000/svg" xmlns:ev="http://www.w3.org/2001/xml-events" xmlns:xlink="http://www.w3.org/1999/xlink"><defs /><rect fill="#1a1a1a" height="200" width="200" x="0" y="0" /><rect fill="#1a1a1a" height="200" width="180" x="10" y="0" /><text alignment-baseline="middle" fill="#e1ed5e" style="dominant-baseline: central; font-size:9.0px; font-family:Arial;" text-anchor="middle" x="100.0" y="100.0">2026</text><line stroke="#e1ed5e" stroke-width="0.3" x1="100.0" x2="100.0" y1="15.0" y2="10.0" /><path d="M 100.0 14.0 a86.0,86.0 0 0,1 42.46469731375804,11.215312516191453" fill="none" id="id145" stroke="none" /><text fill="#e1ed5e" style="font-size:6.75px; font-family:Arial;" text-anchor="middle"><textPath startOffset="22.20632615414155" xlink:href="#id145">January</textPath></text><line stroke="#e1ed5e" stroke-width="0.3" x1="143.23703022742887" x2="145.7803849466894" y1="26.81831364943548" y2="22.513508569990506" /><path d="M 143.74570117128098 25.957352633546492 a86.0,86.0 0 0,1 28.547481713284135,27.462654790039103" fill="none" id="id146" stroke="none" /><text fill="#e1ed5e" style="font-size:6.75px; font-family:Arial;" text-anchor="middle"><textPath startOffset="19.985693538727396" xlink:href="#id146">February</textPath></text><path d="M 114.68862486808459 84.99185889309783 l 4.54080966007172 -4.639584217717694 a27.49189449100151,27.49189449100151 0 0,0 0.3353542454367522,0.3339141277316185 l -4.619999705675795 4.5607342393359565" fill="red" stroke="none" /><path d="M 115.4437574822437 85.77008943001954 l 25.405682730392055 -23.408849409765132 a55.545954114576176,55.545954114576176 0 0,0 0.6418370954262757,0.7087325515930577 l -25.80486346643437 22.968064070902525" fill="red" stroke="none" /><path d="M 116.15771136456269 86.58626213691792 l 32.437510120944445 -26.92882970095044 a63.158675642258544,63.158675642258544 0 0,0 0.6872310772720507,0.8424640416182793 l -32.8962396902929 26.366481489724062" fill="red" stroke="none" /><path d="M 117.04232023915458 87.72973835380427 l 27.455919428328098 -19.76792539952687 a54.83191372441269,54.83191372441269 0 0,0 0.5448918298232002,0.7707108508352417 l -27.792123877955184 19.292388048359836" fill="red" stroke="none" /><path d="M 117.45458315368197 88.32363383020206 l 38.049607322836614 -25.45355244560774 a66.7783349361176,66.7783349361176 0 0,0 0.6309069684057697,0.9609145969211118 l -38.482110926600306 24.794819784708956" fill="red" stroke="none" /><line stroke="#e1ed5e" stroke-width="0.3" x1="172.23445277983987" x2="176.4835382374775" y1="55.19839476539836" y2="52.563006222186495" /><path d="M 173.08426987136738 54.67131705675599 a86.0,86.0 0 0,1 12.851231095245387,41.99856678651699" fill="none" id="id147" stroke="none" /><text fill="#e1ed5e" style="font-size:6.75px; font-family:Arial;" text-anchor="middle"><textPath startOffset="22.20632615414155" xlink:href="#id147">March</textPath></text><path d="M 117.84615892207809 88.93136811851018 l 13.35808794632575 -8.285018572569625 a36.71878005220497,36.71878005220497 0 0,0 0.3285180322862979,0.5399972670781837 l -13.498721776898272 8.053853532284359" fill="red" stroke="none" /><path d="M 118.3937258080291 89.86733742301442 l 32.64648977389185 -17.984168550422773 a58.27229014974584,58.27229014974584 0 0,0 0.47642286946204726,0.8827392210191809 l -32.95122074257237 17.419548346071135" fill="red" stroke="none" /><path d="M 118.73160827565052 90.50648371742162 l 29.23502868354821 -14.816838829033895 a53.77538123368595,53.77538123368595 0 0,0 0.4113560259430881,0.8292686470163194 l -29.485744722444707 14.311410593518625" fill="red" stroke="none" /><path d="M 118.89224826269711 90.83032412892265 l 42.72696643573812 -20.73826406059444 a68.49388652287402,68.49388652287402 0 0,0 0.5056864703478182,1.0651046726809852 l -43.077611099927694 19.999716972272914" fill="red" stroke="none" /><path d="M 119.34039704204932 91.81776055985345 l 47.3718833442365 -20.041372026153702 a72.43687319686771,72.43687319686771 0 0,0 0.4759389319496299,1.152523874853478 l -47.70984396307233 19.222973580846922" fill="red" stroke="none" /><path d="M 119.47837535516314 92.15188598940014 l 32.004966598818754 -12.895255491951994 a55.50515180656683,55.50515180656683 0 0,0 0.349435194458263,0.8892744551776172 l -32.22219534315872 12.342432031878593" fill="red" stroke="none" /><path d="M 119.85752413597 93.16781622104841 l 59.1142588957733 -20.338863896977863 a83.51531803819206,83.51531803819206 0 0,0 0.45600439894144806,1.363395111499499 l -59.45560058848652 19.318295682556048" fill="red" stroke="none" /><path d="M 120.08093135843002 93.85539295169968 l 32.82654713369949 -10.044665224375448 a55.32896002198103,55.32896002198103 0 0,0 0.2708328956762871,0.913113885975938 l -32.99458592648748 9.47812195165298" fill="red" stroke="none" /><path d="M 120.6074358757038 95.95851677861258 l 56.142148791393716 -11.010469896478819 a78.21163621376562,78.21163621376562 0 0,0 0.24772335069447873,1.3233480449654211 l -56.323357865998055 10.042443774050835" fill="red" stroke="none" /><path d="M 120.78858239683441 97.02765380044208 l 30.772838360646812 -4.399892566258233 a52.08579475202637,52.08579475202637 0 0,0 0.11926159066332319,0.8886373761255054 l -30.84401595036797 3.869536848068063" fill="red" stroke="none" /><path d="M 120.96714384426684 98.82574320788733 l 62.00641970108741 -3.4726455844151545 a83.10358565737053,83.10358565737053 0 0,0 0.06769535683124589,1.4289419895562225 l -62.05700866615215 2.404792488235932" fill="red" stroke="none" /><line stroke="#e1ed5e" stroke-width="0.3" x1="184.98032266829074" x2="189.97916517819016" y1="98.17113171792111" y2="98.06355123074" /><path d="M 185.9800911702706 98.14961562048488 a86.0,86.0 0 0,1 -9.607161424134198,41.387399972396054" fill="none" id="id148" stroke="none" /><text fill="#e1ed5e" style="font-size:6.75px; font-family:Arial;" text-anchor="middle"><textPath startOffset="21.466115282336823" xlink:href="#id148">April</textPath></text><path d="M 120.99513854157772 99.54816195383933 l 37.677771048650044 -0.8108663070070736 a58.68649539771947,58.68649539771947 0 0,0 0.01304235506225599,1.010144772751291 l -37.68614641083002 0.16218527619531986" fill="red" stroke="none" /><path d="M 120.9904718944345 100.63252640178507 l 34.296700029975774 1.0334959772302408 a55.31226816870449,55.31226816870449 0 0,0 -0.03686922769162609,0.9514309419904282 l -34.273828669432945 -1.6237041662346752" fill="red" stroke="none" /><path d="M 120.95626037817324 101.35467743843564 l 62.86878113451971 4.064032315306923 a84.0,84.0 0 0,0 -0.10569376534264929,1.4421074540129188 l -62.789510810512716 -5.145612905816612" fill="red" stroke="none" /><line stroke="#e1ed5e" stroke-width="0.3" x1="174.80103733775053" x2="179.2010983576182" y1="140.37084112569926" y2="142.7455964860345" /><path d="M 175.68104954172406 140.8457921977663 a86.0,86.0 0 0,1 -30.038265399797805,32.042727171017184" fill="none" id="id149" stroke="none" /><text fill="#e1ed5e" style="font-size:6.75px; font-family:Arial;" text-anchor="middle"><textPath startOffset="22.206326154141568" xlink:href="#id149">May</textPath></text><line stroke="#e1ed5e" stroke-width="0.3" x1="143.8653032363475" x2="146.44561519142675" y1="172.8068346515853" y2="177.08958963109032" /><path d="M 144.38136562736335 173.6633856474863 a86.0,86.0 0 0,1 -40.68145358897372,12.25698825130547" fill="none" id="id150" stroke="none" /><text fill="#e1ed5e" style="font-size:6.75px; font-family:Arial;" text-anchor="middle"><textPath startOffset="21.466115282336833" xlink:href="#id150">June</textPath></text><line stroke="#e1ed5e" stroke-width="0.3" x1="102.19456741930631" x2="102.32365962044197" y1="184.97166512339345" y2="189.96999836594603" /><path d="M 102.22038585953345 185.97133177190398 a86.0,86.0 0 0,1 -42.740103519485714,-10.115201625700543" fill="none" id="id151" stroke="none" /><text fill="#e1ed5e" style="font-size:6.75px; font-family:Arial;" text-anchor="middle"><textPath startOffset="22.20632615414155" xlink:href="#id151">July</textPath></text><line stroke="#e1ed5e" stroke-width="0.3" x1="58.666819895761336" x2="56.23545636021788" y1="174.27360380694188" y2="178.64263932499728" /><path d="M 58.180547188652646 175.14741091055294 a86.0,86.0 0 0,1 -31.652253787137756,-30.449443065178592" fill="none" id="id152" stroke="none" /><text fill="#e1ed5e" style="font-size:6.75px; font-family:Arial;" text-anchor="middle"><textPath startOffset="22.20632615414155" xlink:href="#id152">August</textPath></text><line stroke="#e1ed5e" stroke-width="0.3" x1="26.63291911575756" x2="22.317208475507996" y1="142.92168965132927" y2="145.44649492493687" /><path d="M 25.769776987707644 143.4266507060508 a86.0,86.0 0 0,1 -11.730757126820373,-40.83630448921669" fill="none" id="id153" stroke="none" /><text fill="#e1ed5e" style="font-size:6.75px; font-family:Arial;" text-anchor="middle"><textPath startOffset="21.46611528233685" xlink:href="#id153">September</textPath></text><line stroke="#e1ed5e" stroke-width="0.3" x1="15.007084014347285" x2="10.007500721073583" y1="101.09737516637583" y2="101.16192664675087" /><path d="M 14.007167355692545 101.11028546245083 a86.0,86.0 0 0,1 10.666146001902534,-42.60595125391555" fill="none" id="id154" stroke="none" /><text fill="#e1ed5e" style="font-size:6.75px; font-family:Arial;" text-anchor="middle"><textPath startOffset="22.20632615414155" xlink:href="#id154">October</textPath></text><line stroke="#e1ed5e" stroke-width="0.3" x1="26.266209847984243" x2="21.928928074336255" y1="57.711370442889674" y2="55.22380399835377" /><path d="M 25.398753493254645 57.213857153982495 a86.0,86.0 0 0,1 29.58750427330803,-30.492523968695096" fill="none" id="id155" stroke="none" /><text fill="#e1ed5e" style="font-size:6.75px; font-family:Arial;" text-anchor="middle"><textPath startOffset="21.46611528233685" xlink:href="#id155">November</textPath></text><line stroke="#e1ed5e" stroke-width="0.3" x1="56.762969772571076" x2="54.21961505331055" y1="26.818313649435495" y2="22.513508569990535" /><path d="M 56.25429882871897 25.957352633546506 a86.0,86.0 0 0,1 42.265352541879196,-11.944610805530505" fill="none" id="id156" stroke="none" /><text fill="#e1ed5e" style="font-size:6.75px; font-family:Arial;" text-anchor="middle"><textPath startOffset="22.20632615414155" xlink:href="#id156">December</textPath></text></svg>