<?xml version="1.0" encoding="utf-8" ?>
<svg baseProfile="full" height="200mm" version="1.1" viewBox="0,0,200,200" width="200mm" xmlns="http://www.w3.org/2000/svg" xmlns:ev="http://www.w3.org/2001/xml-events" xmlns:xlink="http://www.w3.org/1999/xlink"><defs /><rect fill="#1a1a1a" height="200" width="200" x="0" y="0" /><rect fill="#1a1a1a" height="200" width="180" x="10" y="0" /><text alignment-baseline="middle" fill="#e1ed5e" style="dominant-baseline: central; font-size:9.0px; font-family:Arial;" text-anchor="middle" x="100.0" y="100.0">2025</text><line stroke="#e1ed5e" stroke-width="0.3" x1="100.0" x2="100.0" y1="15.0" y2="10.0" /><path d="M 100.0 14.0 a86.0,86.0 0 0,1 42.46469731375804,11.215312516191453" fill="none" id="id133" stroke="none" /><text fill="#e1ed5e" style="font-size:6.75px; font-family:Arial;" text-anchor="middle"><textPath startOffset="22.20632615414155" xlink:href="#id133">January</textPath></text><path d="M 100.0 79.0 l 0.0 -38.49043211040308 a59.49043211040308,59.49043211040308 0 0,0 1.0240299957808723,0.008814149471493693 l -0.6625495165083438 38.484729337540145" fill="#42ff2d" stroke="none" /><path d="M 100.72285384407766 79.0124445844662 l 0.78917086679066 -22.913023752716438 a43.9266100448701,43.9266100448701 0 0,0 0.7554522818935102,0.03253136439442253 l -1.1834639810735017 22.89604466179782" fill="#f6ff19" stroke="none" /><path d="M 101.08401301168833 79.027996857942 l 0.768682165116837 -14.871412619823086 a35.891265412314766,35.891265412314766 0 0,0 0.6167109845682553,0.037201690753803085 l -1.0245551985247041 14.85597765968898" fill="#ff9e0e" stroke="none" /><path d="M 101.80526077348638 79.07773832637324 l 2.671338050039067 -30.959756353480103 a52.074789789223644,52.074789789223644 0 0,0 0.8924003979618623,0.08474417073967978 l -3.203863575091174 30.909186638225243" fill="#93ff23" stroke="none" /><path d="M 102.88285421437855 79.19881850522331 l 3.0963426076155987 -22.34160306469265 a43.55514497945025,43.55514497945025 0 0,0 0.7417462336465955,0.10931411350408136 l -3.48045782169085 22.284994467027598" fill="#fbff18" stroke="none" /><path d="M 103.95276090670814 79.375362276772 l 6.804785733276763 -35.50587648619114 a57.1520728856378,57.1520728856378 0 0,0 0.9646006856787217,0.19348982305504267 l -7.41495282842261 35.38348270705889" fill="#5bff2a" stroke="none" /><path d="M 104.307194497241 79.44645832069477 l 4.7342029483503465 -22.59118729826051 a44.08190679084499,44.08190679084499 0 0,0 0.7413260055415674,0.16202515154520067 l -5.122371678045442 22.506348648619436" fill="#f4ff19" stroke="none" /><path d="M 105.01212808612495 79.60689891045804 l 7.424005660542862 -30.206430347200826 a52.10537404321104,52.10537404321104 0 0,0 0.869145208527564,0.22156446597900906 l -7.942859757755452 30.074162885052946" fill="#93ff23" stroke="none" /><path d="M 106.40334571778207 80.00007090966166 l 9.074263525049322 -28.34215659230266 a50.759369933260444,50.759369933260444 0 0,0 0.8298363633447651,0.27358400198540245 l -9.560782710636504 28.181758866058022" fill="#a3ff22" stroke="none" /><path d="M 107.4271985657038 80.35727306442388 l 10.515831897076168 -27.811241698654502 a50.73294276233928,50.73294276233928 0 0,0 0.8141836095246016,0.31589059139424464 l -10.992998671600438 27.626108403369713" fill="#a3ff22" stroke="none" /><path d="M 108.43124777332544 80.76684994638697 l 14.460856796091425 -32.98774228210561 a57.01815542400362,57.01815542400362 0 0,0 0.8955051062322257,0.40178703781910036 l -15.02654402079043 32.73393491376998" fill="#5cff2a" stroke="none" /><path d="M 109.73455568895987 81.39251694778311 l 14.42743849661174 -27.57787061787195 a52.123783982504435,52.123783982504435 0 0,0 0.7914250817385625,0.42275186987845836 l -14.900008624878614 27.32544002149174" fill="#93ff23" stroke="none" /><line stroke="#e1ed5e" stroke-width="0.3" x1="143.23703022742887" x2="145.7803849466894" y1="26.81831364943548" y2="22.513508569990506" /><path d="M 143.74570117128098 25.957352633546492 a86.0,86.0 0 0,1 28.547481713284135,27.462654790039103" fill="none" id="id134" stroke="none" /><text fill="#e1ed5e" style="font-size:6.75px; font-family:Arial;" text-anchor="middle"><textPath startOffset="19.985693538727396" xlink:href="#id134">February</textPath></text><path d="M 110.68208982089419 81.91981866633111 l 15.29239375409468 -25.883441979591257 a51.0634308661061,51.0634308661061 0 0,0 0.7529131059628383,0.45362172194036793 l -15.735668926275157 25.616373648192276" fill="#9fff22" stroke="none" /><path d="M 111.60114157652 82.49532879139004 l 17.303290101112847 -26.108499930748465 a52.321839297160736,52.321839297160736 0 0,0 0.7464465444497466,0.5040040388780448 l -17.750141339969133 25.80678397957175" fill="#91ff24" stroke="none" /><path d="M 113.06298171725822 83.55741782278167 l 20.731345042089455 -26.094872662071666 a54.32763187662607,54.32763187662607 0 0,0 0.7272053659313812,0.588016165506477 l -21.177453806585326 25.734150399301058" fill="#7aff26" stroke="none" /><path d="M 113.89432698308785 84.25364557470407 l 20.18432459063754 -22.87476962549224 a51.506754081671126,51.506754081671126 0 0,0 0.6597500434554726,0.5923301031333149 l -20.575085621689002 22.52394051358963" fill="#9aff23" stroke="none" /><path d="M 114.94478906791727 85.2469230424477 l 24.64085562633332 -24.32476214305599 a55.624641793295886,55.624641793295886 0 0,0 0.6667957218136263,0.6871916043276405 l -25.055915611850054 23.897006343178237" fill="#6cff28" stroke="none" /><path d="M 115.68641384162765 86.03803664274999 l 16.736275632996357 -14.89641096326483 a43.40548998906527,43.40548998906527 0 0,0 0.49194570394227577,0.562378981019683 l -16.99021320051648 14.606116426042199" fill="#fdff18" stroke="none" /><path d="M 116.38621287248628 86.86637796730983 l 24.385620815628698 -19.545182850805617 a52.251762754043966,52.251762754043966 0 0,0 0.5564711200816299,0.7066618119766581 l -24.71844601630429 19.122528644875917" fill="#91ff23" stroke="none" /><path d="M 117.04232023915458 87.72973835380427 l 25.134787704248787 -18.096739013514476 a51.9717535160816,51.9717535160816 0 0,0 0.5164690040699718,0.7305087794873923 l -25.44256932812264 17.66140373369529" fill="#95ff23" stroke="none" /><path d="M 117.45458315368197 88.32363383020206 l 20.38792190847856 -13.638643761849119 a45.52916556690924,45.52916556690924 0 0,0 0.4301495065629002,0.6551472093566504 l -20.619668050399387 13.285678488514796" fill="#e2ff1b" stroke="none" /><line stroke="#e1ed5e" stroke-width="0.3" x1="172.23445277983987" x2="176.4835382374775" y1="55.19839476539836" y2="52.563006222186495" /><path d="M 173.08426987136738 54.67131705675599 a86.0,86.0 0 0,1 12.851231095245387,41.99856678651699" fill="none" id="id135" stroke="none" /><text fill="#e1ed5e" style="font-size:6.75px; font-family:Arial;" text-anchor="middle"><textPath startOffset="22.20632615414155" xlink:href="#id135">March</textPath></text><path d="M 118.03404312379186 89.2402003453031 l 30.62815770075914 -18.273929944076684 a56.66539723238189,56.66539723238189 0 0,0 0.4925580979555812,0.8419414544594168 l -30.938175473185048 17.744009077263375" fill="#60ff29" stroke="none" /><path d="M 118.56541770881063 90.18545643968196 l 41.96539731391 -22.1848614678872 a68.46854379548283,68.46854379548283 0 0,0 0.5418488620986995,1.0466795345458195 l -42.34105560916882 21.459209211081035" fill="#39ff87" stroke="none" /><path d="M 119.04729006885535 91.15688171328212 l 27.42577074240713 -12.733009992643407 a51.23743448587912,51.23743448587912 0 0,0 0.36451209509203064,0.8031540836261002 l -27.64088515446251 12.259033900175245" fill="#9dff22" stroke="none" /><path d="M 119.47837535516314 92.15188598940014 l 27.6322505179783 -11.133426093314663 a50.79084499076204,50.79084499076204 0 0,0 0.31975606260654604,0.8137443018726597 l -27.819800130466547 10.65613278654622" fill="#a2ff22" stroke="none" /><path d="M 119.85752413597 93.16781622104841 l 21.3465951033321 -7.3445138377875985 a43.57474265676257,43.57474265676257 0 0,0 0.23792371029633744,0.7113616102845997 l -21.469856107400204 6.975979124580684" fill="#faff18" stroke="none" /><path d="M 120.08093135843002 93.85539295169968 l 60.24279407529006 -18.433821144900946 a84.0,84.0 0 0,0 0.41117641155319085,1.3862824530138804 l -60.551176383954946 17.394109305140535" fill="#4dd2ff" stroke="none" /><path d="M 120.37134235888165 94.90015583598534 l 18.95886348628301 -4.746238495408545 a40.54393216696203,40.54393216696203 0 0,0 0.16365693315279325,0.678463644289034 l -19.037753219696622 4.419189619460106" fill="#ffdc14" stroke="none" /><path d="M 120.6074358757038 95.95851677861258 l 21.05335014225368 -4.128934908113938 a42.45440877040836,42.45440877040836 0 0,0 0.1344678221999349,0.7183324830710349 l -21.121303688363476 3.7659243475803397" fill="#fff517" stroke="none" /><path d="M 120.83666639777658 97.38593545837742 l 32.460605138966756 -4.072346088069017 a53.715055993363755,53.715055993363755 0 0,0 0.10719900167020623,0.9184155809832574 l -32.52589449364055 3.512986768760907" fill="#81ff25" stroke="none" /><path d="M 120.96714384426684 98.82574320788733 l 29.985857855671192 -1.6793463867027774 a51.032846612118696,51.032846612118696 0 0,0 0.04157085081460879,0.8774949575737208 l -30.010322314719296 1.1629403225060568" fill="#a0ff22" stroke="none" /><line stroke="#e1ed5e" stroke-width="0.3" x1="184.98032266829074" x2="189.97916517819016" y1="98.17113171792111" y2="98.06355123074" /><path d="M 185.9800911702706 98.14961562048488 a86.0,86.0 0 0,1 -9.607161424134198,41.387399972396054" fill="none" id="id136" stroke="none" /><text fill="#e1ed5e" style="font-size:6.75px; font-family:Arial;" text-anchor="middle"><textPath startOffset="21.466115282336823" xlink:href="#id136">April</textPath></text><path d="M 120.99980553446 99.90962569577887 l 36.28654512469388 -0.15616198268367332 a57.28688115078617,57.28688115078617 0 0,0 -0.004243874108676038,0.9861268837752949 l -36.2838569532957 -0.4684743792953063" fill="#59ff2a" stroke="none" /><path d="M 120.9904718944345 100.63252640178507 l 35.75279827601912 1.0773740085983472 a56.769027374533394,56.769027374533394 0 0,0 -0.03784025254072036,0.9764887786936285 l -35.7289558906272 -1.6926400343059818" fill="#5fff29" stroke="none" /><path d="M 120.92983693683757 101.71520430193887 l 21.38420719498713 1.752440035012334 a42.45589344293202,42.45589344293202 0 0,0 -0.06595907923776796,0.7278529431073445 l -21.350873519472287 -2.120274366668249" fill="#fff517" stroke="none" /><path d="M 120.81339534386255 102.79330883721812 l 30.828679384039688 4.137432703338105 a52.10507710870631,52.10507710870631 0 0,0 -0.1269526531961962,0.8879065607695464 l -30.752892679826893 -4.66748473608806" fill="#93ff23" stroke="none" /><path d="M 120.49622156327973 104.57218783832717 l 39.69573117167512 8.855112086697954 a61.67141604766035,61.67141604766035 0 0,0 -0.24004698314272283,1.0341161207656142 l -39.53742362260184 -9.537096864812133" fill="#30ff34" stroke="none" /><path d="M 120.23288151984713 105.62410040840565 l 28.623641573994355 7.956466018369447 a50.70889106745598,50.70889106745598 0 0,0 -0.24100574780346712,0.8389726250876218 l -28.48244318930479 -8.447996118961651" fill="#a3ff21" stroke="none" /><path d="M 119.67450827220406 107.3425965602758 l 14.364186306987637 5.360765489516989 a36.3319162173372,36.3319162173372 0 0,0 -0.22371069524910198,0.5840380327031309 l -14.26978133214503 -5.607227089053264" fill="#ffa40f" stroke="none" /><path d="M 119.26925614724726 108.34839909993367 l 25.29375954677736 10.958513282538965 a48.565617812299685,48.565617812299685 0 0,0 -0.3389392507583911,0.7642185331111804 l -25.101379211287696 -11.392280152142833" fill="#bdff1f" stroke="none" /><path d="M 118.97047184881838 109.00673069616215 l 26.829115526170025 12.7378285730667 a50.69938916330455,50.69938916330455 0 0,0 -0.3810825462405176,0.785142918177194 l -26.605879723314793 -13.19776044720917" fill="#a3ff21" stroke="none" /><line stroke="#e1ed5e" stroke-width="0.3" x1="174.80103733775053" x2="179.2010983576182" y1="140.37084112569926" y2="142.7455964860345" /><path d="M 175.68104954172406 140.8457921977663 a86.0,86.0 0 0,1 -30.038265399797805,32.042727171017184" fill="none" id="id137" stroke="none" /><text fill="#e1ed5e" style="font-size:6.75px; font-family:Arial;" text-anchor="middle"><textPath startOffset="22.206326154141568" xlink:href="#id137">May</textPath></text><path d="M 118.30583269289576 110.29060199501025 l 38.85364844885898 21.841532092469215 a65.5719477018212,65.5719477018212 0 0,0 -0.5615706620272908,0.9791457841765521 l -38.47192579067931 -22.50709772250408" fill="#35ff64" stroke="none" /><path d="M 117.75023020441432 111.22182372390056 l 25.126973153605675 15.885453889765373 a50.72730100674937,50.72730100674937 0 0,0 -0.47295994433952315,0.7340443366778032 l -24.8498083458891 -16.315619826364628" fill="#a3ff21" stroke="none" /><path d="M 116.93607887273984 112.41649034213515 l 27.88408747702519 20.44289622523023 a55.57505373100562,55.57505373100562 0 0,0 -0.5722609153402312,0.7666370136404818 l -27.52806529498987 -20.919846118380026" fill="#6cff28" stroke="none" /><path d="M 116.27256486870786 113.27417163493432 l 25.408817613184954 20.726972592178804 a53.790477357565706,53.790477357565706 0 0,0 -0.591449351880843,0.712438845308739 l -25.04827226141057 -21.161272694601312" fill="#80ff26" stroke="none" /><path d="M 115.56566222782051 114.09645910891815 l 16.262114244753796 14.727174797999263 a42.939599751140605,42.939599751140605 0 0,0 -0.5008671046794235,0.5435923196749355 l -16.00620073207865 -15.004918372475533" fill="#fffc17" stroke="none" /><path d="M 114.29624159901734 115.38237550388516 l 10.15273840980703 10.924076340672942 a35.91353550016968,35.91353550016968 0 0,0 -0.45644470501109824,0.4169514158281385 l -9.963194155329068 -11.097220523087662" fill="#ff9e0e" stroke="none" /><path d="M 113.20401910651253 116.32954008644616 l 18.78439873606442 23.230850371085946 a50.875174390105954,50.875174390105954 0 0,0 -0.6857065198960761,0.5447667304480847 l -18.381734723450993 -23.55075101553916" fill="#a1ff22" stroke="none" /><path d="M 112.63410532772338 116.77436683061366 l 20.678813895742323 27.45536790389245 a55.37165359526413,55.37165359526413 0 0,0 -0.7662778451219379,0.5668740307052185 l -20.20315108020182 -27.807251883337436" fill="#6eff28" stroke="none" /><path d="M 111.1453310114006 117.79835938074945 l 19.119857164485378 30.53315229256194 a57.02557878662192,57.02557878662192 0 0,0 -0.8364316381989737,0.5138046282007548 l -18.591446326354095 -30.857745387591073" fill="#5cff2a" stroke="none" /><line stroke="#e1ed5e" stroke-width="0.3" x1="143.8653032363475" x2="146.44561519142675" y1="172.8068346515853" y2="177.08958963109032" /><path d="M 144.38136562736335 173.6633856474863 a86.0,86.0 0 0,1 -40.68145358897372,12.25698825130547" fill="none" id="id138" stroke="none" /><text fill="#e1ed5e" style="font-size:6.75px; font-family:Arial;" text-anchor="middle"><textPath startOffset="21.466115282336833" xlink:href="#id138">June</textPath></text><path d="M 110.5260780823613 118.17145234162733 l 15.709936377060622 27.120486655340788 a52.34203084348253,52.34203084348253 0 0,0 -0.7835134255951126,0.4448993714972165 l -15.24077418454431 -27.386889192632633" fill="#90ff24" stroke="none" /><path d="M 109.57404056367764 118.69057910512821 l 13.585094622839138 26.521016284611626 a50.79797141887561,50.79797141887561 0 0,0 -0.7816745696024987,0.3919478564965704 l -13.12656614555388 -26.750931982017498" fill="#a2ff22" stroke="none" /><path d="M 108.59647513512805 119.15986991738527 l 15.665366913931875 34.91505385184542 a59.26832510086347,59.26832510086347 0 0,0 -0.9344055756456568,0.40961594471444346 l -15.062040663628464 -35.179534349854315" fill="#44ff2d" stroke="none" /><path d="M 107.59598834532513 119.57807347666477 l 10.831393622120084 27.917080773176014 a50.94465706421327,50.94465706421327 0 0,0 -0.8202812212650448,0.3101601692084407 l -10.349242180094764 -28.099389192491085" fill="#a1ff22" stroke="none" /><path d="M 105.88484417918355 120.15858648285463 l 8.88875857461433 30.44852216910156 a52.71943459899702,52.71943459899702 0 0,0 -0.8733070539113679,0.24680529666373457 l -8.363320352598357 -30.597016259103814" fill="#8cff24" stroke="none" /><path d="M 105.18746579009965 120.34920634021253 l 8.402248129619531 32.960040187177405 a55.014144451566686,55.014144451566686 0 0,0 -0.9196445096373801,0.2260262456291126 l -7.83365033523894 -33.099787691120554" fill="#72ff27" stroke="none" /><path d="M 104.13013068566511 120.58985236759428 l 7.015175925900997 34.97260683501653 a56.66925738094341,56.66925738094341 0 0,0 -0.9580676965907803,0.1836159542719591 l -6.4121406147385125 -35.088179987636956" fill="#60ff29" stroke="none" /><path d="M 103.7750983002368 120.6578951692458 l 1.2964667741999505 7.094457569529463 a28.211945250933226,28.211945250933226 0 0,0 -0.47846253894733737,0.08318684536311116 l -1.174155263780563 -7.11572299341358" fill="#ff2f04" stroke="none" /><path d="M 103.06178313531738 120.77559828337769 l 5.7047804660510755 38.70954343252393 a60.12765355755817,60.12765355755817 0 0,0 -1.025237791332621,0.1420886158906707 l -5.037614083531624 -38.8020066139072" fill="#3cff2e" stroke="none" /><path d="M 102.34483914955558 120.86867818915974 l 2.6560468981903296 23.63837535899001 a44.78712623958373,44.78712623958373 0 0,0 -0.7668566994030571,0.07948783238099809 l -2.2487576021816698 -23.680592559826767" fill="#ebff1a" stroke="none" /><path d="M 101.26447882468166 120.96189622390904 l 2.7086217770774645 44.902174312971916 a65.98379585988462,65.98379585988462 0 0,0 -1.1343303617517904,0.05863192291946999 l -1.9353033469121947 -44.94214604265358" fill="#35ff69" stroke="none" /><line stroke="#e1ed5e" stroke-width="0.3" x1="102.19456741930631" x2="102.32365962044197" y1="184.97166512339345" y2="189.96999836594603" /><path d="M 102.22038585953345 185.97133177190398 a86.0,86.0 0 0,1 -42.740103519485714,-10.115201625700543" fill="none" id="id139" stroke="none" /><text fill="#e1ed5e" style="font-size:6.75px; font-family:Arial;" text-anchor="middle"><textPath startOffset="22.20632615414155" xlink:href="#id139">July</textPath></text><path d="M 100.18074693466247 120.99922214144158 l 0.20475105582109265 23.788026684442404 a44.78890784661212,44.78890784661212 0 0,0 -0.7709959809670799,0.0 l 0.20475105582107628 -23.788026684442404" fill="#ebff1a" stroke="none" /><path d="M 99.09653310690486 120.98055641714683 l -1.9217365247646352 44.62709357128642 a65.66845141585914,65.66845141585914 0 0,0 -1.1289092614254412,-0.05835171395461372 l 2.6896338546035654 -44.58740205056961" fill="#35ff66" stroke="none" /><path d="M 98.01472825383883 120.90594882070398 l -1.5309764304308529 16.121981770093146 a37.19451095358395,37.19451095358395 0 0,0 -0.6368539868621428,-0.06601251967710471 l 1.808263013898589 -16.093239881960283" fill="#ffaf10" stroke="none" /><path d="M 97.2962882734958 120.8252237178851 l -3.9568200775552005 30.47723709548318 a51.73301817427699,51.73301817427699 0 0,0 -0.8821006999914589,-0.1222511192989268 l 4.480849368733491 -30.404611410691647" fill="#97ff23" stroke="none" /><path d="M 96.22490169976321 120.6578951692458 l -4.342480443622938 23.76269401335477 a45.15621582896573,45.15621582896573 0 0,0 -0.763424715365385,-0.14631216366590852 l 4.750872773560018 -23.684424651340393" fill="#e6ff1a" stroke="none" /><path d="M 94.46302465271185 120.25689768951611 l -3.2102598479535556 11.744662242104162 a33.17550243203499,33.17550243203499 0 0,0 -0.5495582513606929,-0.15531065122353233 l 3.4119492674188625 -11.687662797542108" fill="#ff770b" stroke="none" /><path d="M 93.76903079525671 120.05430185196036 l -6.984378220139037 22.479139997723113 a44.539185928132426,44.539185928132426 0 0,0 -0.7301852867658071,-0.233782270331052 l 7.370284851995785 -22.355584880732355" fill="#eeff19" stroke="none" /><path d="M 92.7421414339146 119.70592522655815 l -10.316402429409255 28.010225472149212 a50.849638022699,50.849638022699 0 0,0 -0.818751279954035,-0.3095816763164927 l 10.797023930123572 -27.828495545726085" fill="#a2ff22" stroke="none" /><path d="M 91.40352486487194 119.15986991738527 l -21.559418976010416 48.051748720449716 a73.66667923532296,73.66667923532296 0 0,0 -1.1524696083018704,-0.5290422721066221 l 22.383356580079706 -47.67351937800902" fill="#3fffc2" stroke="none" /><path d="M 90.7491055286396 118.85261126421891 l -8.460351280774463 17.241545058044778 a40.205426831567436,40.205426831567436 0 0,0 -0.6186774557413195,-0.3102177198419976 l 8.755882644198541 -17.093359497293477" fill="#ffd814" stroke="none" /><path d="M 90.10565033884886 118.52300852407294 l -10.3769235191014 19.426425119445966 a43.02422608498925,43.02422608498925 0 0,0 -0.6502337093515131,-0.3545592630861296 l 10.709780040321553 -19.24492520460007" fill="#fffd17" stroke="none" /><line stroke="#e1ed5e" stroke-width="0.3" x1="58.666819895761336" x2="56.23545636021788" y1="174.27360380694188" y2="178.64263932499728" /><path d="M 58.180547188652646 175.14741091055294 a86.0,86.0 0 0,1 -31.652253787137756,-30.449443065178592" fill="none" id="id140" stroke="none" /><text fill="#e1ed5e" style="font-size:6.75px; font-family:Arial;" text-anchor="middle"><textPath startOffset="22.20632615414155" xlink:href="#id140">August</textPath></text><path d="M 89.1626897886671 117.98757091392108 l -21.9626543970715 36.4532153939954 a63.558137890728105,63.558137890728105 0 0,0 -0.9322489754245102,-0.5726634626589532 l 22.58688257242832 -36.06976346450807" fill="#32ff4c" stroke="none" /><path d="M 88.24862548938628 117.40417183066458 l -12.715498111280413 18.832070566837697 a43.72291297462388,43.72291297462388 0 0,0 -0.620122314939249,-0.4265257827923727 l 13.037777310842552 -18.610403994680222" fill="#f9ff18" stroke="none" /><path d="M 87.65650970185807 116.9893568818739 l -11.350975194609351 15.623277037577077 a40.3114324497568,40.3114324497568 0 0,0 -0.5578622920883867,-0.41269318708317365 l 11.618222457116303 -15.425573901754136" fill="#ffd914" stroke="none" /><path d="M 87.07902340077011 116.55440617244103 l -8.59526787857786 11.012291101231018 a34.969580709626335,34.969580709626335 0 0,0 -0.4713275144131117,-0.3744510830026362 l 8.78355288570833 -10.862706104223252" fill="#ff910d" stroke="none" /><path d="M 86.24171649860922 115.8653595955263 l -20.228505265284344 23.326493459833937 a51.87584367105313,51.87584367105313 0 0,0 -0.6695878155457784,-0.5908333955787801 l 20.62703543373671 -22.974836922482865" fill="#96ff23" stroke="none" /><path d="M 85.18274418774928 114.88116024355367 l -29.178543414412346 29.304385759767843 a62.353771539534705,62.353771539534705 0 0,0 -0.7540630878862054,-0.763861926890628 l 29.678647127354083 -28.79778333889655" fill="#31ff3d" stroke="none" /><path d="M 84.43433777217949 114.09645910891817 l -13.406389525578822 12.14099464446698 a39.08687455224162,39.08687455224162 0 0,0 -0.4473421139779449,-0.5025936072954158 l 13.613390489205106 -11.9084268674307" fill="#ffc912" stroke="none" /><path d="M 83.95833913139862 113.55231037782056 l -23.180822967485053 19.583614829033525 a51.34581558010633,51.34581558010633 0 0,0 -0.5645692479131111,-0.6800600284723539 l 23.5144882152917 -19.18169354344741" fill="#9cff22" stroke="none" /><path d="M 83.50135304334701 112.99209946851258 l -19.464729923300247 15.327784633228639 a45.77532427133215,45.77532427133215 0 0,0 -0.4821518889738553,-0.6232463112274095 l 19.725688629492172 -14.990460327887975" fill="#dfff1b" stroke="none" /><path d="M 83.28015986056508 112.70617746262583 l -12.022369498850216 9.13635292560959 a36.10001036914144,36.10001036914144 0 0,0 -0.37172478640559237,-0.4979860977867003 l 12.177855551950893 -8.92805394831358" fill="#ffa00e" stroke="none" /><path d="M 83.06392112726016 112.41649034213515 l -15.37384517294349 11.271156773991377 a40.06289826929603,40.06289826929603 0 0,0 -0.4029568424036011,-0.5596718104972006 l 15.565581807722698 -11.004851358043037" fill="#ffd614" stroke="none" /><path d="M 82.6465618267979 111.8261652097733 l -24.887209477704406 16.960342265088983 a51.116879076957886,51.116879076957886 0 0,0 -0.4892539978839879,-0.7313683439824132 l 25.175466580999124 -16.52943700690075" fill="#9fff22" stroke="none" /><path d="M 82.24976979558568 111.22182372390057 l -34.22136426994205 21.6349936314164 a61.48672278571698,61.48672278571698 0 0,0 -0.5578759467434805,-0.8994736577190123 l 34.58870485635349 -21.04272364233212" fill="#30ff31" stroke="none" /><path d="M 82.05923443525364 110.91462005526583 l -12.94872606830785 7.877613958292328 a36.156724859545264,36.156724859545264 0 0,0 -0.31890080552880684,-0.5344960932063441 l 13.08240774953489 -7.653555771199874" fill="#ffa10e" stroke="none" /><line stroke="#e1ed5e" stroke-width="0.3" x1="26.63291911575756" x2="22.317208475507996" y1="142.92168965132927" y2="145.44649492493687" /><path d="M 25.769776987707644 143.4266507060508 a86.0,86.0 0 0,1 -11.730757126820373,-40.83630448921669" fill="none" id="id141" stroke="none" /><text fill="#e1ed5e" style="font-size:6.75px; font-family:Arial;" text-anchor="middle"><textPath startOffset="21.46611528233685" xlink:href="#id141">September</textPath></text><path d="M 81.51974371655577 109.97397251340807 l -28.170614642395748 15.203952359728858 a53.011618151653416,53.011618151653416 0 0,0 -0.42648475817437836,-0.8067484374883903 l 28.428151908795012 -14.716788907154342" fill="#89ff24" stroke="none" /><path d="M 81.02952815118164 109.00673069616217 l -28.063812774389977 13.324033581283336 a52.066178688586405,52.066178688586405 0 0,0 -0.3774187619312436,-0.8129264364505846 l 28.289006153161047 -12.838987077553925" fill="#94ff23" stroke="none" /><path d="M 80.87730276802145 108.67885076344099 l -15.189424979784322 6.893732143684175 a37.6805927378304,37.6805927378304 0 0,0 -0.2629727046828017,-0.5929340262932048 l 15.305838769198404 -6.631249780898274" fill="#ffb610" stroke="none" /><path d="M 80.45479744820244 107.68017299344265 l -20.88759486159355 8.207658197905372 a43.44230986765205,43.44230986765205 0 0,0 -0.26749234159803603,-0.6983380958881281 l 21.025781482785096 -7.846896535184087" fill="#fcff18" stroke="none" /><path d="M 80.32549172779594 107.34259656027581 l -20.476907880436126 7.64205495190917 a42.85645808981562,42.85645808981562 0 0,0 -0.25198727777802915,-0.693360764215708 l 20.60541941921938 -7.288446390687345" fill="#fffa17" stroke="none" /><path d="M 80.20201598880116 107.00284435728193 l -3.8729465630293327 1.369919380156227 a25.10808887296859,25.10808887296859 0 0,0 -0.14061626042635272,-0.408696673811455 l 3.8959536543989137 -1.303050003255475" fill="#ff0000" stroke="none" /><path d="M 79.97269907076064 106.31721596034903 l -30.66423232234857 9.672425581610723 a53.15355284491535,53.15355284491535 0 0,0 -0.2677248970082216,-0.874940453881743 l 30.826183991862923 -9.143158155176932" fill="#87ff25" stroke="none" /><path d="M 79.67330655649465 105.27499134158121 l -21.167762981515477 5.493257757759623 a42.868929339014365,42.868929339014365 0 0,0 -0.17920985544047982,-0.7158542892396527 l 21.259184151251013 -5.128075629122579" fill="#fffb17" stroke="none" /><path d="M 79.58551787078972 104.9243191809786 l -4.465499583427518 1.0771542041647044 a25.593576788205574,25.593576788205574 0 0,0 -0.09961926107051444,-0.4291571694134854 l 4.483379410428588 -1.0001283774026448" fill="#ff0701" stroke="none" /><path d="M 79.50377843672027 104.57218783832718 l -23.562520763159363 5.256201516998527 a45.14166603823385,45.14166603823385 0 0,0 -0.16265178830301097,-0.7598550053831599 l 23.649506590186814 -4.849832692199203" fill="#e7ff1a" stroke="none" /><path d="M 79.35854240842038 103.8639653848113 l -29.97276468519774 5.610733869779767 a51.49339202895818,51.49339202895818 0 0,0 -0.15559232953620278,-0.872644413535715 l 30.06490345707313 -5.093970705510838" fill="#9aff22" stroke="none" /><path d="M 79.29508885075956 103.50808413554451 l -17.73113208052695 3.004229417290825 a38.98383827909959,38.98383827909959 0 0,0 -0.10640405802005458,-0.6625781708614956 l 17.780217892908297 -2.698572016736116" fill="#ffc812" stroke="none" /><path d="M 79.18660465613746 102.79330883721812 l -31.778078163016257 4.264848915616111 a53.06298782097206,53.06298782097206 0 0,0 -0.11370258889507724,-0.906321506468864 l 31.846782261158186 -3.7172096548598383" fill="#88ff25" stroke="none" /><path d="M 79.10278846688536 102.07522291339032 l -32.5374925868932 3.2311751284897055 a53.69753685758456,53.69753685758456 0 0,0 -0.08342399137644398,-0.9205767932299896 l 32.588291174546725 -2.67061694671115" fill="#81ff25" stroke="none" /><path d="M 79.04373962182676 101.35467743843564 l -23.806919435026572 1.538952850140946 a44.85660891369104,44.85660891369104 0 0,0 -0.043176940616979596,-0.7709532793443342 l 23.829882726531082 -1.128927854461174" fill="#eaff1a" stroke="none" /><line stroke="#e1ed5e" stroke-width="0.3" x1="15.007084014347285" x2="10.007500721073583" y1="101.09737516637583" y2="101.16192664675087" /><path d="M 14.007167355692545 101.11028546245083 a86.0,86.0 0 0,1 10.666146001902534,-42.60595125391555" fill="none" id="id142" stroke="none" /><text fill="#e1ed5e" style="font-size:6.75px; font-family:Arial;" text-anchor="middle"><textPath startOffset="22.20632615414155" xlink:href="#id142">October</textPath></text><path d="M 79.00019446554 99.90962569577889 l -45.52854600032168 -0.19593565570054436 a66.52896761057275,66.52896761057275 0 0,0 0.014785248490679793,-1.1451337895186326 l 45.518427744713286 0.979605703279649" fill="#36ff70" stroke="none" /><path d="M 79.03285615573316 98.82574320788736 l -25.268131902740244 -1.415131967003894 a46.30772783831681,46.30772783831681 0 0,0 0.05142232595800149,-0.79548062251006 l 25.24002898577783 1.8498716537669657" fill="#d8ff1c" stroke="none" /><path d="M 79.08570108090925 98.10471618934814 l -18.978005162880123 -1.719814089050886 a40.05577184118246,40.05577184118246 0 0,0 0.06813844300875642,-0.6861448222758946 l 18.945589594189137 2.046234442031211" fill="#ffd614" stroke="none" /><path d="M 79.12142395522702 97.74499172005258 l -38.91410817854368 -4.202951195579961 a60.14042174126164,60.14042174126164 0 0,0 0.12002208787578866,-1.0282759526658862 l 38.8359957376643 4.872170886570709" fill="#3bff2e" stroke="none" /><path d="M 79.16333360222342 97.38593545837743 l -21.094266865148512 -2.6463818151636995 a42.2596197353041,42.2596197353041 0 0,0 0.09676245691275928,-0.7209926963086568 l 21.04558840917792 3.009092853537016" fill="#fff316" stroke="none" /><path d="M 79.32604984820605 96.31383870115002 l -21.30576028708405 -3.7988129233256025 a42.64177444289431,42.64177444289431 0 0,0 0.13506127420324185,-0.7215027274026924 l 21.237213288970946 4.1649937281908676" fill="#fff817" stroke="none" /><path d="M 79.54389044137918 95.25157060432595 l -30.878825574304578 -7.167830356047676 a52.69983692168471,52.69983692168471 0 0,0 0.21272464774109218,-0.8818809992105427 l 30.75086812630267 7.698296586917616" fill="#8cff24" stroke="none" /><path d="M 79.91906864156998 93.8553929516997 l -47.53850626887863 -14.546409002229538 a70.71425945477169,70.71425945477169 0 0,0 0.3661803778618507,-1.1608918656338993 l 47.28107040724857 15.36255103428985" fill="#3cffa1" stroke="none" /><path d="M 80.14247586403 93.16781622104843 l -21.395170077063142 -7.361226553094678 a43.62611232608121,43.62611232608121 0 0,0 0.25042825891210874,-0.7079944109765599 l 21.265288737341223 7.728418590497848" fill="#faff18" stroke="none" /><path d="M 80.38941819471856 92.48833698450439 l -19.722421498281275 -7.554502238416838 a42.11976358357528,42.11976358357528 0 0,0 0.2651668772955671,-0.6748207795832899 l 19.58946107110402 7.892872022895891" fill="#fff116" stroke="none" /><path d="M 80.803312248108 91.48605970444005 l -20.27872269036 -8.993834586850815 a43.18367991403039,43.18367991403039 0 0,0 0.3072162725786853,-0.6769103335670255 l 20.120904100817963 9.34156692925991" fill="#ffff18" stroke="none" /><path d="M 81.10775173730289 90.83032412892265 l -28.892937277440325 -14.023681359333997 a53.11643603182384,53.11643603182384 0 0,0 0.4063154093387171,-0.8191070715244961 l 28.647261855148194 14.518948019357454" fill="#88ff25" stroke="none" /><path d="M 81.6062741919709 89.86733742301443 l -18.350638812221117 -10.108926983961355 a41.950807850382716,41.950807850382716 0 0,0 0.3538697643954672,-0.6294948250101374 l 18.173911406533218 10.423305318906277" fill="#ffef16" stroke="none" /><line stroke="#e1ed5e" stroke-width="0.3" x1="26.266209847984243" x2="21.928928074336255" y1="57.711370442889674" y2="55.22380399835377" /><path d="M 25.398753493254645 57.213857153982495 a86.0,86.0 0 0,1 29.58750427330803,-30.492523968695096" fill="none" id="id143" stroke="none" /><text fill="#e1ed5e" style="font-size:6.75px; font-family:Arial;" text-anchor="middle"><textPath startOffset="21.46611528233685" xlink:href="#id143">November</textPath></text><line stroke="#e1ed5e" stroke-width="0.3" x1="56.762969772571076" x2="54.21961505331055" y1="26.818313649435495" y2="22.513508569990535" /><path d="M 56.25429882871897 25.957352633546506 a86.0,86.0 0 0,1 42.265352541879196,-11.944610805530505" fill="none" id="id144" stroke="none" /><text fill="#e1ed5e" style="font-size:6.75px; font-family:Arial;" text-anchor="middle"><textPath startOffset="22.20632615414155" xlink:href="#id144">December</textPath></text></svg>