<?xml version="1.0" encoding="utf-8" ?>
<svg baseProfile="full" height="200mm" version="1.1" viewBox="0,0,200,200" width="200mm" xmlns="http://www.w3.org/2000/svg" xmlns:ev="http://www.w3.org/2001/xml-events" xmlns:xlink="http://www.w3.org/1999/xlink"><defs /><rect fill="#1a1a1a" height="200" width="200" x="0" y="0" /><rect fill="#1a1a1a" height="200" width="180" x="10" y="0" /><text alignment-baseline="middle" fill="#e1ed5e" style="dominant-baseline: central; font-size:9.0px; font-family:Arial;" text-anchor="middle" x="100.0" y="100.0">2019</text><line stroke="#e1ed5e" stroke-width="0.3" x1="100.0" x2="100.0" y1="15.0" y2="10.0" /><path d="M 100.0 14.0 a86.0,86.0 0 0,1 42.46469731375804,11.215312516191453" fill="none" id="id61" stroke="none" /><text fill="#e1ed5e" style="font-size:6.75px; font-family:Arial;" text-anchor="middle"><textPath startOffset="22.20632615414155" xlink:href="#id61">January</textPath></text><line stroke="#e1ed5e" stroke-width="0.3" x1="143.23703022742887" x2="145.7803849466894" y1="26.81831364943548" y2="22.513508569990506" /><path d="M 143.74570117128098 25.957352633546492 a86.0,86.0 0 0,1 28.547481713284135,27.462654790039103" fill="none" id="id62" stroke="none" /><text fill="#e1ed5e" style="font-size:6.75px; font-family:Arial;" text-anchor="middle"><textPath startOffset="19.985693538727396" xlink:href="#id62">February</textPath></text><line stroke="#e1ed5e" stroke-width="0.3" x1="172.23445277983987" x2="176.4835382374775" y1="55.19839476539836" y2="52.563006222186495" /><path d="M 173.08426987136738 54.67131705675599 a86.0,86.0 0 0,1 12.851231095245387,41.99856678651699" fill="none" id="id63" stroke="none" /><text fill="#e1ed5e" style="font-size:6.75px; font-family:Arial;" text-anchor="middle"><textPath startOffset="22.20632615414155" xlink:href="#id63">March</textPath></text><line stroke="#e1ed5e" stroke-width="0.3" x1="184.98032266829074" x2="189.97916517819016" y1="98.17113171792111" y2="98.06355123074" /><path d="M 185.9800911702706 98.14961562048488 a86.0,86.0 0 0,1 -9.607161424134198,41.387399972396054" fill="none" id="id64" stroke="none" /><text fill="#e1ed5e" style="font-size:6.75px; font-family:Arial;" text-anchor="middle"><textPath startOffset="21.466115282336823" xlink:href="#id64">April</textPath></text><line stroke="#e1ed5e" stroke-width="0.3" x1="174.80103733775053" x2="179.2010983576182" y1="140.37084112569926" y2="142.7455964860345" /><path d="M 175.68104954172406 140.8457921977663 a86.0,86.0 0 0,1 -30.038265399797805,32.042727171017184" fill="none" id="id65" stroke="none" /><text fill="#e1ed5e" style="font-size:6.75px; font-family:Arial;" text-anchor="middle"><textPath startOffset="22.206326154141568" xlink:href="#id65">May</textPath></text><line stroke="#e1ed5e" stroke-width="0.3" x1="143.8653032363475" x2="146.44561519142675" y1="172.8068346515853" y2="177.08958963109032" /><path d="M 144.38136562736335 173.6633856474863 a86.0,86.0 0 0,1 -40.68145358897372,12.25698825130547" fill="none" id="id66" stroke="none" /><text fill="#e1ed5e" style="font-size:6.75px; font-family:Arial;" text-anchor="middle"><textPath startOffset="21.466115282336833" xlink:href="#id66">June</textPath></text><line stroke="#e1ed5e" stroke-width="0.3" x1="102.19456741930631" x2="102.32365962044197" y1="184.97166512339345" y2="189.96999836594603" /><path d="M 102.22038585953345 185.97133177190398 a86.0,86.0 0 0,1 -42.740103519485714,-10.115201625700543" fill="none" id="id67" stroke="none" /><text fill="#e1ed5e" style="font-size:6.75px; font-family:Arial;" text-anchor="middle"><textPath startOffset="22.20632615414155" xlink:href="#id67">July</textPath></text><path d="M 93.08242187328487 119.8279376855182 l -14.597077268439193 41.83977877337611 a65.31299755811875,65.31299755811875 0 0,0 -1.058320738365059,-0.3794761635293953 l 15.315117567433978 -41.58231506880676" fill="red" stroke="none" /><path d="M 92.40401165467489 119.57807347666478 l -14.578217333768828 37.57422959909746 a61.303190327767965,61.303190327767965 0 0,0 -0.9804976001186607,-0.39016023025150887 l 15.222836009929347 -37.31772252443988" fill="red" stroke="none" /><path d="M 90.7491055286396 118.85261126421891 l -17.471667104959757 35.60591347003112 a60.661571142125425,60.661571142125425 0 0,0 -0.9334547461143835,-0.46805358790440743 l 18.0819757587569 -35.299892041217404" fill="red" stroke="none" /><path d="M 90.10565033884886 118.52300852407294 l -18.28974591132682 34.23985719332462 a59.818586091203265,59.818586091203265 0 0,0 -0.9040502215057019,-0.4929602629331416 l 18.87641894470116 -33.91995627863171" fill="red" stroke="none" /><line stroke="#e1ed5e" stroke-width="0.3" x1="58.666819895761336" x2="56.23545636021788" y1="174.27360380694188" y2="178.64263932499728" /><path d="M 58.180547188652646 175.14741091055294 a86.0,86.0 0 0,1 -31.652253787137756,-30.449443065178592" fill="none" id="id68" stroke="none" /><text fill="#e1ed5e" style="font-size:6.75px; font-family:Arial;" text-anchor="middle"><textPath startOffset="22.20632615414155" xlink:href="#id68">August</textPath></text><path d="M 89.4739219176387 118.17145234162733 l -23.205184345274247 40.059735269818084 a67.29538821941196,67.29538821941196 0 0,0 -0.9973565212142438,-0.589255812563422 l 23.891308737516873 -39.65436088496091" fill="red" stroke="none" /><path d="M 88.54995079064634 117.60387380957326 l -24.71224811390831 37.99383647999738 a66.32357904349726,66.32357904349726 0 0,0 -0.9516653540917033,-0.6307119039663222 l 25.362588166739975 -37.56282655493973" fill="red" stroke="none" /><path d="M 87.07902340077011 116.55440617244103 l -25.606727859643904 32.80744071318667 a62.61769669055607,62.61769669055607 0 0,0 -0.8439747557885229,-0.6705045889913918 l 26.167660108149782 -32.361802210190156" fill="red" stroke="none" /><path d="M 86.51685102203217 116.09983520530335 l -26.007747272206878 31.05509297775462 a61.507057632367825,61.507057632367825 0 0,0 -0.8058435708966207,-0.6867573735210244 l 26.538456319680556 -30.602811214010643" fill="red" stroke="none" /><path d="M 85.18274418774928 114.88116024355367 l -31.22946032542109 31.364147944186744 a65.26046733239363,65.26046733239363 0 0,0 -0.7892146424913561,-0.7994702661201217 l 31.76471559296798 -30.821937184085957" fill="red" stroke="none" /><path d="M 84.67929136418377 114.36230785411682 l -30.11887498666032 28.234761528380705 a62.28375454130353,62.28375454130353 0 0,0 -0.7265061618287918,-0.7884789519555537 l 30.60042755648484 -27.712131321623808" fill="red" stroke="none" /><path d="M 84.19399662182784 113.82643327865904 l -38.8345510726253 33.970847434705746 a72.59593813900855,72.59593813900855 0 0,0 -0.8146560284377974,-0.9476290072264343 l 39.41354961063388 -33.297341328317785" fill="red" stroke="none" /><path d="M 83.72743513129214 113.27417163493432 l -38.785891448195684 31.63917822735731 a71.05380079807826,71.05380079807826 0 0,0 -0.7649519828984533,-0.9543952154101295 l 39.32476134314899 -30.96685517836892" fill="red" stroke="none" /><path d="M 82.85270091963577 112.12312394758628 l -40.83611012452269 28.871090558149636 a71.01127632963411,71.01127632963411 0 0,0 -0.6970571468499911,-1.0041628090160675 l 41.32702817853481 -28.163886486946556" fill="red" stroke="none" /><path d="M 82.44556493220864 111.52570212397912 l -43.42205617729512 28.50958650491953 a72.94488892418255,72.94488892418255 0 0,0 -0.6801073568026929,-1.0555417209613458 l 43.90636839747486 -27.757923184036734" fill="red" stroke="none" /><line stroke="#e1ed5e" stroke-width="0.3" x1="26.63291911575756" x2="22.317208475507996" y1="142.92168965132927" y2="145.44649492493687" /><path d="M 25.769776987707644 143.4266507060508 a86.0,86.0 0 0,1 -11.730757126820373,-40.83630448921669" fill="none" id="id69" stroke="none" /><text fill="#e1ed5e" style="font-size:6.75px; font-family:Arial;" text-anchor="middle"><textPath startOffset="21.46611528233685" xlink:href="#id69">September</textPath></text><path d="M 81.18737489456691 109.33194174019688 l -44.78862099012818 22.21725034976257 a70.99626769371265,70.99626769371265 0 0,0 -0.53364426895058,-1.0994652542495436 l 45.16441851569348 -21.44299613954774" fill="red" stroke="none" /><path d="M 80.73074385275274 108.34839909993369 l -45.9285480343552 19.89852883480651 a71.05380079807826,71.05380079807826 0 0,0 -0.47656467261745833,-1.1264581111391652 l 46.26426368816497 -19.104996198001185" fill="red" stroke="none" /><path d="M 80.45479744820244 107.68017299344265 l -47.675844178877995 18.73394404237184 a72.22447439995236,72.22447439995236 0 0,0 -0.44471608063171425,-1.1610133550136104 l 47.99125453910322 -17.91050712052507" fill="red" stroke="none" /><path d="M 79.58551787078972 104.9243191809786 l -48.61565590934108 11.726920397734572 a71.01002560997398,71.01002560997398 0 0,0 -0.2763961574579075,-1.1907074123691554 l 48.81031263272954 -10.888344328016842" fill="red" stroke="none" /><path d="M 79.29508885075956 103.50808413554451 l -54.184379656804 9.180593014779879 a75.95662186575609,75.95662186575609 0 0,0 -0.2073190623803791,-1.2909759993441405 l 54.33438047354567 -8.246537785742523" fill="red" stroke="none" /><path d="M 79.0235259727143 100.99374915477108 l -51.0733895322388 2.4195743103887044 a72.13067042544321,72.13067042544321 0 0,0 -0.048079787712817575,-1.2407256831335562 l 51.10747145280282 -1.5400713802411512" fill="red" stroke="none" /><line stroke="#e1ed5e" stroke-width="0.3" x1="15.007084014347285" x2="10.007500721073583" y1="101.09737516637583" y2="101.16192664675087" /><path d="M 14.007167355692545 101.11028546245083 a86.0,86.0 0 0,1 10.666146001902534,-42.60595125391555" fill="none" id="id70" stroke="none" /><text fill="#e1ed5e" style="font-size:6.75px; font-family:Arial;" text-anchor="middle"><textPath startOffset="22.20632615414155" xlink:href="#id70">October</textPath></text><path d="M 79.01574976396665 99.18683210126434 l -62.85026861407643 -2.43553237733124 a83.89744098787,83.89744098787 0 0,0 0.06834202351168663,-1.4425921011176845 l 62.79903298233124 3.5170355850719335" fill="red" stroke="none" /><path d="M 79.05617556472873 98.46500227214037 l -62.32379210759523 -4.567784626557663 a83.49095709833037,83.49095709833037 0 0,0 0.11738636213011563,-1.4324109467395656 l 62.23593126164562 5.639909490505007" fill="red" stroke="none" /><path d="M 79.12142395522702 97.74499172005258 l -62.501431442998445 -6.750520012010724 a83.86492227670684,83.86492227670684 0 0,0 0.1673690137142017,-1.4339154989690657 l 62.375972076280654 7.8253792493046515" fill="red" stroke="none" /><path d="M 79.21141760316559 97.0276538004421 l -62.36574719050324 -8.91703859867371 a84.0,84.0 0 0,0 0.21697642624279112,-1.4296035504316318 l 62.20301487082115 9.989241261497433" fill="red" stroke="none" /><path d="M 79.32604984820605 96.31383870115002 l -61.63645331828836 -10.989767661819249 a83.60852474638185,83.60852474638185 0 0,0 0.26481716659380994,-1.414663893019165 l 61.43815042778469 12.049109632300986" fill="red" stroke="none" /><line stroke="#e1ed5e" stroke-width="0.3" x1="26.266209847984243" x2="21.928928074336255" y1="57.711370442889674" y2="55.22380399835377" /><path d="M 25.398753493254645 57.213857153982495 a86.0,86.0 0 0,1 29.58750427330803,-30.492523968695096" fill="none" id="id71" stroke="none" /><text fill="#e1ed5e" style="font-size:6.75px; font-family:Arial;" text-anchor="middle"><textPath startOffset="21.46611528233685" xlink:href="#id71">November</textPath></text><line stroke="#e1ed5e" stroke-width="0.3" x1="56.762969772571076" x2="54.21961505331055" y1="26.818313649435495" y2="22.513508569990535" /><path d="M 56.25429882871897 25.957352633546506 a86.0,86.0 0 0,1 42.265352541879196,-11.944610805530505" fill="none" id="id72" stroke="none" /><text fill="#e1ed5e" style="font-size:6.75px; font-family:Arial;" text-anchor="middle"><textPath startOffset="22.20632615414155" xlink:href="#id72">December</textPath></text></svg>