<?xml version="1.0" encoding="utf-8" ?>
<svg baseProfile="full" height="200mm" version="1.1" viewBox="0,0,200,200" width="200mm" xmlns="http://www.w3.org/2000/svg" xmlns:ev="http://www.w3.org/2001/xml-events" xmlns:xlink="http://www.w3.org/1999/xlink"><defs /><rect fill="#1a1a1a" height="200" width="200" x="0" y="0" /><rect fill="#1a1a1a" height="200" width="180" x="10" y="0" /><text alignment-baseline="middle" fill="#e1ed5e" style="dominant-baseline: central; font-size:9.0px; font-family:Arial;" text-anchor="middle" x="100.0" y="100.0">2026</text><line stroke="#e1ed5e" stroke-width="0.3" x1="100.0" x2="100.0" y1="15.0" y2="10.0" /><path d="M 100.0 14.0 a86.0,86.0 0 0,1 42.46469731375804,11.215312516191453" fill="none" id="id145" stroke="none" /><text fill="#e1ed5e" style="font-size:6.75px; font-family:Arial;" text-anchor="middle"><textPath startOffset="22.20632615414155" xlink:href="#id145">January</textPath></text><line stroke="#e1ed5e" stroke-width="0.3" x1="143.23703022742887" x2="145.7803849466894" y1="26.81831364943548" y2="22.513508569990506" /><path d="M 143.74570117128098 25.957352633546492 a86.0,86.0 0 0,1 28.547481713284135,27.462654790039103" fill="none" id="id146" stroke="none" /><text fill="#e1ed5e" style="font-size:6.75px; font-family:Arial;" text-anchor="middle"><textPath startOffset="19.985693538727396" xlink:href="#id146">February</textPath></text><path d="M 114.68862486808459 84.99185889309783 l 4.576014608287699 -4.675554966186778 a27.5422262217915,27.5422262217915 0 0,0 0.33596820674837174,0.3345254524982497 l -4.655818615203394 4.596093663038409" fill="red" stroke="none" /><path d="M 115.4437574822437 85.77008943001954 l 25.602653273504608 -23.59033848175002 a55.81378928423093,55.81378928423093 0 0,0 0.6449319481492951,0.7121499652683042 l -26.00492886226994 23.146135729212165" fill="red" stroke="none" /><path d="M 116.15771136456269 86.58626213691792 l 32.6889985006721 -27.13760921960657 a63.48553232728782,63.48553232728782 0 0,0 0.6907876127674838,0.8468239336061898 l -33.151284605516 26.570901116392278" fill="red" stroke="none" /><path d="M 117.04232023915458 87.72973835380427 l 27.668785479551463 -19.92118634683041 a55.09421293091513,55.09421293091513 0 0,0 0.547498426691415,0.7743976972515997 l -28.00759652604676 19.44196214924702" fill="red" stroke="none" /><path d="M 117.45458315368197 88.32363383020206 l 38.34460635510558 -25.65089412315917 a67.13325488024365,67.13325488024365 0 0,0 0.6342601736959214,0.9660217586282045 l -38.78046316415943 24.987054300553293" fill="red" stroke="none" /><line stroke="#e1ed5e" stroke-width="0.3" x1="172.23445277983987" x2="176.4835382374775" y1="55.19839476539836" y2="52.563006222186495" /><path d="M 173.08426987136738 54.67131705675599 a86.0,86.0 0 0,1 12.851231095245387,41.99856678651699" fill="none" id="id147" stroke="none" /><text fill="#e1ed5e" style="font-size:6.75px; font-family:Arial;" text-anchor="middle"><textPath startOffset="22.20632615414155" xlink:href="#id147">March</textPath></text><path d="M 117.84615892207809 88.93136811851018 l 13.46165335197358 -8.349252414472423 a36.8406479302229,36.8406479302229 0 0,0 0.32960836795181936,0.5417894922278411 l -13.603377518211621 8.1162951490375" fill="red" stroke="none" /><path d="M 118.3937258080291 89.86733742301442 l 32.89959837521235 -18.12360001087185 a58.56126263325488,58.56126263325488 0 0,0 0.47878545207953427,0.8871167277952701 l -33.206691926510345 17.554602299744122" fill="red" stroke="none" /><path d="M 118.73160827565052 90.50648371742162 l 29.461688188778545 -14.931713946634048 a54.02948913193964,54.02948913193964 0 0,0 0.4132998302042267,0.833187237794231 l -29.71434803193618 14.422367120340867" fill="red" stroke="none" /><path d="M 118.89224826269711 90.83032412892265 l 43.05822908566215 -20.899048054418788 a68.8621071576907,68.8621071576907 0 0,0 0.5084050223614712,1.0708306365389395 l -43.411592301865376 20.154775002239308" fill="red" stroke="none" /><path d="M 119.34039704204932 91.81776055985345 l 47.739158087041055 -20.196753008219968 a72.83566385158522,72.83566385158522 0 0,0 0.47855914441741426,1.1588689271776065 l -48.07973891834466 19.372009510589056" fill="red" stroke="none" /><path d="M 119.47837535516314 92.15188598940014 l 32.25310146376876 -12.995232552390775 a55.77267063547002,55.77267063547002 0 0,0 0.3511193713491723,0.8935605016630264 l -32.47201438499963 12.438123045831965" fill="red" stroke="none" /><path d="M 119.85752413597 93.16781622104841 l 59.57257240790998 -20.496551336854747 a84.0,84.0 0 0,0 0.45865082491291975,1.371307588310744 l -59.91656052659467 19.46807064562169" fill="red" stroke="none" /><path d="M 120.08093135843002 93.85539295169968 l 33.08105172174977 -10.122541626502684 a55.595112834002485,55.595112834002485 0 0,0 0.27213570232118917,0.9175063023226718 l -33.25039332118266 9.551605937433482" fill="red" stroke="none" /><path d="M 120.6074358757038 95.95851677861258 l 56.57741950056137 -11.095834193059574 a78.65519867091234,78.65519867091234 0 0,0 0.24912826668199678,1.3308531623482214 l -56.76003349115323 10.12030295324879" fill="red" stroke="none" /><line stroke="#e1ed5e" stroke-width="0.3" x1="184.98032266829074" x2="189.97916517819016" y1="98.17113171792111" y2="98.06355123074" /><path d="M 185.9800911702706 98.14961562048488 a86.0,86.0 0 0,1 -9.607161424134198,41.387399972396054" fill="none" id="id148" stroke="none" /><text fill="#e1ed5e" style="font-size:6.75px; font-family:Arial;" text-anchor="middle"><textPath startOffset="21.466115282336823" xlink:href="#id148">April</textPath></text><line stroke="#e1ed5e" stroke-width="0.3" x1="174.80103733775053" x2="179.2010983576182" y1="140.37084112569926" y2="142.7455964860345" /><path d="M 175.68104954172406 140.8457921977663 a86.0,86.0 0 0,1 -30.038265399797805,32.042727171017184" fill="none" id="id149" stroke="none" /><text fill="#e1ed5e" style="font-size:6.75px; font-family:Arial;" text-anchor="middle"><textPath startOffset="22.206326154141568" xlink:href="#id149">May</textPath></text><line stroke="#e1ed5e" stroke-width="0.3" x1="143.8653032363475" x2="146.44561519142675" y1="172.8068346515853" y2="177.08958963109032" /><path d="M 144.38136562736335 173.6633856474863 a86.0,86.0 0 0,1 -40.68145358897372,12.25698825130547" fill="none" id="id150" stroke="none" /><text fill="#e1ed5e" style="font-size:6.75px; font-family:Arial;" text-anchor="middle"><textPath startOffset="21.466115282336833" xlink:href="#id150">June</textPath></text><line stroke="#e1ed5e" stroke-width="0.3" x1="102.19456741930631" x2="102.32365962044197" y1="184.97166512339345" y2="189.96999836594603" /><path d="M 102.22038585953345 185.97133177190398 a86.0,86.0 0 0,1 -42.740103519485714,-10.115201625700543" fill="none" id="id151" stroke="none" /><text fill="#e1ed5e" style="font-size:6.75px; font-family:Arial;" text-anchor="middle"><textPath startOffset="22.20632615414155" xlink:href="#id151">July</textPath></text><line stroke="#e1ed5e" stroke-width="0.3" x1="58.666819895761336" x2="56.23545636021788" y1="174.27360380694188" y2="178.64263932499728" /><path d="M 58.180547188652646 175.14741091055294 a86.0,86.0 0 0,1 -31.652253787137756,-30.449443065178592" fill="none" id="id152" stroke="none" /><text fill="#e1ed5e" style="font-size:6.75px; font-family:Arial;" text-anchor="middle"><textPath startOffset="22.20632615414155" xlink:href="#id152">August</textPath></text><line stroke="#e1ed5e" stroke-width="0.3" x1="26.63291911575756" x2="22.317208475507996" y1="142.92168965132927" y2="145.44649492493687" /><path d="M 25.769776987707644 143.4266507060508 a86.0,86.0 0 0,1 -11.730757126820373,-40.83630448921669" fill="none" id="id153" stroke="none" /><text fill="#e1ed5e" style="font-size:6.75px; font-family:Arial;" text-anchor="middle"><textPath startOffset="21.46611528233685" xlink:href="#id153">September</textPath></text><line stroke="#e1ed5e" stroke-width="0.3" x1="15.007084014347285" x2="10.007500721073583" y1="101.09737516637583" y2="101.16192664675087" /><path d="M 14.007167355692545 101.11028546245083 a86.0,86.0 0 0,1 10.666146001902534,-42.60595125391555" fill="none" id="id154" stroke="none" /><text fill="#e1ed5e" style="font-size:6.75px; font-family:Arial;" text-anchor="middle"><textPath startOffset="22.20632615414155" xlink:href="#id154">October</textPath></text><line stroke="#e1ed5e" stroke-width="0.3" x1="26.266209847984243" x2="21.928928074336255" y1="57.711370442889674" y2="55.22380399835377" /><path d="M 25.398753493254645 57.213857153982495 a86.0,86.0 0 0,1 29.58750427330803,-30.492523968695096" fill="none" id="id155" stroke="none" /><text fill="#e1ed5e" style="font-size:6.75px; font-family:Arial;" text-anchor="middle"><textPath startOffset="21.46611528233685" xlink:href="#id155">November</textPath></text><line stroke="#e1ed5e" stroke-width="0.3" x1="56.762969772571076" x2="54.21961505331055" y1="26.818313649435495" y2="22.513508569990535" /><path d="M 56.25429882871897 25.957352633546506 a86.0,86.0 0 0,1 42.265352541879196,-11.944610805530505" fill="none" id="id156" stroke="none" /><text fill="#e1ed5e" style="font-size:6.75px; font-family:Arial;" text-anchor="middle"><textPath startOffset="22.20632615414155" xlink:href="#id156">December</textPath></text></svg>