<?xml version="1.0" encoding="utf-8" ?>
<svg baseProfile="full" height="200mm" version="1.1" viewBox="0,0,200,200" width="200mm" xmlns="http://www.w3.org/2000/svg" xmlns:ev="http://www.w3.org/2001/xml-events" xmlns:xlink="http://www.w3.org/1999/xlink"><defs /><rect fill="#1a1a1a" height="200" width="200" x="0" y="0" /><rect fill="#1a1a1a" height="200" width="180" x="10" y="0" /><text alignment-baseline="middle" fill="#e1ed5e" style="dominant-baseline: central; font-size:9.0px; font-family:Arial;" text-anchor="middle" x="100.0" y="100.0">2016</text><line stroke="#e1ed5e" stroke-width="0.3" x1="100.0" x2="100.0" y1="15.0" y2="10.0" /><path d="M 100.0 14.0 a86.0,86.0 0 0,1 42.35913384403234,11.155469271406648" fill="none" id="id25" stroke="none" /><text fill="#e1ed5e" style="font-size:6.75px; font-family:Arial;" text-anchor="middle"><textPath startOffset="22.145653131862478" xlink:href="#id25">January</textPath></text><line stroke="#e1ed5e" stroke-width="0.3" x1="143.13028292997686" x2="145.6673583964461" y1="26.7553504044142" y2="22.446841604673864" /><path d="M 143.63769802327073 25.89364864446614 a86.0,86.0 0 0,1 29.32050498858742,28.57503671076993" fill="none" id="id26" stroke="none" /><text fill="#e1ed5e" style="font-size:6.75px; font-family:Arial;" text-anchor="middle"><textPath startOffset="20.669276256404974" xlink:href="#id26">February</textPath></text><line stroke="#e1ed5e" stroke-width="0.3" x1="172.87174338648825" x2="177.1583165268699" y1="56.24261187166439" y2="53.66864786411523" /><path d="M 173.72905801456457 55.72781907015455 a86.0,86.0 0 0,1 12.242430191666344,42.057860355516425" fill="none" id="id27" stroke="none" /><text fill="#e1ed5e" style="font-size:6.75px; font-family:Arial;" text-anchor="middle"><textPath startOffset="22.145653131862474" xlink:href="#id27">March</textPath></text><path d="M 120.99303781780057 99.45929381324524 l 36.82868650894127 -0.9485763241254666 a57.84090046424713,57.84090046424713 0 0,0 0.017045350900844913,0.9928062359744828 l -36.83954329144078 0.3162231721819174" fill="red" stroke="none" /><line stroke="#e1ed5e" stroke-width="0.3" x1="184.99686870605535" x2="189.99668451229388" y1="99.2704041080226" y2="99.22748670261217" /><path d="M 185.99683186730306 99.26182062694052 a86.0,86.0 0 0,1 -10.086455211305974,41.156179273409016" fill="none" id="id28" stroke="none" /><text fill="#e1ed5e" style="font-size:6.75px; font-family:Arial;" text-anchor="middle"><textPath startOffset="21.40746469413373" xlink:href="#id28">April</textPath></text><path d="M 120.7213421655516 103.40968896794604 l 18.456750973818718 3.037051349124406 a39.70495488919384,39.70495488919384 0 0,0 -0.11643985206255267,0.6715941240102579 l -18.401896304263932 -3.353438506055252" fill="red" stroke="none" /><line stroke="#e1ed5e" stroke-width="0.3" x1="174.33088141563837" x2="178.70328620479359" y1="141.23008692659167" y2="143.65538615756765" /><path d="M 175.20536237346943 141.71514677278685 a86.0,86.0 0 0,1 -30.301960400862466,31.631185727798858" fill="none" id="id29" stroke="none" /><text fill="#e1ed5e" style="font-size:6.75px; font-family:Arial;" text-anchor="middle"><textPath startOffset="22.145653131862474" xlink:href="#id29">May</textPath></text><path d="M 116.79662413953412 112.60449989151573 l 24.49338081114053 18.380289587490733 a51.62287950013139,51.62287950013139 0 0,0 -0.5379792905657509,0.7042321607178037 l -24.174249543220473 -18.798042661449415" fill="red" stroke="none" /><path d="M 116.1254893667686 113.45245675266167 l 28.173582666025272 23.503404688188542 a57.6900639434728,57.6900639434728 0 0,0 -0.6409240737921141,0.7550069473464498 l -27.765964028726046 -23.98357841798455" fill="red" stroke="none" /><path d="M 115.16444852881244 114.52719865689866 l 30.9235379047794 29.62404979405119 a63.823469298373674,63.823469298373674 0 0,0 -0.7647060605627167,0.7846557850643587 l -30.410445043065877 -30.150528271183287" fill="red" stroke="none" /><path d="M 114.65682725009322 115.03919595460226 l 29.939743970445015 30.720814861161745 a63.8970480889953,63.8970480889953 0 0,0 -0.7921028423596551,0.7588166048893542 l -29.407968642220048 -31.23024359635668" fill="red" stroke="none" /><path d="M 113.86319453409587 115.77377054828091 l 28.368364791017985 32.27799162328008 a63.97246634938246,63.97246634938246 0 0,0 -0.8310953119186542,0.7178803359969228 l -27.810089999336473 -32.76021609174172" fill="red" stroke="none" /><path d="M 113.31354834802062 116.24036423190432 l 27.15693308245697 33.127042705044474 a63.83573243014395,63.83573243014395 0 0,0 -0.8534206049319589,0.6874552288583244 l -26.58426170716976 -33.5883462276962" fill="red" stroke="none" /><path d="M 112.7482090630111 116.68781488649013 l 26.094577837670982 34.1586400367132 a63.98534263774125,63.98534263774125 0 0,0 -0.8785705858625329,0.6592957467047502 l -25.504354262897685 -34.60155481068197" fill="red" stroke="none" /><line stroke="#e1ed5e" stroke-width="0.3" x1="143.1302829299769" x2="145.66735839644613" y1="173.24464959558577" y2="177.55315839532614" /><path d="M 143.63769802327073 174.10635135553383 a86.0,86.0 0 0,1 -40.68552437913181,11.842963189579606" fill="none" id="id30" stroke="none" /><text fill="#e1ed5e" style="font-size:6.75px; font-family:Arial;" text-anchor="middle"><textPath startOffset="21.407464694133747" xlink:href="#id30">June</textPath></text><line stroke="#e1ed5e" stroke-width="0.3" x1="101.45913802915013" x2="101.54496967792366" y1="184.9874750549273" y2="189.98673829345242" /><path d="M 101.47630435890484 185.9873277026323 a86.0,86.0 0 0,1 -42.54439059252881,-10.42667462771756" fill="none" id="id31" stroke="none" /><text fill="#e1ed5e" style="font-size:6.75px; font-family:Arial;" text-anchor="middle"><textPath startOffset="22.145653131862474" xlink:href="#id31">July</textPath></text><line stroke="#e1ed5e" stroke-width="0.3" x1="58.13341422392154" x2="55.67067388415222" y1="173.97424548756322" y2="178.32567169271397" /><path d="M 57.64086615596768 174.84453072859336 a86.0,86.0 0 0,1 -31.369924170532247,-30.572349798747897" fill="none" id="id32" stroke="none" /><text fill="#e1ed5e" style="font-size:6.75px; font-family:Arial;" text-anchor="middle"><textPath startOffset="22.145653131862474" xlink:href="#id32">August</textPath></text><line stroke="#e1ed5e" stroke-width="0.3" x1="26.387840678322732" x2="22.057713659400548" y1="142.50000000000003" y2="145.00000000000006" /><path d="M 25.521815274538298 143.00000000000003 a86.0,86.0 0 0,1 -11.493303480769221,-40.785679425670985" fill="none" id="id33" stroke="none" /><text fill="#e1ed5e" style="font-size:6.75px; font-family:Arial;" text-anchor="middle"><textPath startOffset="21.40746469413373" xlink:href="#id33">September</textPath></text><path d="M 80.05021161711548 106.5578916946017 l -58.21314349057528 19.135816525303035 a82.27764314286547,82.27764314286547 0 0,0 -0.4295491805307455,-1.3455566900071014 l 58.53305738688328 -18.13369080160454" fill="red" stroke="none" /><path d="M 79.407916724674 104.11899336999214 l -61.776249825978 12.35698010997642 a84.0,84.0 0 0,0 -0.27069483087137236,-1.4163897398667418 l 61.97927094913153 -11.294687805076363" fill="red" stroke="none" /><path d="M 79.01933749520258 100.90099992219065 l -21.341479177264517 0.9164949426049762 a42.36114923063447,42.36114923063447 0 0,0 -0.0249634514715394,-0.7267836520791453 l 21.354067315732905 -0.550005025961711" fill="red" stroke="none" /><line stroke="#e1ed5e" stroke-width="0.3" x1="15.003131293944662" x2="10.003315487706104" y1="100.72959589197737" y2="100.7725132973878" /><path d="M 14.003168132696942 100.73817937305945 a86.0,86.0 0 0,1 10.791469493833604,-42.45332614584628" fill="none" id="id34" stroke="none" /><text fill="#e1ed5e" style="font-size:6.75px; font-family:Arial;" text-anchor="middle"><textPath startOffset="22.145653131862435" xlink:href="#id34">October</textPath></text><line stroke="#e1ed5e" stroke-width="0.3" x1="26.387840678322718" x2="22.05771365940052" y1="57.49999999999999" y2="54.99999999999999" /><path d="M 25.521815274538284 56.99999999999999 a86.0,86.0 0 0,1 29.574782752854787,-30.34633250058573" fill="none" id="id35" stroke="none" /><text fill="#e1ed5e" style="font-size:6.75px; font-family:Arial;" text-anchor="middle"><textPath startOffset="21.40746469413373" xlink:href="#id35">November</textPath></text><line stroke="#e1ed5e" stroke-width="0.3" x1="56.869717070023135" x2="54.33264160355391" y1="26.7553504044142" y2="22.446841604673864" /><path d="M 56.362301976729285 25.89364864446614 a86.0,86.0 0 0,1 42.16139366436587,-11.88097634709845" fill="none" id="id36" stroke="none" /><text fill="#e1ed5e" style="font-size:6.75px; font-family:Arial;" text-anchor="middle"><textPath startOffset="22.145653131862474" xlink:href="#id36">December</textPath></text></svg>