<?xml version="1.0" encoding="utf-8" ?>
<svg baseProfile="full" height="200mm" version="1.1" viewBox="0,0,200,200" width="200mm" xmlns="http://www.w3.org/2000/svg" xmlns:ev="http://www.w3.org/2001/xml-events" xmlns:xlink="http://www.w3.org/1999/xlink"><defs /><rect fill="#1a1a1a" height="200" width="200" x="0" y="0" /><rect fill="#1a1a1a" height="200" width="180" x="10" y="0" /><text alignment-baseline="middle" fill="#e1ed5e" style="dominant-baseline: central; font-size:9.0px; font-family:Arial;" text-anchor="middle" x="100.0" y="100.0">2026</text><line stroke="#e1ed5e" stroke-width="0.3" x1="100.0" x2="100.0" y1="15.0" y2="10.0" /><path d="M 100.0 14.0 a86.0,86.0 0 0,1 42.46469731375804,11.215312516191453" fill="none" id="id145" stroke="none" /><text fill="#e1ed5e" style="font-size:6.75px; font-family:Arial;" text-anchor="middle"><textPath startOffset="22.20632615414155" xlink:href="#id145">January</textPath></text><line stroke="#e1ed5e" stroke-width="0.3" x1="143.23703022742887" x2="145.7803849466894" y1="26.81831364943548" y2="22.513508569990506" /><path d="M 143.74570117128098 25.957352633546492 a86.0,86.0 0 0,1 28.547481713284135,27.462654790039103" fill="none" id="id146" stroke="none" /><text fill="#e1ed5e" style="font-size:6.75px; font-family:Arial;" text-anchor="middle"><textPath startOffset="19.985693538727396" xlink:href="#id146">February</textPath></text><path d="M 114.68862486808459 84.99185889309783 l 3.848459979933904 -3.932174110362837 a26.50205756525326,26.50205756525326 0 0,0 0.3232799223867932,0.3218916556620433 l -3.91557570248802 3.865346604050675" fill="red" stroke="none" /><path d="M 115.4437574822437 85.77008943001954 l 21.53200873195541 -19.839638054407594 a50.278637915089256,50.278637915089256 0 0,0 0.5809729157742911,0.6415248042491304 l -21.87032528834574 19.466060462888915" fill="red" stroke="none" /><path d="M 116.15771136456269 86.58626213691792 l 27.491674149403565 -22.822917314029503 a56.73062695027911,56.73062695027911 0 0,0 0.6172873239804522,0.7567212703252612 l -27.880459965460425 22.34631187409614" fill="red" stroke="none" /><path d="M 117.04232023915458 87.72973835380427 l 23.269640227672866 -16.753855695681484 a49.6734692180254,49.6734692180254 0 0,0 0.49362981696962793,0.6982043690355002 l -23.55458266444638 16.35082482631419" fill="red" stroke="none" /><path d="M 117.45458315368197 88.32363383020206 l 32.2480795268181 -21.572579620640376 a59.79838688214825,59.79838688214825 0 0,0 0.5649619598850828,0.8604758247171248 l -32.61463812206111 21.014285731945577" fill="red" stroke="none" /><line stroke="#e1ed5e" stroke-width="0.3" x1="172.23445277983987" x2="176.4835382374775" y1="55.19839476539836" y2="52.563006222186495" /><path d="M 173.08426987136738 54.67131705675599 a86.0,86.0 0 0,1 12.851231095245387,41.99856678651699" fill="none" id="id147" stroke="none" /><text fill="#e1ed5e" style="font-size:6.75px; font-family:Arial;" text-anchor="middle"><textPath startOffset="22.20632615414155" xlink:href="#id147">March</textPath></text><path d="M 117.84615892207809 88.93136811851018 l 11.32134370702959 -7.021779109111508 a34.32209462471474,34.32209462471474 0 0,0 0.30707520712901015,0.5047509005308529 l -11.440534712444824 6.825860435373573" fill="red" stroke="none" /><path d="M 118.3937258080291 89.86733742301442 l 27.668790102547455 -15.242073136709022 a52.58928203115124,52.58928203115124 0 0,0 0.4299597044125995,0.796650032714373 l -27.92705790617852 14.76354212066219" fill="red" stroke="none" /><path d="M 118.73160827565052 90.50648371742162 l 24.77748382412444 -12.557674849063599 a48.77802912860365,48.77802912860365 0 0,0 0.37312866511319864,0.7522046202484388 l -24.989972502191048 12.129310640316211" fill="red" stroke="none" /><path d="M 118.89224826269711 90.83032412892265 l 36.21226889068065 -17.57624416462299 a61.25236362184712,61.25236362184712 0 0,0 0.45222271844727074,0.9524963762217922 l -36.50944980296968 16.95030537276066" fill="red" stroke="none" /><path d="M 119.34039704204932 91.81776055985345 l 40.14896260186166 -16.985609166538193 a64.59415232303608,64.59415232303608 0 0,0 0.4244091511689777,1.0277404233875809 l -40.43539343991684 16.291994172697308" fill="red" stroke="none" /><path d="M 119.47837535516314 92.15188598940014 l 27.125081722260497 -10.929080584059607 a50.2440568466856,50.2440568466856 0 0,0 0.31631373310677846,0.8049839487685785 l -27.309189005248975 10.460547630395244" fill="red" stroke="none" /><path d="M 119.85752413597 93.16781622104841 l 50.100946006233194 -17.23774163738137 a73.98343635020859,73.98343635020859 0 0,0 0.40395909657042456,1.2077862818612617 l -50.39024239657539 16.372782252597794" fill="red" stroke="none" /><path d="M 120.08093135843002 93.85539295169968 l 27.82139362376646 -8.51312761857368 a50.09472950585166,50.09472950585166 0 0,0 0.24521156090409327,0.8267314821718911 l -27.963811081782257 8.032966749655259" fill="red" stroke="none" /><path d="M 120.6074358757038 95.95851677861258 l 47.58200166614356 -9.331673408260954 a69.48842141331612,69.48842141331612 0 0,0 0.22009390699777875,1.1757504519367192 l -47.7355812970512 8.511244878861673" fill="red" stroke="none" /><path d="M 120.78858239683441 97.02765380044208 l 26.08081944973083 -3.729028901199539 a47.34605852334347,47.34605852334347 0 0,0 0.1084089486973424,0.8077725878308062 l -26.141144397486006 3.2795379713040687" fill="red" stroke="none" /><path d="M 120.96714384426684 98.82574320788733 l 52.55213113576115 -2.9431618051800967 a73.63448193268086,73.63448193268086 0 0,0 0.059981918831617353,1.2661235045457355 l -52.595006662826265 2.0381271940113614" fill="red" stroke="none" /><line stroke="#e1ed5e" stroke-width="0.3" x1="184.98032266829074" x2="189.97916517819016" y1="98.17113171792111" y2="98.06355123074" /><path d="M 185.9800911702706 98.14961562048488 a86.0,86.0 0 0,1 -9.607161424134198,41.387399972396054" fill="none" id="id148" stroke="none" /><text fill="#e1ed5e" style="font-size:6.75px; font-family:Arial;" text-anchor="middle"><textPath startOffset="21.466115282336823" xlink:href="#id148">April</textPath></text><path d="M 120.99513854157772 99.54816195383933 l 31.932938147324094 -0.687231301288289 a52.94033227100646,52.94033227100646 0 0,0 0.011765340661645755,0.9112386001047827 l -31.940036495103456 0.13745644312304361" fill="red" stroke="none" /><path d="M 120.9904718944345 100.63252640178507 l 29.067388283144858 0.8759160162045733 a50.08058270514108,50.08058270514108 0 0,0 -0.03338196873528075,0.861440283613991 l -29.048004181558372 -1.3761335468325704" fill="red" stroke="none" /><path d="M 120.95626037817324 101.35467743843564 l 53.28300596057164 3.4443781821874 a74.39421752639738,74.39421752639738 0 0,0 -0.09360720202482205,1.277195900360431 l -53.21582219988248 -4.361047219044602" fill="red" stroke="none" /><path d="M 120.89721153311464 102.0752229133903 l 35.043209311576476 3.480008364124399 a56.215578613297495,56.215578613297495 0 0,0 -0.10391235150261419,0.9620993200473227 l -34.97811465857281 -4.082704006056513" fill="red" stroke="none" /><path d="M 120.81339534386255 102.79330883721812 l 36.69943235682149 4.925330395620763 a58.02846492657969,58.02846492657969 0 0,0 -0.14138483219134831,0.9888451870477403 l -36.60921347361354 -5.556321054648912" fill="red" stroke="none" /><path d="M 120.5718875245553 104.21870165774334 l 58.36542011737182 11.969066732945086 a80.58003712599552,80.58003712599552 0 0,0 -0.29034123660754835,1.3563775978557835 l -58.15074484203983 -12.971958150217038" fill="red" stroke="none" /><path d="M 120.32669344350535 105.2749913415812 l 25.306090262843476 6.567197335699647 a47.14433562432218,47.14433562432218 0 0,0 -0.21060480069078785,0.7837388102793273 l -25.18929738581091 -7.0018270791545225" fill="red" stroke="none" /><path d="M 120.13307415673323 105.97154293290107 l 51.328629518908514 15.224257978338958 a74.53882926699447,74.53882926699447 0 0,0 -0.37543869262782575,1.22695537024511 l -51.05896405377455 -16.105540321136125" fill="red" stroke="none" /><path d="M 119.67450827220406 107.3425965602758 l 49.60924924227411 18.514348506427986 a73.95147505971431,73.95147505971431 0 0,0 -0.45534994084377034,1.1887750084802895 l -49.283205021836835 -19.36554708174142" fill="red" stroke="none" /><path d="M 119.12269723197855 108.67885076344098 l 24.940304469936958 11.319176257593629 a48.38873013127167,48.38873013127167 0 0,0 -0.35076157070794417,0.7555092180906752 l -24.74176828238918 -11.746805542963136" fill="red" stroke="none" /><line stroke="#e1ed5e" stroke-width="0.3" x1="174.80103733775053" x2="179.2010983576182" y1="140.37084112569926" y2="142.7455964860345" /><path d="M 175.68104954172406 140.8457921977663 a86.0,86.0 0 0,1 -30.038265399797805,32.042727171017184" fill="none" id="id149" stroke="none" /><text fill="#e1ed5e" style="font-size:6.75px; font-family:Arial;" text-anchor="middle"><textPath startOffset="22.206326154141568" xlink:href="#id149">May</textPath></text><path d="M 118.48025628344425 109.97397251340804 l 47.51366366143687 25.64358243208104 a74.99205084531502,74.99205084531502 0 0,0 -0.6228753700492764,1.1306997230208353 l -47.06521188193609 -26.45765267349968" fill="red" stroke="none" /><path d="M 118.12598468904814 110.60418214915192 l 28.04300241348488 16.405900738809294 a53.48943772080985,53.48943772080985 0 0,0 -0.47177461019250544,0.7907213831075167 l -27.756446927594148 -16.886184215802913" fill="red" stroke="none" /><path d="M 117.55443506779139 111.5257021239791 l 21.570462195032675 14.162502010255722 a46.804288451686304,46.804288451686304 0 0,0 -0.4479769824880856,0.6696648065045325 l -21.32348210713387 -14.531703730966061" fill="red" stroke="none" /><path d="M 117.14729908036423 112.12312394758627 l 47.1716437402145 33.350306727247855 a78.77029454620455,78.77029454620455 0 0,0 -0.7922799032706784,1.1004074908844026 l -46.59058404456822 -34.15734782358339" fill="red" stroke="none" /><path d="M 116.71984013943494 112.70617746262583 l 26.13493598332638 19.861142918184218 a53.82529324879074,53.82529324879074 0 0,0 -0.5669422822795637,0.7328493244350784 l -25.789186883828748 -20.30807023673255" fill="red" stroke="none" /><path d="M 116.27256486870786 113.27417163493432 l 27.928665478983838 22.782511674948694 a57.04238052149382,57.04238052149382 0 0,0 -0.6272054208575023,0.7555093337850589 l -27.532364058232794 -23.259882265847523" fill="red" stroke="none" /><path d="M 115.56566222782051 114.09645910891815 l 38.95791163107701 35.28077381088193 a73.55903232889108,73.55903232889108 0 0,0 -0.8580261520628896,0.9312179258411305 l -38.3448390710184 -35.9461429915244" fill="red" stroke="none" /><path d="M 114.81725581225074 114.88116024355365 l 20.076627941804883 20.163215195703845 a49.45393182922042,49.45393182922042 0 0,0 -0.6084012211087296,0.5954486463377393 l -19.72657676832036 -20.505813944964157" fill="red" stroke="none" /><path d="M 114.55890576462653 115.13401014063108 l 26.493534353431397 27.540079182336406 a59.21470036394121,59.21470036394121 0 0,0 -0.7406466601377599,0.7003276459938893 l -26.01555185890283 -27.992041465076216" fill="red" stroke="none" /><path d="M 113.75828350139079 115.86535959552629 l 21.984565147549343 25.351493271808664 a54.556211285504226,54.556211285504226 0 0,0 -0.7147760567523391,0.6091476622997312 l -21.544923614219957 -25.72616532433134" fill="red" stroke="none" /><path d="M 112.34349029814194 116.9893568818739 l 23.164524537714257 31.883232770020765 a60.40984304619459,60.40984304619459 0 0,0 -0.8465221874968171,0.6039711042208877 l -22.612275022368557 -32.27724813608587" fill="red" stroke="none" /><path d="M 111.7513745106137 117.40417183066458 l 34.43838272110479 51.00437654394832 a82.54225078011166,82.54225078011166 0 0,0 -1.1843842182380275,0.7849452773507125 l -33.5553238041268 -51.58961984239035" fill="red" stroke="none" /><line stroke="#e1ed5e" stroke-width="0.3" x1="143.8653032363475" x2="146.44561519142675" y1="172.8068346515853" y2="177.08958963109032" /><path d="M 144.38136562736335 173.6633856474863 a86.0,86.0 0 0,1 -40.68145358897372,12.25698825130547" fill="none" id="id150" stroke="none" /><text fill="#e1ed5e" style="font-size:6.75px; font-family:Arial;" text-anchor="middle"><textPath startOffset="21.466115282336833" xlink:href="#id150">June</textPath></text><path d="M 110.21172684928248 118.3499491758327 l 13.680441855369313 24.583052059074596 a49.133271013113855,49.133271013113855 0 0,0 -0.7425609237065574,0.40490342183047834 l -13.255258119794107 -24.814896132664845" fill="red" stroke="none" /><path d="M 109.57404056367764 118.69057910512821 l 18.38834760755246 35.89799555220755 a61.333576737037504,61.333576737037504 0 0,0 -0.943795507162534,0.473238660164628 l -17.767698192707165 -36.20920205328147" fill="red" stroke="none" /><path d="M 108.2653958097858 119.30500536409082 l 15.53401564800644 36.28189893284815 a60.46747816020067,60.46747816020067 0 0,0 -0.9603633208876607,0.4014319460188137 l -14.907180867621319 -36.54391592188694" fill="red" stroke="none" /><path d="M 107.93186726928326 119.44442032107085 l 10.985353035881257 26.929828066112915 a50.084250394214195,50.084250394214195 0 0,0 -0.8010592442694475,0.3187580052734912 l -10.520172715569943 -27.114932915792476" fill="red" stroke="none" /><path d="M 107.2578585660854 119.70592522655815 l 19.395524690060547 52.66109222053116 a77.11931050772128,77.11931050772128 0 0,0 -1.2496282315952052,0.44807222420713877 l -18.48617689783561 -52.98715198577826" fill="red" stroke="none" /><path d="M 106.2309692047433 120.05430185196036 l 11.413414364855132 36.73394127193967 a59.46619904324047,59.46619904324047 0 0,0 -0.9801304601801446,0.2953052675195137 l -10.779408930234743 -36.92496190856491" fill="red" stroke="none" /><path d="M 104.83641907484287 120.43548508189849 l 6.44679162220341 27.239846668152165 a48.992326961589896,48.992326961589896 0 0,0 -0.8223241946817744,0.18715830945184864 l -5.976947278128773 -27.346781711181695" fill="red" stroke="none" /><path d="M 104.13013068566511 120.58985236759428 l 10.420302490331135 51.94811162907355 a73.98291239462671,73.98291239462671 0 0,0 -1.2507776127808066,0.2397145063652497 l -9.524557262978625 -52.119783333787275" fill="red" stroke="none" /><path d="M 102.70371172650421 120.8252237178851 l 6.770319995653874 52.14809965464094 a73.58575406356661,73.58575406356661 0 0,0 -1.2575194851190243,0.15226809696088794 l -5.871673087483469 -52.256913280327176" fill="red" stroke="none" /><path d="M 102.34483914955558 120.86867818915974 l 1.9598375572432951 17.442228091803564 a38.55198803717923,38.55198803717923 0 0,0 -0.6600970587724002,0.06842175911579604 l -1.6593079018652923 -17.47337921937512" fill="red" stroke="none" /><path d="M 101.26447882468166 120.96189622390904 l 2.5314037549147677 41.96434275971036 a63.04062402278125,63.04062402278125 0 0,0 -1.0837341641373266,0.056016677433165504 l -1.8086815223639612 -42.00169924390573" fill="red" stroke="none" /><line stroke="#e1ed5e" stroke-width="0.3" x1="102.19456741930631" x2="102.32365962044197" y1="184.97166512339345" y2="189.96999836594603" /><path d="M 102.22038585953345 185.97133177190398 a86.0,86.0 0 0,1 -42.740103519485714,-10.115201625700543" fill="none" id="id151" stroke="none" /><text fill="#e1ed5e" style="font-size:6.75px; font-family:Arial;" text-anchor="middle"><textPath startOffset="22.20632615414155" xlink:href="#id151">July</textPath></text><path d="M 99.81925306533755 120.99922214144158 l -0.25499512468961877 29.625394634448455 a50.62649202589505,50.62649202589505 0 0,0 -0.871354998927899,-0.015001166519408296 l 0.7649098135101857 -29.616615990649887" fill="red" stroke="none" /><path d="M 98.73552117531835 120.96189622390904 l -3.793436474044945 62.885688671727095 a84.0,84.0 0 0,0 -1.4425489568842798,-0.09948662193485935 l 4.875348191708155 -62.81107370527595" fill="red" stroke="none" /><path d="M 98.01472825383883 120.90594882070398 l -3.541479890505163 37.29363372224329 a58.461409423881726,58.461409423881726 0 0,0 -1.0009912945391641,-0.10375684048544823 l 4.18290378164992 -37.227147513302086" fill="red" stroke="none" /><path d="M 97.2962882734958 120.8252237178851 l -2.706225673461785 20.844587286601943 a42.01952607801782,42.01952607801782 0 0,0 -0.7164757571627396,-0.0992970114007835 l 3.0646300218113556 -20.794915709708555" fill="red" stroke="none" /><line stroke="#e1ed5e" stroke-width="0.3" x1="58.666819895761336" x2="56.23545636021788" y1="174.27360380694188" y2="178.64263932499728" /><path d="M 58.180547188652646 175.14741091055294 a86.0,86.0 0 0,1 -31.652253787137756,-30.449443065178592" fill="none" id="id152" stroke="none" /><text fill="#e1ed5e" style="font-size:6.75px; font-family:Arial;" text-anchor="middle"><textPath startOffset="22.20632615414155" xlink:href="#id152">August</textPath></text><line stroke="#e1ed5e" stroke-width="0.3" x1="26.63291911575756" x2="22.317208475507996" y1="142.92168965132927" y2="145.44649492493687" /><path d="M 25.769776987707644 143.4266507060508 a86.0,86.0 0 0,1 -11.730757126820373,-40.83630448921669" fill="none" id="id153" stroke="none" /><text fill="#e1ed5e" style="font-size:6.75px; font-family:Arial;" text-anchor="middle"><textPath startOffset="21.46611528233685" xlink:href="#id153">September</textPath></text><line stroke="#e1ed5e" stroke-width="0.3" x1="15.007084014347285" x2="10.007500721073583" y1="101.09737516637583" y2="101.16192664675087" /><path d="M 14.007167355692545 101.11028546245083 a86.0,86.0 0 0,1 10.666146001902534,-42.60595125391555" fill="none" id="id154" stroke="none" /><text fill="#e1ed5e" style="font-size:6.75px; font-family:Arial;" text-anchor="middle"><textPath startOffset="22.20632615414155" xlink:href="#id154">October</textPath></text><line stroke="#e1ed5e" stroke-width="0.3" x1="26.266209847984243" x2="21.928928074336255" y1="57.711370442889674" y2="55.22380399835377" /><path d="M 25.398753493254645 57.213857153982495 a86.0,86.0 0 0,1 29.58750427330803,-30.492523968695096" fill="none" id="id155" stroke="none" /><text fill="#e1ed5e" style="font-size:6.75px; font-family:Arial;" text-anchor="middle"><textPath startOffset="21.46611528233685" xlink:href="#id155">November</textPath></text><line stroke="#e1ed5e" stroke-width="0.3" x1="56.762969772571076" x2="54.21961505331055" y1="26.818313649435495" y2="22.513508569990535" /><path d="M 56.25429882871897 25.957352633546506 a86.0,86.0 0 0,1 42.265352541879196,-11.944610805530505" fill="none" id="id156" stroke="none" /><text fill="#e1ed5e" style="font-size:6.75px; font-family:Arial;" text-anchor="middle"><textPath startOffset="22.20632615414155" xlink:href="#id156">December</textPath></text></svg>