<?xml version="1.0" encoding="utf-8" ?>
<svg baseProfile="full" height="200mm" version="1.1" viewBox="0,0,200,200" width="200mm" xmlns="http://www.w3.org/2000/svg" xmlns:ev="http://www.w3.org/2001/xml-events" xmlns:xlink="http://www.w3.org/1999/xlink"><defs /><rect fill="#1a1a1a" height="200" width="200" x="0" y="0" /><rect fill="#1a1a1a" height="200" width="180" x="10" y="0" /><text alignment-baseline="middle" fill="#e1ed5e" style="dominant-baseline: central; font-size:9.0px; font-family:Arial;" text-anchor="middle" x="100.0" y="100.0">2024</text><line stroke="#e1ed5e" stroke-width="0.3" x1="100.0" x2="100.0" y1="15.0" y2="10.0" /><path d="M 100.0 14.0 a86.0,86.0 0 0,1 42.35913384403234,11.155469271406648" fill="none" id="id121" stroke="none" /><text fill="#e1ed5e" style="font-size:6.75px; font-family:Arial;" text-anchor="middle"><textPath startOffset="22.145653131862478" xlink:href="#id121">January</textPath></text><path d="M 100.36049292484886 79.00309439819443 l 0.4025701890391168 -23.447695293602123 a44.45115087450324,44.45115087450324 0 0,0 0.76283823568589,0.019648006977758523 l -0.8050217387957481 23.43732956927432" fill="red" stroke="none" /><path d="M 101.44090949804482 79.04949213459386 l 1.8563725602294494 -26.99124960796226 a48.05501200298561,48.05501200298561 0 0,0 0.8224981557295876,0.06366655909535997 l -2.3194397107342706 26.955405281871844" fill="red" stroke="none" /><path d="M 102.87502721639298 79.19773525538626 l 2.390394519449611 -17.29570396903946 a38.46010772427427,38.46010772427427 0 0,0 0.6532264219463191,0.09600178893884855 l -2.686946047003612 17.25212110680173" fill="red" stroke="none" /><path d="M 103.23170211078529 79.25015418208739 l 6.678738027060172 -42.88228913711763 a64.39926569970345,64.39926569970345 0 0,0 1.0908698855355838,0.17950222454020448 l -7.413885415648827 42.76132091408176" fill="red" stroke="none" /><path d="M 104.9986988182912 79.60360301121754 l 6.43263190812398 -26.247333326166952 a48.02408666357346,48.02408666357346 0 0,0 0.7990172227589284,0.20310705349277575 l -6.882254424108304 26.13304104083891" fill="red" stroke="none" /><path d="M 105.69591212413111 79.78721728523813 l 7.31422174782768 -25.9555926591791 a47.96647233261383,47.96647233261383 0 0,0 0.7906244828242411,0.23013926426546433 l -7.758706243033526 25.82620970061112" fill="red" stroke="none" /><path d="M 108.07796709384702 80.6158196554323 l 10.313092402176608 -24.74766741576034 a47.81057473119364,47.81057473119364 0 0,0 0.7548718865146076,0.3222099208960735 l -10.736399363861645 24.566982845204866" fill="red" stroke="none" /><path d="M 109.3889696526874 81.21577127319529 l 12.127190270970294 -24.26250422464449 a48.12448810796636,48.12448810796636 0 0,0 0.7357839571636473,0.37569653119601665 l -12.54190144984752 24.05074974177564" fill="red" stroke="none" /><line stroke="#e1ed5e" stroke-width="0.3" x1="143.13028292997686" x2="145.6673583964461" y1="26.7553504044142" y2="22.446841604673864" /><path d="M 143.63769802327073 25.89364864446614 a86.0,86.0 0 0,1 29.32050498858742,28.57503671076993" fill="none" id="id122" stroke="none" /><text fill="#e1ed5e" style="font-size:6.75px; font-family:Arial;" text-anchor="middle"><textPath startOffset="20.669276256404974" xlink:href="#id122">February</textPath></text><line stroke="#e1ed5e" stroke-width="0.3" x1="172.87174338648825" x2="177.1583165268699" y1="56.24261187166439" y2="53.66864786411523" /><path d="M 173.72905801456457 55.72781907015455 a86.0,86.0 0 0,1 12.242430191666344,42.057860355516425" fill="none" id="id123" stroke="none" /><text fill="#e1ed5e" style="font-size:6.75px; font-family:Arial;" text-anchor="middle"><textPath startOffset="22.145653131862474" xlink:href="#id123">March</textPath></text><path d="M 118.18653347947321 89.5 l 15.639296144176718 -9.029351838776707 a39.05870367755341,39.05870367755341 0 0,0 0.3302629799357317,0.5835430403589077 l -15.791992489133825 8.759552028318682" fill="red" stroke="none" /><path d="M 119.16976305983485 91.42560881287824 l 20.225490262298976 -9.04660453647607 a43.156522967057356,43.156522967057356 0 0,0 0.29668284220950153,0.6788684034575594 l -20.37780698652545 8.698074063242661" fill="red" stroke="none" /><path d="M 119.58574465831526 92.42381321644754 l 20.543478919309727 -7.946658970180343 a43.02689072239818,43.02689072239818 0 0,0 0.26055715575038885,0.6911588116802199 l -20.67686675887456 7.592831878305966" fill="red" stroke="none" /><path d="M 120.26092885502905 94.47779374421319 l 32.14380361249329 -8.76093661173061 a54.3163341469811,54.3163341469811 0 0,0 0.23746718280086154,0.9017015721256709 l -32.289460276098886 8.20785453523214" fill="red" stroke="none" /><path d="M 120.7213421655516 96.59031103205396 l 20.308344928062652 -3.341730429681117 a41.58144883096972,41.58144883096972 0 0,0 0.10985127313672748,0.7053239755240224 l -20.362717693337647 2.9926182722256534" fill="red" stroke="none" /><path d="M 120.9064616781168 98.02013634271609 l 23.285962934656617 -2.2052049002363643 a44.390147465251864,44.390147465251864 0 0,0 0.0653304117173333,0.7592384130194798 l -23.32038696907169 1.8051454398412226" fill="red" stroke="none" /><path d="M 120.96210409425399 98.7389718711861 l 23.28281635080048 -1.4006364153308413 a44.324907708135804,44.324907708135804 0 0,0 0.03917142069271956,0.759915096709622 l -23.303429360949774 1.0007495252444887" fill="red" stroke="none" /><line stroke="#e1ed5e" stroke-width="0.3" x1="184.99686870605535" x2="189.99668451229388" y1="99.2704041080226" y2="99.22748670261217" /><path d="M 185.99683186730306 99.26182062694052 a86.0,86.0 0 0,1 -10.086455211305974,41.156179273409016" fill="none" id="id124" stroke="none" /><text fill="#e1ed5e" style="font-size:6.75px; font-family:Arial;" text-anchor="middle"><textPath startOffset="21.40746469413373" xlink:href="#id124">April</textPath></text><path d="M 120.99922638620191 99.81974689727618 l 23.50281574172133 -0.20174340627021264 a44.50368158802526,44.50368158802526 0 0,0 0.0,0.7639930179880762 l -23.50281574172133 -0.20174340627020979" fill="red" stroke="none" /><path d="M 120.99303781780057 100.54070618675476 l 27.007927897206308 0.6956284189162558 a48.016884872203505,48.016884872203505 0 0,0 -0.02829637998713991,0.823818229266726 l -26.992006830222323 -1.1591529127470925" fill="red" stroke="none" /><path d="M 120.82617615685814 102.69636545807757 l 23.32845985479134 3.020336180239926 a44.52316878820278,44.52316878820278 0 0,0 -0.10464107238265352,0.757130672868965 l -23.273174265853477 -3.420355161308976" fill="red" stroke="none" /><path d="M 120.7213421655516 103.40968896794604 l 26.707294028751853 4.394675069113802 a48.066450142220255,48.066450142220255 0 0,0 -0.14096100497662162,0.8130256177758013 l -26.627918206282995 -4.852493719810191" fill="red" stroke="none" /><path d="M 120.592083275326 104.11899336999214 l 22.918771428179507 4.584396163264934 a44.37277843900668,44.37277843900668 0 0,0 -0.1558166790083636,0.7456392153277601 l -22.83669703834678 -4.977151829878103" fill="red" stroke="none" /><path d="M 120.43855184770803 104.8234425847677 l 22.95487150893258 5.417287173233491 a44.58544310181356,44.58544310181356 0 0,0 -0.1821898644730274,0.7433968194936668 l -22.858494117943255 -5.810539817335258" fill="red" stroke="none" /><path d="M 120.16314734710363 105.8691983318838 l 22.7614847874074 6.625536492180617 a44.706179015956906,44.706179015956906 0 0,0 -0.22081378124340764,0.735017261969114 l -22.64439468616036 -7.015291357740454" fill="red" stroke="none" /><path d="M 119.94978838288452 106.5578916946017 l 25.517667228927724 8.388164063422462 a47.860987270783326,47.860987270783326 0 0,0 -0.2632686556054734,0.7783070005231442 l -25.369913151749884 -8.824972738419765" fill="red" stroke="none" /><path d="M 119.71291397450082 107.23885506374661 l 51.98186970387627 19.088462579183428 a76.37584474793731,76.37584474793731 0 0,0 -0.4625078071280778,1.2268569076402671 l -51.64653121293375 -19.977987767017854" fill="red" stroke="none" /><path d="M 119.4528033332814 107.91128576633889 l 23.954680637338292 9.742160074128515 a46.85993827035969,46.85993827035969 0 0,0 -0.3094410649864072,0.7425459079030582 l -23.7839137278154 -10.151938491472851" fill="red" stroke="none" /><path d="M 119.16976305983485 108.57439118712176 l 25.70908430293681 11.499346402353028 a49.1636642391721,49.1636642391721 0 0,0 -0.3512054000250355,0.7674471815380147 l -25.507894438056717 -11.938982566105732" fill="red" stroke="none" /><path d="M 118.8641267826498 109.22738970284198 l 24.488620818428082 11.97861158273151 a48.261322143995486,48.261322143995486 0 0,0 -0.3704173376993208,0.7410828081360827 l -24.279383567517026 -12.39722624703134" fill="red" stroke="none" /><line stroke="#e1ed5e" stroke-width="0.3" x1="174.33088141563837" x2="178.70328620479359" y1="141.23008692659167" y2="143.65538615756765" /><path d="M 175.20536237346943 141.71514677278685 a86.0,86.0 0 0,1 -30.301960400862466,31.631185727798858" fill="none" id="id125" stroke="none" /><text fill="#e1ed5e" style="font-size:6.75px; font-family:Arial;" text-anchor="middle"><textPath startOffset="22.145653131862474" xlink:href="#id125">May</textPath></text><path d="M 118.18653347947321 110.5 l 22.114334561380783 12.767717011962633 a46.535434023925276,46.535434023925276 0 0,0 -0.40535972826179684,0.6883894386897617 l -21.89190112298922 -13.145457618945944" fill="red" stroke="none" /><path d="M 117.21940702142032 112.02048342749411 l 19.23727100212336 13.429109201239108 a44.460894474591996,44.460894474591996 0 0,0 -0.4422480743616651,0.6220773008333671 l -19.003907829231736 -13.757363728781979" fill="red" stroke="none" /><path d="M 116.79662413953412 112.60449989151573 l 21.219160264873505 15.92325344871779 a47.52928123297896,47.52928123297896 0 0,0 -0.49531853407660065,0.6483878610448248 l -20.9426897534426 -16.285162223003493" fill="red" stroke="none" /><path d="M 116.35404254752997 113.17365903436017 l 18.32460388654667 14.76100376035386 a44.53037057957273,44.53037057957273 0 0,0 -0.4846456112592375,0.5911888434621638 l -18.068511456048803 -15.073394885514517" fill="red" stroke="none" /><path d="M 115.6541949942343 113.99807769240083 l 20.18140928156647 18.046340624321875 a48.073228298803734,48.073228298803734 0 0,0 -0.5553655101544281,0.6104439813775498 l -19.86864607057016 -18.390122181257095" fill="red" stroke="none" /><path d="M 115.16444852881244 114.52719865689866 l 19.82045519820635 18.987547723046156 a48.44772145004136,48.44772145004136 0 0,0 -0.580480293857122,0.5956239190201816 l -19.49158810319842 -19.324994334134075" fill="red" stroke="none" /><path d="M 114.39649973595853 115.28858382429668 l 18.689224566952515 19.847308835027334 a48.26174577878195,48.26174577878195 0 0,0 -0.6080295770228341,0.5627830991378209 l -18.345765218615714 -20.165209680297533" fill="red" stroke="none" /><path d="M 113.59037401385872 116.0094264158162 l 15.795441052923215 18.606989843271958 a45.407294587561275,45.407294587561275 0 0,0 -0.5985668837194585,0.49934578316770273 l -15.473699835041861 -18.87539781035153" fill="red" stroke="none" /><path d="M 113.03279911837588 116.46651593811092 l 14.901575946227151 18.827654411978553 a45.01119606221379,45.01119606221379 0 0,0 -0.6099875609228529,0.47433001685039083 l -14.576178440669068 -19.080685480449738" fill="red" stroke="none" /><path d="M 112.45986205192187 116.90419585922612 l 14.636586454690494 19.85734056360767 a45.66867725081197,45.66867725081197 0 0,0 -0.6350533803971176,0.4597296734873121 l -14.293552063919408 -20.10567100846806" fill="red" stroke="none" /><path d="M 111.8722381534696 117.32195027204791 l 12.85777929650741 18.759884252993974 a43.743257146315386,43.743257146315386 0 0,0 -0.6230366944376294,0.4192068932618636 l -12.533846313972777 -18.97784082031296" fill="red" stroke="none" /><line stroke="#e1ed5e" stroke-width="0.3" x1="143.1302829299769" x2="145.66735839644613" y1="173.24464959558577" y2="177.55315839532614" /><path d="M 143.63769802327073 174.10635135553383 a86.0,86.0 0 0,1 -40.68552437913181,11.842963189579606" fill="none" id="id126" stroke="none" /><text fill="#e1ed5e" style="font-size:6.75px; font-family:Arial;" text-anchor="middle"><textPath startOffset="21.407464694133747" xlink:href="#id126">June</textPath></text><path d="M 110.34350942703117 118.27599006163325 l 13.843789240600541 24.460649101876502 a49.106473542998934,49.106473542998934 0 0,0 -0.737195294456638,0.40890980294398505 l -13.42184975798781 -24.69469182025363" fill="red" stroke="none" /><path d="M 109.71004243097381 118.62028667847754 l 10.509630762926667 20.15360273467059 a43.72927719836195,43.72927719836195 0 0,0 -0.6685847867873793,0.34138415598884736 l -10.162118754425705 -20.331044842332272" fill="red" stroke="none" /><path d="M 108.73861861582097 119.09545874513695 l 9.73780141048868 21.278853475270218 a44.40116196970003,44.40116196970003 0 0,0 -0.6958013000887967,0.31122307129447846 l -9.371086707544258 -21.44288029747455" fill="red" stroke="none" /><path d="M 108.07796709384702 119.3841803445677 l 10.074522596738104 24.175186730996117 a47.19037340380464,47.19037340380464 0 0,0 -0.750429270140849,0.30519305119135026 l -9.658038865406814 -24.344567038766762" fill="red" stroke="none" /><path d="M 106.72888874123015 119.89276391827305 l 8.700004785114732 25.720018257649762 a48.151600734300295,48.151600734300295 0 0,0 -0.7852775427315484,0.2581363258897801 l -8.25720450473545 -25.86557550494156" fill="red" stroke="none" /><path d="M 105.69591212413111 120.21278271476187 l 7.206441683426414 25.57311923345747 a47.56910290290694,47.56910290290694 0 0,0 -0.7878770824039247,0.21473940234295408 l -6.766383200087795 -25.693059129944565" fill="red" stroke="none" /><path d="M 103.94208987418118 120.62667999033965 l 4.503609645853994 23.564788711402134 a44.991285227249804,44.991285227249804 0 0,0 -0.7598498172858542,0.13846994863866754 l -4.098425095017083 -23.638626833972168" fill="red" stroke="none" /><path d="M 102.875027216393 120.80226474461374 l 3.2927300267551445 23.824554201972035 a45.05101773214178,45.05101773214178 0 0,0 -0.7669875231253633,0.09930189049374083 l -2.8832646817390057 -23.877567688666172" fill="red" stroke="none" /><path d="M 101.44090949804482 120.95050786540614 l 1.8329150151946094 26.650182051379126 a47.71313873030603,47.71313873030603 0 0,0 -0.8176115452184688,0.04918548025177258 l -1.3751591178436755 -26.67771950945559" fill="red" stroke="none" /><path d="M 100.72087961077811 120.9876233191556 l 0.83663684185664 24.357768799789017 a45.37213290028444,45.37213290028444 0 0,0 -0.778643457594061,0.020055093429131338 l -0.41838007019183526 -24.368541610568194" fill="red" stroke="none" /><line stroke="#e1ed5e" stroke-width="0.3" x1="101.45913802915013" x2="101.54496967792366" y1="184.9874750549273" y2="189.98673829345242" /><path d="M 101.47630435890484 185.9873277026323 a86.0,86.0 0 0,1 -42.54439059252881,-10.42667462771756" fill="none" id="id127" stroke="none" /><text fill="#e1ed5e" style="font-size:6.75px; font-family:Arial;" text-anchor="middle"><textPath startOffset="22.145653131862474" xlink:href="#id127">July</textPath></text><path d="M 100.0 121.0 l 2.7642860660377135e-15 22.57210869258236 a43.57210869258236,43.57210869258236 0 0,0 -0.7479731859248148,-0.006420450212668978 l 0.3874802610759599 -22.568782640564127" fill="red" stroke="none" /><path d="M 99.27912038922189 120.98762331915562 l -0.8082937710812506 23.532591219166594 a44.546468701458515,44.546468701458515 0 0,0 -0.7640233563079221,-0.03281045031003704 l 1.2121428879900114 -23.51524820043073" fill="red" stroke="none" /><path d="M 98.19965949673042 120.92268563240118 l -2.511709437475902 29.18987095208088 a50.29773456254665,50.29773456254665 0 0,0 -0.8596132807258382,-0.08140627142129561 l 3.012422281586755 -29.1424529251544" fill="red" stroke="none" /><path d="M 97.48249496171623 120.84855314841334 l -3.2454185303198644 26.876721074745433 a48.071957394444325,48.071957394444325 0 0,0 -0.818418614934985,-0.10596067501482614 l 3.7063149671456435 -26.81704880353021" fill="red" stroke="none" /><path d="M 96.76829788921471 120.74984581791261 l -3.499321024359228 22.468151219912407 a43.73902079845071,43.73902079845071 0 0,0 -0.7409025567828035,-0.12191523377211935 l 3.884501084195095 -22.40476998764462" fill="red" stroke="none" /><path d="M 96.05791012581884 120.62667999033965 l -1.2210132522680135 6.388857286955582 a27.504488511428054,27.504488511428054 0 0,0 -0.4629968263077716,-0.09261233224392727 l 1.3305065641067433 -6.366955558048793" fill="red" stroke="none" /><path d="M 95.70440661134978 120.55596938700252 l -4.830950269792028 23.11784586463866 a44.61721571079865,44.61721571079865 0 0,0 -0.7483742971025912,-0.16310469486911175 l 5.227086983513756 -23.031509711635827" fill="red" stroke="none" /><path d="M 95.00130118170881 120.39639698878247 l -7.210606154822976 29.42173373706157 a51.29242904117327,51.29242904117327 0 0,0 -0.8533953906951812,-0.21692977113800127 l 7.714606838743536 -29.293618734088305" fill="red" stroke="none" /><path d="M 94.30408787586889 120.21278271476187 l -7.0211013381393865 24.915411732722944 a46.88577999233422,46.88577999233422 0 0,0 -0.7728115860012036,-0.22495418960821947 l 7.447772936522196 -24.79121384881221" fill="red" stroke="none" /><path d="M 93.27111125876986 119.89276391827306 l -13.885773411553856 41.05082175101859 a64.33572048173328,64.33572048173328 0 0,0 -1.0431400702550024,-0.36285826550883465 l 14.58841925385388 -40.806405052941166" fill="red" stroke="none" /><path d="M 92.59220618246901 119.65005319985036 l -7.844601251890655 20.808736815334466 a43.23828448084565,43.23828448084565 0 0,0 -0.6922814554598059,-0.26778933887133377 l 8.200654969843988 -20.671007588325093" fill="red" stroke="none" /><path d="M 91.92203290615298 119.3841803445677 l -9.149412770594397 21.95525992265837 a44.78539872102641,44.78539872102641 0 0,0 -0.7071079695428281,-0.3018223449588832 l 9.524955815307656 -21.794962928040086" fill="red" stroke="none" /><path d="M 90.93487009805054 118.94263497670748 l -11.181320481630314 23.36465938514103 a46.90230174900648,46.90230174900648 0 0,0 -0.7232776051158794,-0.3537913205651744 l 11.580758336008262 -23.169274314478635" fill="red" stroke="none" /><path d="M 90.28995756902619 118.62028667847754 l -12.060228811858277 23.127078947513336 a47.0827701680418,47.0827701680418 0 0,0 -0.7134411452962723,-0.379867225137948 l 12.45545877294111 -22.916641254652816" fill="red" stroke="none" /><line stroke="#e1ed5e" stroke-width="0.3" x1="58.13341422392154" x2="55.67067388415222" y1="173.97424548756322" y2="178.32567169271397" /><path d="M 57.64086615596768 174.84453072859336 a86.0,86.0 0 0,1 -31.369924170532247,-30.572349798747897" fill="none" id="id128" stroke="none" /><text fill="#e1ed5e" style="font-size:6.75px; font-family:Arial;" text-anchor="middle"><textPath startOffset="22.145653131862474" xlink:href="#id128">August</textPath></text><path d="M 89.65649057296885 118.27599006163327 l -10.910439993556812 19.277702050446432 a43.15101571483327,43.15101571483327 0 0,0 -0.6415272440783432,-0.37038592706111295 l 11.239759705495555 -19.08756922610915" fill="red" stroke="none" /><path d="M 88.72937992617639 117.7192867562869 l -13.200251361603582 20.752987643914892 a45.595388432753026,45.595388432753026 0 0,0 -0.6568219097014446,-0.42574402637129616 l 13.554558903562038 -20.523329775839702" fill="red" stroke="none" /><path d="M 88.1277618465304 117.32195027204791 l -13.879724389421707 20.25093268475506 a45.5509067801739,45.5509067801739 0 0,0 -0.6411938878907436,-0.4476031313745801 l 14.225313368486216 -20.009684737575352" fill="red" stroke="none" /><path d="M 87.54013794807813 116.9041958592261 l -15.137786045812973 20.53731406713386 a46.51340501502895,46.51340501502895 0 0,0 -0.6386667291269795,-0.47926742011499107 l 15.48810576385072 -20.274427619754857" fill="red" stroke="none" /><path d="M 86.68645165197938 116.24036423190432 l -14.566720900356948 17.76903098274788 a43.9766799136592,43.9766799136592 0 0,0 -0.579708271354668,-0.48361325800319904 l 14.869603505873508 -17.516355540832812" fill="red" stroke="none" /><path d="M 86.13680546590413 115.77377054828092 l -17.595582306221566 20.02054268798674 a47.65382986020052,47.65382986020052 0 0,0 -0.6098214613926015,-0.5453061111229971 l 17.936668794437537 -19.71554104698036" fill="red" stroke="none" /><path d="M 85.60350026404147 115.28858382429668 l -18.42697366901681 19.56880746944383 a47.87920356660144,47.87920356660144 0 0,0 -0.5935368592019964,-0.5685948847685757 l 18.760183014084124 -19.249600454369673" fill="red" stroke="none" /><path d="M 85.08716467003676 114.78537596483092 l -17.195292444978705 17.048325016598536 a45.21411712493192,45.21411712493192 0 0,0 -0.5417366020450517,-0.5558694780880447 l 17.485415848174565 -16.750632846442752" fill="red" stroke="none" /><path d="M 84.58840730492382 114.26474011684316 l -16.70182508265292 15.458959952733071 a43.75808436384177,43.75808436384177 0 0,0 -0.505514851115381,-0.555649374543518 l 16.96473763461018 -15.16997300263188" fill="red" stroke="none" /><path d="M 84.1078160697243 113.72728997021213 l -19.90634614187084 17.194627682120824 a47.30433116136451,47.30433116136451 0 0,0 -0.52554083950506,-0.6190857874833151 l 20.198581544883016 -16.850375112187955" fill="red" stroke="none" /><path d="M 83.20337586046588 112.60449989151573 l -19.559184439096793 14.677576642348424 a45.45389441407274,45.45389441407274 0 0,0 -0.4629760103438082,-0.6281158751486868 l 19.80826246902443 -14.339654457930857" fill="red" stroke="none" /><path d="M 82.37810715431573 111.42229804090323 l -20.858255083022826 13.52006894252681 a45.85677109600371,45.85677109600371 0 0,0 -0.4224987583922842,-0.6642382233711742 l 21.087271533041 -13.160017044476964" fill="red" stroke="none" /><path d="M 81.99639281039703 110.81064883170644 l -18.738700307590438 11.252051128117133 a42.85743680781102,42.85743680781102 0 0,0 -0.3733215194571763,-0.6339815559180535 l 18.929095537177385 -10.928718403905519" fill="red" stroke="none" /><line stroke="#e1ed5e" stroke-width="0.3" x1="26.387840678322732" x2="22.057713659400548" y1="142.50000000000003" y2="145.00000000000006" /><path d="M 25.521815274538298 143.00000000000003 a86.0,86.0 0 0,1 -11.493303480769221,-40.785679425670985" fill="none" id="id129" stroke="none" /><text fill="#e1ed5e" style="font-size:6.75px; font-family:Arial;" text-anchor="middle"><textPath startOffset="21.40746469413373" xlink:href="#id129">September</textPath></text><path d="M 81.4637452351635 109.86951160357371 l -20.571948435324686 10.953403822206695 a44.30626777753122,44.30626777753122 0 0,0 -0.35169034915950775,-0.6744126166240839 l 20.75694685345914 -10.598644962478108" fill="red" stroke="none" /><path d="M 81.1358732173502 109.22738970284198 l -21.368891311979485 10.452595549488318 a44.788364164531686,44.788364164531686 0 0,0 -0.3319046888593385,-0.6935531466314756 l 21.545175258798736 -10.084229900791739" fill="red" stroke="none" /><path d="M 80.68587082218212 108.24405325689762 l -23.660402421822607 10.09921885938078 a46.725646043049366,46.725646043049366 0 0,0 -0.30855426207176084,-0.7404179037371648 l 23.830282528430853 -9.691568446202336" fill="red" stroke="none" /><path d="M 80.16572619554312 106.89939002012753 l -20.567290883187706 7.154371410796949 a42.77609892880919,42.77609892880919 0 0,0 -0.23529823974000494,-0.6956174360340927 l 20.687074544500078 -6.800252300288694" fill="red" stroke="none" /><path d="M 79.94057633289273 106.21446072829308 l -24.56895983434705 7.611526560253264 a46.72098606039822,46.72098606039822 0 0,0 -0.23076536224969638,-0.7681428385627377 l 24.696001516600376 -7.188646118099802" fill="red" stroke="none" /><path d="M 79.64726062577567 105.17358676015961 l -25.192216871228265 6.4037630152684635 a46.99338322809707,46.99338322809707 0 0,0 -0.1920294501033684,-0.7835456866322672 l 25.298433847847924 -5.970361504028097" fill="red" stroke="none" /><path d="M 79.56144815229197 104.8234425847677 l -17.109159538288367 4.037715065209914 a38.57914909927175,38.57914909927175 0 0,0 -0.14658081278424873,-0.6458621071024327 l 17.17595121263028 -3.7434186241684553" fill="red" stroke="none" /><path d="M 79.407916724674 104.11899336999214 l -22.70982228679665 4.542600483026371 a44.15969014141332,44.15969014141332 0 0,0 -0.14230714112097725,-0.7446110956189564 l 22.784455720199787 -4.1520868223741" fill="red" stroke="none" /><path d="M 79.2786578344484 103.40968896794605 l -26.935947357604544 4.432299887363729 a48.29817837041819,48.29817837041819 0 0,0 -0.12759575563955253,-0.8192562822250372 l 27.008064605382362 -3.9692554232072412" fill="red" stroke="none" /><path d="M 79.13060592940153 102.33845913500099 l -26.76844693855001 2.999460313101762 a47.93597062798814,47.93597062798814 0 0,0 -0.08461294024993561,-0.8185534422464179 l 26.815992271281612 -2.5395023485724124" fill="red" stroke="none" /><path d="M 79.06263194458094 101.62068470465958 l -28.6891486513543 2.2207215484718277 a49.774969236045266,49.774969236045266 0 0,0 -0.058630265334783646,-0.8524711903932829 l 28.72304287785415 -1.7279069339242012" fill="red" stroke="none" /><path d="M 79.00696218219943 100.54070618675478 l -26.628053476222927 0.6858442013390815 a47.636884468741805,47.636884468741805 0 0,0 -0.014038291331488217,-0.8176600914468539 l 26.63590319915308 -0.22863719392317522" fill="red" stroke="none" /><line stroke="#e1ed5e" stroke-width="0.3" x1="15.003131293944662" x2="10.003315487706104" y1="100.72959589197737" y2="100.7725132973878" /><path d="M 14.003168132696942 100.73817937305945 a86.0,86.0 0 0,1 10.791469493833604,-42.45332614584628" fill="none" id="id130" stroke="none" /><text fill="#e1ed5e" style="font-size:6.75px; font-family:Arial;" text-anchor="middle"><textPath startOffset="22.145653131862435" xlink:href="#id130">October</textPath></text><path d="M 79.01933749520258 99.09900007780938 l -33.89512771649143 -1.4556026259045376 a54.92636823949486,54.92636823949486 0 0,0 0.048540290068959116,-0.9416686596950314 l 33.8651458369659 2.0372430789762808" fill="red" stroke="none" /><path d="M 79.0935383218832 98.0201363427161 l -33.79212312637289 -3.200149193605447 a54.94331363095358,54.94331363095358 0 0,0 0.09698177073471631,-0.9382106570881691 l 33.73220896315651 3.779764372976529" fill="red" stroke="none" /><path d="M 79.17382384314186 97.30363454192245 l -26.072317281118035 -3.3755834580173283 a47.2899275786246,47.2899275786246 0 0,0 0.11114367798629643,-0.8041802877475686 l 26.01052908657653 3.8226520539649638" fill="red" stroke="none" /><path d="M 79.2786578344484 96.59031103205396 l -22.972762328623986 -3.780159299013747 a44.281696959916076,44.281696959916076 0 0,0 0.1298617328109526,-0.7490079654410096 l 22.904485778320797 4.173960297375349" fill="red" stroke="none" /><path d="M 79.407916724674 95.88100663000787 l -47.46385675002469 -9.494100652839988 a69.40408706703516,69.40408706703516 0 0,0 0.24371505992705383,-1.1662647875958005 l 47.29388397927327 10.307481891721197" fill="red" stroke="none" /><path d="M 79.56144815229197 95.17655741523228 l -25.37141247803582 -5.9875842620419455 a47.06836658530189,47.06836658530189 0 0,0 0.19233585521535115,-0.7847959240501599 l 25.26488909630417 6.422236010700224" fill="red" stroke="none" /><path d="M 79.73907114497095 94.47779374421319 l -24.45281698190118 -6.664724005264321 a46.34479837001473,46.34479837001473 0 0,0 0.21579353662473774,-0.7657751334622697 l 24.33480495320186 7.083507062629604" fill="red" stroke="none" /><path d="M 79.94057633289273 93.78553927170692 l -22.671911597446464 -7.023816167196064 a44.734986181436724,44.734986181436724 0 0,0 0.23354918689058515,-0.7315895015282406 l 22.547997694778623 7.411974702415697" fill="red" stroke="none" /><path d="M 80.28708602549916 92.7611449362534 l -39.91734842816252 -14.65820325570911 a63.523612596074315,63.523612596074315 0 0,0 0.38467877978473586,-1.020406165967363 l 39.65983896456335 15.341277701870618" fill="red" stroke="none" /><path d="M 80.5471966667186 92.08871423366112 l -24.91297774128764 -10.131891163705058 a47.894454418914286,47.894454418914286 0 0,0 0.3162725246632887,-0.7589389242219943 l 24.735379372087873 10.558062597368316" fill="red" stroke="none" /><path d="M 81.1358732173502 90.77261029715801 l -21.293923428011393 -10.415925000750967 a44.70490811159751,44.70490811159751 0 0,0 0.34312099853753797,-0.6864718447198124 l 21.111982516262113 10.77992870163455" fill="red" stroke="none" /><path d="M 81.46374523516351 90.13048839642627 l -37.74372006209883 -20.096405009580632 a63.76042444170988,63.76042444170988 0 0,0 0.5226977894352104,-0.9617050598818252 l 37.39317692304827 20.741364902937075" fill="red" stroke="none" /><line stroke="#e1ed5e" stroke-width="0.3" x1="26.387840678322718" x2="22.05771365940052" y1="57.49999999999999" y2="54.99999999999999" /><path d="M 25.521815274538284 56.99999999999999 a86.0,86.0 0 0,1 29.574782752854787,-30.34633250058573" fill="none" id="id131" stroke="none" /><text fill="#e1ed5e" style="font-size:6.75px; font-family:Arial;" text-anchor="middle"><textPath startOffset="21.40746469413373" xlink:href="#id131">November</textPath></text><path d="M 81.99639281039701 89.18935116829357 l -25.899320818578982 -15.551798003627468 a51.20982025781203,51.20982025781203 0 0,0 0.4590156527143528,-0.7497675723433658 l 25.628537201409237 15.994102692095376" fill="red" stroke="none" /><path d="M 82.37810715431573 88.57770195909679 l -23.15861756520844 -15.011136111288472 a48.59811179923746,48.59811179923746 0 0,0 0.4597741490050781,-0.6961566620923108 l 22.897518977282633 15.406472651719843" fill="red" stroke="none" /><path d="M 82.78059297857968 87.97951657250589 l -24.156357218466248 -16.863013415734375 a50.45998668576386,50.45998668576386 0 0,0 0.5019204450968902,-0.7060139632481818 l 23.863321674839383 17.275204605692075" fill="red" stroke="none" /><path d="M 82.98947788004972 87.6856937992154 l -8.198995481470462 -5.935440440082839 a31.121905953077405,31.121905953077405 0 0,0 0.3169958490507422,-0.4300657500528984 l 8.095897612835902 6.0753124994046015" fill="red" stroke="none" /><path d="M 83.2033758604659 87.39550010848427 l -23.74961535099323 -17.822154120276565 a50.692985818321205,50.692985818321205 0 0,0 0.5282885575402746,-0.6915466801107363 l 23.440174816098647 18.227221713628186" fill="red" stroke="none" /><path d="M 83.64595745247003 86.82634096563983 l -34.92805952168699 -28.135572323066818 a65.85063847814246,65.85063847814246 0 0,0 0.7166844228260251,-0.874238464590645 l 34.439928279622336 28.731013069355956" fill="red" stroke="none" /><path d="M 83.8745106332314 86.54754324733833 l -13.432974075797192 -11.20626473430859 a38.49357487240523,38.49357487240523 0 0,0 0.4276552517989558,-0.5037768112953346 l 13.238624260491122 11.43520832805348" fill="red" stroke="none" /><path d="M 84.34580500576568 86.00192230759919 l -17.537271082080416 -15.681935941776182 a44.526134231708056,44.526134231708056 0 0,0 0.5143877398683845,-0.5654022335844018 l 17.265485641370166 15.980675750918241" fill="red" stroke="none" /><path d="M 85.34317274990677 84.96080404539775 l -29.66373183298407 -30.43760209278459 a63.50158358717799,63.50158358717799 0 0,0 0.7872004475650898,-0.7541202215728188 l 29.13685889955368 30.94233444466298" fill="red" stroke="none" /><path d="M 85.86807049272753 84.46653392183569 l -20.79948850983625 -22.862281406402733 a51.90797038591111,51.90797038591111 0 0,0 0.6642612871099995,-0.5939865389721184 l 20.40396219590286 23.215963475258253" fill="red" stroke="none" /><path d="M 86.40962598614128 83.9905735841838 l -27.53194669451361 -32.4325639780418 a63.542676161465366,63.542676161465366 0 0,0 0.8376306494062782,-0.6987812791011113 l 26.971141710945425 32.90040744105479" fill="red" stroke="none" /><path d="M 86.96720088162412 83.53348406188908 l -17.632440452542752 -22.278012505403304 a49.41149058925582,49.41149058925582 0 0,0 0.6696199448786382,-0.5207005192976577 l 17.24741056302887 22.577414076321766" fill="red" stroke="none" /><path d="M 87.25179093698888 83.31218511350988 l -30.89957465733821 -40.44853511612759 a71.90056686369047,71.90056686369047 0 0,0 0.9872530262270357,-0.7408530761064328 l 30.200668642200423 40.973007219498015" fill="red" stroke="none" /><path d="M 87.83215693770416 82.88440491214696 l -18.402601565903083 -25.88556372337516 a52.76032357628453,52.76032357628453 0 0,0 0.7426766971623916,-0.5184460137983481 l 17.955529777566927 26.197654552978634" fill="red" stroke="none" /><path d="M 88.4268655584334 82.4767994020092 l -17.022226811423256 -25.77382095983755 a51.88763591616066,51.88763591616066 0 0,0 0.7474645415645226,-0.48449748523173114 l 16.577276637601706 26.062232286773188" fill="red" stroke="none" /><path d="M 89.03521579738668 82.08984904055464 l -24.82012538329347 -40.54180950877253 a68.53605938956244,68.53605938956244 0 0,0 1.0086786167594304,-0.6056825276733933 l 24.120514009976606 40.961906036981844" fill="red" stroke="none" /><line stroke="#e1ed5e" stroke-width="0.3" x1="56.869717070023135" x2="54.33264160355391" y1="26.7553504044142" y2="22.446841604673864" /><path d="M 56.362301976729285 25.89364864446614 a86.0,86.0 0 0,1 42.16139366436587,-11.88097634709845" fill="none" id="id132" stroke="none" /><text fill="#e1ed5e" style="font-size:6.75px; font-family:Arial;" text-anchor="middle"><textPath startOffset="22.145653131862474" xlink:href="#id132">December</textPath></text><path d="M 89.65649057296885 81.72400993836675 l -21.601369145750002 -38.167549477325885 a64.85636763430232,64.85636763430232 0 0,0 0.9736355634189642,-0.5400592344669768 l 20.942989394174933 38.53274162722601" fill="red" stroke="none" /><path d="M 90.28995756902619 81.37971332152246 l -15.05388595963769 -28.867811256871065 a53.55718060963063,53.55718060963063 0 0,0 0.8188453702629315,-0.4181082805605155 l 14.556113367661176 29.121977489104413" fill="red" stroke="none" /><path d="M 91.26138138417902 80.90454125486306 l -10.976202810019513 -23.98498402911393 a47.377196344636985,47.377196344636985 0 0,0 0.7424381108237048,-0.3320831235399208 l 10.56285129634019 24.169870903563698" fill="red" stroke="none" /><path d="M 91.5904679813234 80.7573450057729 l -25.22859605602979 -57.7279649826813 a84.0,84.0 0 0,0 1.3262596993182754,-0.5661014013623844 l 24.233901281541083 58.15254103370309" fill="red" stroke="none" /><path d="M 93.27111125876988 80.10723608172694 l -14.44381060296006 -42.70055955070027 a66.07728308890279,66.07728308890279 0 0,0 1.077617476950539,-0.354234268876476 l 13.70867038836176 42.94221474097877" fill="red" stroke="none" /><path d="M 93.95794788825049 79.88797359093562 l -13.053104531913384 -43.44953969456989 a66.36789655241978,66.36789655241978 0 0,0 1.0939325186148678,-0.3184278130254427 l 12.305312000916892 43.66721120189786" fill="red" stroke="none" /><path d="M 94.6519064749342 79.69241777938228 l -11.641605612600634 -44.20507271420298 a66.71231163381816,66.71231163381816 0 0,0 1.109948979121671,-0.28214469007101173 l 10.881051340253585 44.39840263610925" fill="red" stroke="none" /><path d="M 95.35216902796891 79.52079915486377 l -10.350755485210557 -45.607338510395486 a67.76716225212323,67.76716225212323 0 0,0 1.1366734030603804,-0.2477326777386434 l 9.566319665531058 45.778302646267846" fill="red" stroke="none" /><path d="M 96.05791012581881 79.37332000966035 l -8.052373250286752 -42.133419454556545 a63.89598757337961,63.89598757337961 0 0,0 1.0791279741777242,-0.19665306453936052 l 7.327910542557989 42.265440693027266" fill="red" stroke="none" /><path d="M 96.41257539226777 79.30868818359171 l -7.846292710865787 -45.25533128512612 a66.93048354884912,66.93048354884912 0 0,0 1.1337466061838972,-0.18655757260637992 l 7.068268601628817 45.383354856228166" fill="red" stroke="none" /><path d="M 97.48249496171623 79.15144685158666 l -4.08328337310307 -33.81544391355287 a55.06108410159165,55.06108410159165 0 0,0 0.9393528405971094,-0.10525644509143403 l 3.502194630905161 33.88055611915127" fill="red" stroke="none" /><path d="M 98.5590905019552 79.04949213459386 l -3.2392050136898476 -47.097329991270364 a68.20858969962276,68.20858969962276 0 0,0 1.1688212493565402,-0.07031338392208461 l 2.430239412200824 47.14599535301714" fill="red" stroke="none" /><path d="M 98.9189461498227 79.02784411241856 l -2.423718763006678 -47.019496500656146 a68.08192289846886,68.08192289846886 0 0,0 1.1676835617518873,-0.05014535637476575 l 1.6162094406539704 47.05417442545674" fill="red" stroke="none" /><path d="M 99.27912038922189 79.0123766808444 l -0.6242892177098228 -18.175499414335622 a39.18621774828024,39.18621774828024 0 0,0 0.6724852927811863,-0.017320835672486493 l 0.3121906108578926 18.183537967358152" fill="red" stroke="none" /></svg>