<?xml version="1.0" encoding="utf-8" ?>
<svg baseProfile="full" height="200mm" version="1.1" viewBox="0,0,200,200" width="200mm" xmlns="http://www.w3.org/2000/svg" xmlns:ev="http://www.w3.org/2001/xml-events" xmlns:xlink="http://www.w3.org/1999/xlink"><defs /><rect fill="#1a1a1a" height="200" width="200" x="0" y="0" /><rect fill="#1a1a1a" height="200" width="180" x="10" y="0" /><text alignment-baseline="middle" fill="#e1ed5e" style="dominant-baseline: central; font-size:9.0px; font-family:Arial;" text-anchor="middle" x="100.0" y="100.0">2023</text><line stroke="#e1ed5e" stroke-width="0.3" x1="100.0" x2="100.0" y1="15.0" y2="10.0" /><path d="M 100.0 14.0 a86.0,86.0 0 0,1 42.46469731375804,11.215312516191453" fill="none" id="id109" stroke="none" /><text fill="#e1ed5e" style="font-size:6.75px; font-family:Arial;" text-anchor="middle"><textPath startOffset="22.20632615414155" xlink:href="#id109">January</textPath></text><line stroke="#e1ed5e" stroke-width="0.3" x1="143.23703022742887" x2="145.7803849466894" y1="26.81831364943548" y2="22.513508569990506" /><path d="M 143.74570117128098 25.957352633546492 a86.0,86.0 0 0,1 28.547481713284135,27.462654790039103" fill="none" id="id110" stroke="none" /><text fill="#e1ed5e" style="font-size:6.75px; font-family:Arial;" text-anchor="middle"><textPath startOffset="19.985693538727396" xlink:href="#id110">February</textPath></text><line stroke="#e1ed5e" stroke-width="0.3" x1="172.23445277983987" x2="176.4835382374775" y1="55.19839476539836" y2="52.563006222186495" /><path d="M 173.08426987136738 54.67131705675599 a86.0,86.0 0 0,1 12.851231095245387,41.99856678651699" fill="none" id="id111" stroke="none" /><text fill="#e1ed5e" style="font-size:6.75px; font-family:Arial;" text-anchor="middle"><textPath startOffset="22.20632615414155" xlink:href="#id111">March</textPath></text><line stroke="#e1ed5e" stroke-width="0.3" x1="184.98032266829074" x2="189.97916517819016" y1="98.17113171792111" y2="98.06355123074" /><path d="M 185.9800911702706 98.14961562048488 a86.0,86.0 0 0,1 -9.607161424134198,41.387399972396054" fill="none" id="id112" stroke="none" /><text fill="#e1ed5e" style="font-size:6.75px; font-family:Arial;" text-anchor="middle"><textPath startOffset="21.466115282336823" xlink:href="#id112">April</textPath></text><line stroke="#e1ed5e" stroke-width="0.3" x1="174.80103733775053" x2="179.2010983576182" y1="140.37084112569926" y2="142.7455964860345" /><path d="M 175.68104954172406 140.8457921977663 a86.0,86.0 0 0,1 -30.038265399797805,32.042727171017184" fill="none" id="id113" stroke="none" /><text fill="#e1ed5e" style="font-size:6.75px; font-family:Arial;" text-anchor="middle"><textPath startOffset="22.206326154141568" xlink:href="#id113">May</textPath></text><line stroke="#e1ed5e" stroke-width="0.3" x1="143.8653032363475" x2="146.44561519142675" y1="172.8068346515853" y2="177.08958963109032" /><path d="M 144.38136562736335 173.6633856474863 a86.0,86.0 0 0,1 -40.68145358897372,12.25698825130547" fill="none" id="id114" stroke="none" /><text fill="#e1ed5e" style="font-size:6.75px; font-family:Arial;" text-anchor="middle"><textPath startOffset="21.466115282336833" xlink:href="#id114">June</textPath></text><line stroke="#e1ed5e" stroke-width="0.3" x1="102.19456741930631" x2="102.32365962044197" y1="184.97166512339345" y2="189.96999836594603" /><path d="M 102.22038585953345 185.97133177190398 a86.0,86.0 0 0,1 -42.740103519485714,-10.115201625700543" fill="none" id="id115" stroke="none" /><text fill="#e1ed5e" style="font-size:6.75px; font-family:Arial;" text-anchor="middle"><textPath startOffset="22.20632615414155" xlink:href="#id115">July</textPath></text><line stroke="#e1ed5e" stroke-width="0.3" x1="58.666819895761336" x2="56.23545636021788" y1="174.27360380694188" y2="178.64263932499728" /><path d="M 58.180547188652646 175.14741091055294 a86.0,86.0 0 0,1 -31.652253787137756,-30.449443065178592" fill="none" id="id116" stroke="none" /><text fill="#e1ed5e" style="font-size:6.75px; font-family:Arial;" text-anchor="middle"><textPath startOffset="22.20632615414155" xlink:href="#id116">August</textPath></text><line stroke="#e1ed5e" stroke-width="0.3" x1="26.63291911575756" x2="22.317208475507996" y1="142.92168965132927" y2="145.44649492493687" /><path d="M 25.769776987707644 143.4266507060508 a86.0,86.0 0 0,1 -11.730757126820373,-40.83630448921669" fill="none" id="id117" stroke="none" /><text fill="#e1ed5e" style="font-size:6.75px; font-family:Arial;" text-anchor="middle"><textPath startOffset="21.46611528233685" xlink:href="#id117">September</textPath></text><path d="M 79.76711848015287 105.62410040840567 l -16.376223822519975 4.552071685786909 a37.99711926527003,37.99711926527003 0 0,0 -0.16974204055933267,-0.6316732785102939 l 16.45215393942108 -4.269507474101077" fill="#ffce13" stroke="none" /><path d="M 79.58551787078972 104.9243191809786 l -4.361306164153887 1.0520209850208917 a25.486394945879265,25.486394945879265 0 0,0 -0.09920207139745382,-0.42735992722080846 l 4.378768801481895 -0.9767924004515091" fill="#ff2203" stroke="none" /><path d="M 79.4281124754447 104.21870165774334 l -4.355328022215677 0.8931523432356748 a25.445964832218593,25.445964832218593 0 0,0 -0.08429892756553724,-0.4298384155114818 l 4.370056882756881 -0.8180502006562382" fill="#ff2103" stroke="none" /><path d="M 79.18660465613746 102.79330883721812 l -4.797074896961462 0.6438022956418294 a25.840083569829297,25.840083569829297 0 0,0 -0.05536975055131597,-0.44135139067749557 l 4.807446156759625 -0.5611331506769252" fill="#ff2703" stroke="none" /><path d="M 79.10278846688536 102.07522291339032 l -4.933662339822777 0.48994331699742805 a25.95792986409207,25.95792986409207 0 0,0 -0.04032799722035079,-0.44501608884876825 l 4.941364933320203 -0.4049458396000936" fill="#ff2904" stroke="none" /><path d="M 79.04373962182676 101.35467743843564 l -5.46193885813799 0.35307660850315564 a26.473338942684787,26.473338942684787 0 0,0 -0.025482037343946412,-0.45499889464064003 l 5.467207246369468 -0.259005997527078" fill="#ff3004" stroke="none" /><line stroke="#e1ed5e" stroke-width="0.3" x1="15.007084014347285" x2="10.007500721073583" y1="101.09737516637583" y2="101.16192664675087" /><path d="M 14.007167355692545 101.11028546245083 a86.0,86.0 0 0,1 10.666146001902534,-42.60595125391555" fill="none" id="id118" stroke="none" /><text fill="#e1ed5e" style="font-size:6.75px; font-family:Arial;" text-anchor="middle"><textPath startOffset="22.20632615414155" xlink:href="#id118">October</textPath></text><path d="M 79.00175016825051 100.2711162175752 l -5.604943484845557 0.07236751107877953 a26.60541064730965,26.60541064730965 0 0,0 -0.0019709575932335723,-0.4579811322619741 l 5.605358739728294 0.024123099386869948" fill="#ff3204" stroke="none" /><path d="M 79.03285615573316 98.82574320788736 l -5.950672831887091 -0.33326513340987357 a26.959997718229918,26.959997718229918 0 0,0 0.02993767682435671,-0.4631226097433775 l 5.9440545640583204 0.4356468074062629" fill="#ff3705" stroke="none" /><path d="M 79.05617556472873 98.46500227214037 l -8.68221446637502 -0.636329793532433 a29.705501918112976,29.705501918112976 0 0,0 0.041765251311105006,-0.5096418534977976 l 8.669974731244418 0.7856855642380091" fill="#ff5e08" stroke="none" /><path d="M 79.12142395522702 97.74499172005258 l -6.274798014397199 -0.6777148713168953 a27.311290483592646,27.311290483592646 0 0,0 0.0545050734849433,-0.4669661839315502 l 6.262202587908667 0.7856247935733073" fill="#ff3c05" stroke="none" /><path d="M 79.21141760316559 97.0276538004421 l -6.243452760031006 -0.8926872804094299 a27.306947989903165,27.306947989903165 0 0,0 0.07053528555293997,-0.46473940235496997 l 6.2271615810387635 1.000025795156492" fill="#ff3c05" stroke="none" /><path d="M 79.32604984820605 96.31383870115002 l -6.089028329743218 -1.0856725691946671 a27.185058684274324,27.185058684274324 0 0,0 0.08610449994535412,-0.4599736817137684 l 6.069438105888002 1.1903243283710083" fill="#ff3b05" stroke="none" /><path d="M 79.46518482838121 95.60439243477599 l -9.113585310368688 -1.95082079881282 a30.320039645755195,30.320039645755195 0 0,0 0.11363606221150885,-0.5094081851015788 l 9.07865486115514 2.107407153464358" fill="#ff6709" stroke="none" /><path d="M 79.62865764111835 94.90015583598534 l -7.940120049779585 -1.987761738233688 a29.185151381183953,29.185151381183953 0 0,0 0.1261961333491366,-0.48628518043684665 l 7.904727584560141 2.1241433442193984" fill="#ff5708" stroke="none" /><path d="M 79.81627453868168 94.20196356495316 l -6.041934503156004 -1.7356239042490957 a27.286283709587714,27.286283709587714 0 0,0 0.13356519309916734,-0.45031543231617766 l 6.01116341294513 1.8393687233118126" fill="#ff3c05" stroke="none" /><path d="M 80.02781315780177 93.51064311812611 l -7.929659699379925 -2.5765026207528425 a29.337737624962564,29.337737624962564 0 0,0 0.16018782812818583,-0.47894121701166464 l 7.8841345774799665 2.7126169406868295" fill="#ff5908" stroke="none" /><path d="M 80.2630227832202 92.82701384747504 l -7.119509158757413 -2.5874347448263193 a28.575105888392923,28.575105888392923 0 0,0 0.1719886793987137,-0.4608441533969195 l 7.073915890857072 2.7096020352525803" fill="#ff4e07" stroke="none" /><path d="M 80.52162464483688 92.15188598940014 l -7.056504743902811 -2.8431659590032674 a28.60774946164487,28.60774946164487 0 0,0 0.1879642386999994,-0.45517031320172124 l 7.006518818316612 2.9642108426582996" fill="#ff4f07" stroke="none" /><path d="M 80.95270993114464 91.15688171328213 l -6.842204040792311 -3.176641897921257 a28.54366024443462,28.54366024443462 0 0,0 0.2107362208887874,-0.4438642256285688 l 6.786509626061771 3.293948539190358" fill="#ff4e07" stroke="none" /><path d="M 81.26839172434947 90.50648371742162 l -7.416937918361644 -3.7590376575603415 a29.31512670954493,29.31512670954493 0 0,0 0.23199512023058827,-0.4481407297218351 l 7.351133364970942 3.8861511095425123" fill="#ff5908" stroke="none" /><path d="M 81.6062741919709 89.86733742301443 l -7.158551322729487 -3.943474304786529 a29.172872605924045,29.172872605924045 0 0,0 0.24608340303280096,-0.4377549152713552 l 7.089610278404256 4.0661127299926685" fill="#ff5708" stroke="none" /><line stroke="#e1ed5e" stroke-width="0.3" x1="26.266209847984243" x2="21.928928074336255" y1="57.711370442889674" y2="55.22380399835377" /><path d="M 25.398753493254645 57.213857153982495 a86.0,86.0 0 0,1 29.58750427330803,-30.492523968695096" fill="none" id="id119" stroke="none" /><text fill="#e1ed5e" style="font-size:6.75px; font-family:Arial;" text-anchor="middle"><textPath startOffset="21.46611528233685" xlink:href="#id119">November</textPath></text><path d="M 81.96595687620814 89.24020034530311 l -7.730712657521422 -4.612438753305485 a30.002139159452945,30.002139159452945 0 0,0 0.26842514122284034,-0.4412203545316707 l 7.6501717180123645 4.74482688104423" fill="#ff6209" stroke="none" /><path d="M 82.54541684631803 88.32363383020206 l -7.587109347046195 -5.0754501626537145 a30.12822121760956,30.12822121760956 0 0,0 0.2920651777535838,-0.42856960940335853 l 7.498619703623872 5.205297795327489" fill="#ff6409" stroke="none" /><path d="M 82.95767976084542 87.72973835380427 l -6.154177948628126 -4.430932677431088 a28.583341652286762,28.583341652286762 0 0,0 0.29092041763761994,-0.3968151227147758 l 6.076994918476873 4.536210243817365" fill="#ff4e07" stroke="none" /><path d="M 84.07557802195018 86.31012108654704 l -5.747312634011147 -4.9408395573681325 a28.579148899758987,28.579148899758987 0 0,0 0.3239080938172838,-0.37028294440877113 l 5.6614126766160195 5.039038057979846" fill="#ff4e07" stroke="none" /><path d="M 84.5562425177563 85.77008943001954 l -9.272179063671635 -8.543405257210999 a33.60805607449979,33.60805607449979 0 0,0 0.3956671288888414,-0.4220701060058581 l 9.123744612812338 8.701744780094907" fill="#ff940d" stroke="none" /><path d="M 85.05521093208273 85.24692304244772 l -5.636504956926944 -5.5641997369961445 a28.920259266125697,28.920259266125697 0 0,0 0.3527778606600445,-0.3512629204139354 l 5.5398912960995865 5.660398508060189" fill="#ff5307" stroke="none" /><path d="M 85.31137513191541 84.99185889309783 l -15.962863756185993 -16.310098043530093 a43.82175097331755,43.82175097331755 0 0,0 0.5436333534663159,-0.5229748553144488 l 15.679747159107249 16.582455985606856" fill="#e7ff1a" stroke="none" /><path d="M 85.57189188830299 84.74124197986013 l -43.28432433509105 -45.776274060419595 a84.0,84.0 0 0,0 1.0591684648205755,-0.98438165570141 l 42.48994798647562 46.514560302195655" fill="#4dd2ff" stroke="none" /><path d="M 86.37877921826538 84.01681056812374 l -4.911300823214108 -5.762938041472991 a28.571811582835387,28.571811582835387 0 0,0 0.3770696302670104,-0.315784971406579 l 4.811373655987987 5.846624170273382" fill="#ff4e07" stroke="none" /><path d="M 86.65592168130627 83.78471172551755 l -1.9897845566985861 -2.4179212247114044 a24.13138717359992,24.13138717359992 0 0,0 0.32301194868681626,-0.26118653186274937 l 1.9478692094472694 2.451813853838288" fill="#ff0e01" stroke="none" /><path d="M 86.93701828274178 83.55741782278169 l -5.192051339125875 -6.53531733104438 a29.346722094664937,29.346722094664937 0 0,0 0.3982314480839569,-0.3108259618720878 l 5.078787335882493 6.62372168213969" fill="#ff5908" stroke="none" /><path d="M 87.80319425747018 82.90503203632743 l -4.593652989223505 -6.438435795790287 a28.90917842015944,28.90917842015944 0 0,0 0.40757654811567834,-0.28553341845631464 l 4.4821453015241675 6.516554057010544" fill="#ff5307" stroke="none" /><path d="M 88.09926311788651 82.69761687909137 l -9.83952199023704 -14.305599803451157 a38.36278718215656,38.36278718215656 0 0,0 0.5473005213930991,-0.36953975514151044 l 9.591816774437403 14.472851470891333" fill="#ffd313" stroke="none" /><path d="M 88.39885842347998 82.49532879139004 l -4.191870112010495 -6.325007549985747 a28.587983628299654,28.587983628299654 0 0,0 0.41252865265303573,-0.2683201109165458 l 4.082374433573172 6.396226585061828" fill="#ff4f07" stroke="none" /><path d="M 88.70189139769569 82.29822771554957 l -5.309084689325998 -8.318224892097716 a30.868092297599866,30.868092297599866 0 0,0 0.4503520134662146,-0.2820103895171717 l 5.165113523487542 8.408379622937817" fill="#ff6f0a" stroke="none" /><line stroke="#e1ed5e" stroke-width="0.3" x1="56.762969772571076" x2="54.21961505331055" y1="26.818313649435495" y2="22.513508569990535" /><path d="M 56.25429882871897 25.957352633546506 a86.0,86.0 0 0,1 42.265352541879196,-11.944610805530505" fill="none" id="id120" stroke="none" /><text fill="#e1ed5e" style="font-size:6.75px; font-family:Arial;" text-anchor="middle"><textPath startOffset="22.20632615414155" xlink:href="#id120">December</textPath></text><path d="M 89.63071344664047 81.73862282372117 l -3.8462820446496946 -6.773697185650694 a28.78953523195619,28.78953523195619 0 0,0 0.4330438412660285,-0.24098842881792754 l 3.7291141143116207 6.838901012028806" fill="#ff5107" stroke="none" /><path d="M 90.58718382345135 81.22770947309562 l -3.4919009597775235 -6.96401354054226 a28.790433678926426,28.790433678926426 0 0,0 0.444920141144874,-0.21832038099283077 l 3.3715095516222235 7.02308908166992" fill="#ff5107" stroke="none" /><path d="M 90.91171255644093 81.06846463323043 l -2.3195410252799418 -4.831765415373303 a26.359685400949786,26.359685400949786 0 0,0 0.41073635268944697,-0.19284622496089804 l 2.2360264612908862 4.870976622974209" fill="#ff2f04" stroke="none" /><path d="M 91.23893434514133 80.91482961587045 l -3.354383282737244 -7.3072134152096835 a29.040351677814066,29.040351677814066 0 0,0 0.4560965366360233,-0.2046372210936519 l 3.2281046276344463 7.3638709668198645" fill="#ff5507" stroke="none" /><path d="M 91.56875222667455 80.76684994638697 l -5.729246946723294 -13.069413826166292 a35.27003322827683,35.27003322827683 0 0,0 0.5581335669062819,-0.23896366554702117 l 5.5034296220267045 13.1660970196761" fill="#ffaa0f" stroke="none" /><path d="M 91.90106846888425 80.62456947434976 l -0.9708877290762973 -2.3226974657893624 a23.517448410604526,23.517448410604526 0 0,0 0.3748413966263066,-0.15290721739082802 l 0.9307624628616102 2.3390655693637674" fill="#ff0500" stroke="none" /><path d="M 92.57280143429618 80.3572730644239 l -3.8022541109275774 -10.055829069320794 a31.75066670469617,31.75066670469617 0 0,0 0.5128755864160643,-0.18889640681215913 l 3.628596198738944 10.119788743939276" fill="#ff7b0b" stroke="none" /><path d="M 92.91201910852362 80.23233633223022 l -3.1711995053955704 -8.844155508579563 a30.395509191255115,30.395509191255115 0 0,0 0.494025442030247,-0.17235577628051973 l 3.018492059302038 8.897432138032293" fill="#ff6809" stroke="none" /><path d="M 93.59665428221793 80.00007090966166 l -0.6660772616691504 -2.0803964972679787 a23.184424066969953,23.184424066969953 0 0,0 0.3811239196759735,-0.11841705705950156 l 0.6301679692824482 2.0915536892100057" fill="#ff0000" stroke="none" /><path d="M 95.33964822691252 79.52364482259891 l -1.7157386688458514 -7.538502689382608 a28.731285920052482,28.731285920052482 0 0,0 0.4831744127186683,-0.1056032121607755 l 1.5857215319736622 7.566919399639252" fill="#ff5107" stroke="none" /><path d="M 97.11714578562143 79.19881850522333 l -1.193497780171558 -8.611661254023286 a29.693971848661597,29.693971848661597 0 0,0 0.5068976933260706,-0.06580986865493478 l 1.0450853583376298 8.630929445842357" fill="#ff5e08" stroke="none" /><path d="M 97.83486435360386 79.11191278185805 l -0.8265037351850203 -7.9736722894940835 a29.016393091941076,29.016393091941076 0 0,0 0.4972509893458114,-0.047219973050026814 l 0.6891276187489727 7.986717807059291" fill="#ff5507" stroke="none" /><path d="M 98.55514903715128 79.0497635885617 l -0.5546483680774903 -8.04236197035262 a29.061465181614636,29.061465181614636 0 0,0 0.4993561692310695,-0.030122527810562398 l 0.41613015000679787 8.050717767543489" fill="#ff5507" stroke="none" /><path d="M 99.27714615592234 79.0124445844662 l -0.30742498449942285 -8.92586924889903 a29.93116184880421,29.93116184880421 0 0,0 0.5150630795156687,-0.013302559759788796 l 0.15373526978887514 8.92983860080118" fill="#ff6109" stroke="none" /></svg>