<?xml version="1.0" encoding="utf-8" ?>
<svg baseProfile="full" height="200mm" version="1.1" viewBox="0,0,200,200" width="200mm" xmlns="http://www.w3.org/2000/svg" xmlns:ev="http://www.w3.org/2001/xml-events" xmlns:xlink="http://www.w3.org/1999/xlink"><defs /><rect fill="#1a1a1a" height="200" width="200" x="0" y="0" /><rect fill="#1a1a1a" height="200" width="180" x="10" y="0" /><text alignment-baseline="middle" fill="#e1ed5e" style="dominant-baseline: central; font-size:9.0px; font-family:Arial;" text-anchor="middle" x="100.0" y="100.0">2014</text><line stroke="#e1ed5e" stroke-width="0.3" x1="100.0" x2="100.0" y1="15.0" y2="10.0" /><path d="M 100.0 14.0 a86.0,86.0 0 0,1 42.46469731375804,11.215312516191453" fill="none" id="id1" stroke="none" /><text fill="#e1ed5e" style="font-size:6.75px; font-family:Arial;" text-anchor="middle"><textPath startOffset="22.20632615414155" xlink:href="#id1">January</textPath></text><line stroke="#e1ed5e" stroke-width="0.3" x1="143.23703022742887" x2="145.7803849466894" y1="26.81831364943548" y2="22.513508569990506" /><path d="M 143.74570117128098 25.957352633546492 a86.0,86.0 0 0,1 28.547481713284135,27.462654790039103" fill="none" id="id2" stroke="none" /><text fill="#e1ed5e" style="font-size:6.75px; font-family:Arial;" text-anchor="middle"><textPath startOffset="19.985693538727396" xlink:href="#id2">February</textPath></text><line stroke="#e1ed5e" stroke-width="0.3" x1="172.23445277983987" x2="176.4835382374775" y1="55.19839476539836" y2="52.563006222186495" /><path d="M 173.08426987136738 54.67131705675599 a86.0,86.0 0 0,1 12.851231095245387,41.99856678651699" fill="none" id="id3" stroke="none" /><text fill="#e1ed5e" style="font-size:6.75px; font-family:Arial;" text-anchor="middle"><textPath startOffset="22.20632615414155" xlink:href="#id3">March</textPath></text><line stroke="#e1ed5e" stroke-width="0.3" x1="184.98032266829074" x2="189.97916517819016" y1="98.17113171792111" y2="98.06355123074" /><path d="M 185.9800911702706 98.14961562048488 a86.0,86.0 0 0,1 -9.607161424134198,41.387399972396054" fill="none" id="id4" stroke="none" /><text fill="#e1ed5e" style="font-size:6.75px; font-family:Arial;" text-anchor="middle"><textPath startOffset="21.466115282336823" xlink:href="#id4">April</textPath></text><path d="M 119.79798401119884 107.00284435728193 l 42.24231331295172 14.941740798194854 a65.80701565726085,65.80701565726085 0 0,0 -0.38693189949147133,1.0646704067622093 l -41.97885715245502 -15.666659001963193" fill="red" stroke="none" /><path d="M 119.12269723197855 108.67885076344098 l 47.782477785368606 21.68611408610067 a73.4733525464556,73.4733525464556 0 0,0 -0.5325956782593503,1.1471637090347915 l -47.40210749026942 -22.50539786241429" fill="red" stroke="none" /><path d="M 118.81262510543309 109.33194174019688 l 39.2817128567205 19.48556640977189 a64.84906228492773,64.84906228492773 0 0,0 -0.5046533343674277,0.9957289051811713 l -38.94048085256681 -20.158849526655757" fill="red" stroke="none" /><line stroke="#e1ed5e" stroke-width="0.3" x1="174.80103733775053" x2="179.2010983576182" y1="140.37084112569926" y2="142.7455964860345" /><path d="M 175.68104954172406 140.8457921977663 a86.0,86.0 0 0,1 -30.038265399797805,32.042727171017184" fill="none" id="id5" stroke="none" /><text fill="#e1ed5e" style="font-size:6.75px; font-family:Arial;" text-anchor="middle"><textPath startOffset="22.206326154141568" xlink:href="#id5">May</textPath></text><path d="M 118.48025628344425 109.97397251340804 l 19.710590792335367 10.63799591144776 a43.398088007570536,43.398088007570536 0 0,0 -0.36045953967713507,0.6543387670649282 l -19.524554843206722 -10.975705196910495" fill="red" stroke="none" /><path d="M 118.12598468904814 110.60418214915192 l 51.20855765622819 29.958365423870852 a80.32807123193393,80.32807123193393 0 0,0 -0.7084902385918681,1.1874703921623546 l -50.68528654193809 -30.835397909919312" fill="red" stroke="none" /><path d="M 117.75023020441432 111.22182372390056 l 39.24913525165915 24.813586755630624 a67.43499440812113,67.43499440812113 0 0,0 -0.6287354258717106,0.9758113433355055 l -38.816194962410385 -25.485519698887583" fill="red" stroke="none" /><path d="M 117.35343817320211 111.8261652097733 l 36.569079111484896 24.92139983012306 a65.25351643152099,65.25351643152099 0 0,0 -0.6405381276987798,0.9227429465410978 l -36.13468007662398 -25.547184038851178" fill="red" stroke="none" /><path d="M 116.27256486870786 113.27417163493432 l 48.81769460612357 39.822514904802965 a84.0,84.0 0 0,0 -0.9236160004258265,1.1125549715449181 l -48.12498260580419 -40.656931133461654" fill="red" stroke="none" /><path d="M 115.56566222782051 114.09645910891815 l 34.318207662319836 31.078999654677045 a67.29949888162423,67.29949888162423 0 0,0 -0.7850120948162737,0.8519755871513701 l -33.778149159507834 -31.66512649662975" fill="red" stroke="none" /><path d="M 114.81725581225074 114.88116024355365 l 33.40192383657194 33.54598093960411 a68.33942704748796,68.33942704748796 0 0,0 -0.8407378205871167,0.8228389092994157 l -32.81953606360903 -34.115969951826095" fill="red" stroke="none" /><path d="M 114.29624159901734 115.38237550388516 l 32.23664732896108 34.68577463285736 a68.35297660013765,68.35297660013765 0 0,0 -0.8687352499932212,0.7935690533548377 l -31.634812529500987 -35.235536452798776" fill="red" stroke="none" /><path d="M 112.63410532772338 116.77436683061366 l 28.49724951173548 37.835945211287495 a68.36720363041982,68.36720363041982 0 0,0 -0.9461208050216426,0.6999175530010765 l -27.84174373629527 -38.320872713028336" fill="red" stroke="none" /><path d="M 112.04921762599082 117.19931262002967 l 27.1861509267425 38.806097062746325 a68.381430660702,68.381430660702 0 0,0 -0.9698542067584652,0.6670745670112838 l -26.51413983536115 -39.2683124191227" fill="red" stroke="none" /><path d="M 111.45004920935366 117.60387380957326 l 25.85680471241228 39.75353458780278 a68.42275679628355,68.42275679628355 0 0,0 -0.9928409119021269,0.6336780446178486 l -25.16868199846322 -40.19272706124444" fill="red" stroke="none" /><line stroke="#e1ed5e" stroke-width="0.3" x1="143.8653032363475" x2="146.44561519142675" y1="172.8068346515853" y2="177.08958963109032" /><path d="M 144.38136562736335 173.6633856474863 a86.0,86.0 0 0,1 -40.68145358897372,12.25698825130547" fill="none" id="id6" stroke="none" /><text fill="#e1ed5e" style="font-size:6.75px; font-family:Arial;" text-anchor="middle"><textPath startOffset="21.466115282336833" xlink:href="#id6">June</textPath></text><path d="M 109.89434966115114 118.52300852407294 l 23.249572423518114 43.52504640833296 a70.3454383172746,70.3454383172746 0 0,0 -1.0729658980373475,0.5613250463530614 l -22.49691562295427 -43.918800873630744" fill="red" stroke="none" /><path d="M 109.2508944713604 118.85261126421891 l 13.647735423756155 27.813034877604434 a51.981052133516854,51.981052133516854 0 0,0 -0.8066650663967914,0.3872482528258158 l -13.166957689359132 -28.043837406929807" fill="red" stroke="none" /><path d="M 108.59647513512805 119.15986991738527 l 13.302941735261813 29.64966793478375 a53.497247075017206,53.497247075017206 0 0,0 -0.8434205937744834,0.36973080246426465 l -12.790600466829577 -29.87426329054247" fill="red" stroke="none" /><path d="M 108.2653958097858 119.30500536409082 l 19.43228401477385 45.38685814629696 a70.37185994494149,70.37185994494149 0 0,0 -1.1176677971374005,0.4671852298489757 l -18.648144758138987 -45.714628419165905" fill="red" stroke="none" /><path d="M 107.59598834532513 119.57807347666477 l 17.86877187815353 46.05537987476693 a70.40031400550585,70.40031400550585 0 0,0 -1.1335448872899536,0.4286096827926945 l -17.073356770103302 -46.35613780766626" fill="red" stroke="none" /><path d="M 107.2578585660854 119.70592522655815 l 2.392723783341365 6.496521740263603 a27.923143926359256,27.923143926359256 0 0,0 -0.4524618897076514,0.16223673582619977 l -2.2805423330039782 -6.536746017129763" fill="red" stroke="none" /><path d="M 106.91757812671514 119.82793768551818 l 16.2601619458854 46.60669845915371 a70.36169778045424,70.36169778045424 0 0,0 -1.1469970853415725,0.3891236865237581 l -15.455495127606602 -46.879685132575595" fill="red" stroke="none" /><path d="M 106.2309692047433 120.05430185196036 l 14.077573404591247 45.308506128370844 a68.44511355815553,68.44511355815553 0 0,0 -1.1281222228455647,0.33989397161566415 l -13.295576207305436 -45.54411546909223" fill="red" stroke="none" /><path d="M 105.18746579009965 120.34920634021253 l 12.183560449850578 47.793237697226175 a70.32172660013764,70.32172660013764 0 0,0 -1.1755338635316321,0.28891762305927066 l -11.359073301575735 -47.99587657859948" fill="red" stroke="none" /><path d="M 103.41894727170886 120.7198165907248 l 8.037312954087005 48.70845820552925 a70.36711760151411,70.36711760151411 0 0,0 -1.1967909899287,0.18691413937703447 l -7.197686100549788 -48.83959065225339" fill="red" stroke="none" /><path d="M 102.70371172650421 120.8252237178851 l 6.354356385094139 48.94415776857085 a70.35492300412939,70.35492300412939 0 0,0 -1.2023072628339828,0.14558266574824227 l -5.510921699208776 -49.04628596304444" fill="red" stroke="none" /><line stroke="#e1ed5e" stroke-width="0.3" x1="102.19456741930631" x2="102.32365962044197" y1="184.97166512339345" y2="189.96999836594603" /><path d="M 102.22038585953345 185.97133177190398 a86.0,86.0 0 0,1 -42.740103519485714,-10.115201625700543" fill="none" id="id7" stroke="none" /><text fill="#e1ed5e" style="font-size:6.75px; font-family:Arial;" text-anchor="middle"><textPath startOffset="22.20632615414155" xlink:href="#id7">July</textPath></text><path d="M 95.51606077576429 120.51570834832081 l -10.546264401737641 48.25312605953234 a70.39218427391603,70.39218427391603 0 0,0 -1.1815155522276193,-0.26890909300261595 l 11.375300103358123 -48.06444023295204" fill="red" stroke="none" /><path d="M 94.81253420990036 120.34920634021253 l -12.244476578579778 48.0321973208875 a70.568328458362,70.568328458362 0 0,0 -1.1744907252864516,-0.3101936753282408 l 13.06945774667772 -47.81431229625567" fill="red" stroke="none" /><path d="M 93.42475214034765 119.94407469862007 l -15.46249518716121 46.90091774823246 a70.38405454232621,70.38405454232621 0 0,0 -1.1473615327826379,-0.3892473268831125 l 16.267526452881075 -46.62780743445122" fill="red" stroke="none" /><path d="M 92.7421414339146 119.70592522655815 l -17.11995154776108 46.482648016719246 a70.53513205437027,70.53513205437027 0 0,0 -1.1357156490565956,-0.42943047914814025 l 17.917537417577957 -46.181069287464474" fill="red" stroke="none" /><path d="M 91.07499286063937 119.00905698771935 l -21.02797406449326 44.7867381041526 a70.47754645560909,70.47754645560909 0 0,0 -1.093701884776545,-0.5250433688468318 l 21.79578861727005 -44.41814045880621" fill="red" stroke="none" /><path d="M 90.42595943632237 118.69057910512821 l -22.524404749228584 43.97246553963502 a70.40573382656572,70.40573382656572 0 0,0 -1.0738855742355735,-0.5618061774733918 l 23.277981225990654 -43.57822994321691" fill="red" stroke="none" /><line stroke="#e1ed5e" stroke-width="0.3" x1="58.666819895761336" x2="56.23545636021788" y1="174.27360380694188" y2="178.64263932499728" /><path d="M 58.180547188652646 175.14741091055294 a86.0,86.0 0 0,1 -31.652253787137756,-30.449443065178592" fill="none" id="id8" stroke="none" /><text fill="#e1ed5e" style="font-size:6.75px; font-family:Arial;" text-anchor="middle"><textPath startOffset="22.20632615414155" xlink:href="#id8">August</textPath></text><line stroke="#e1ed5e" stroke-width="0.3" x1="26.63291911575756" x2="22.317208475507996" y1="142.92168965132927" y2="145.44649492493687" /><path d="M 25.769776987707644 143.4266507060508 a86.0,86.0 0 0,1 -11.730757126820373,-40.83630448921669" fill="none" id="id9" stroke="none" /><text fill="#e1ed5e" style="font-size:6.75px; font-family:Arial;" text-anchor="middle"><textPath startOffset="21.46611528233685" xlink:href="#id9">September</textPath></text><path d="M 81.87401531095188 110.60418214915194 l -17.67143164905695 10.338256555855503 a41.473374053682036,41.473374053682036 0 0,0 -0.355185882684786,-0.6192965251680812 l 17.84676952789411 -10.032540184829115" fill="red" stroke="none" /><line stroke="#e1ed5e" stroke-width="0.3" x1="15.007084014347285" x2="10.007500721073583" y1="101.09737516637583" y2="101.16192664675087" /><path d="M 14.007167355692545 101.11028546245083 a86.0,86.0 0 0,1 10.666146001902534,-42.60595125391555" fill="none" id="id10" stroke="none" /><text fill="#e1ed5e" style="font-size:6.75px; font-family:Arial;" text-anchor="middle"><textPath startOffset="22.20632615414155" xlink:href="#id10">October</textPath></text><line stroke="#e1ed5e" stroke-width="0.3" x1="26.266209847984243" x2="21.928928074336255" y1="57.711370442889674" y2="55.22380399835377" /><path d="M 25.398753493254645 57.213857153982495 a86.0,86.0 0 0,1 29.58750427330803,-30.492523968695096" fill="none" id="id11" stroke="none" /><text fill="#e1ed5e" style="font-size:6.75px; font-family:Arial;" text-anchor="middle"><textPath startOffset="21.46611528233685" xlink:href="#id11">November</textPath></text><line stroke="#e1ed5e" stroke-width="0.3" x1="56.762969772571076" x2="54.21961505331055" y1="26.818313649435495" y2="22.513508569990535" /><path d="M 56.25429882871897 25.957352633546506 a86.0,86.0 0 0,1 42.265352541879196,-11.944610805530505" fill="none" id="id12" stroke="none" /><text fill="#e1ed5e" style="font-size:6.75px; font-family:Arial;" text-anchor="middle"><textPath startOffset="22.20632615414155" xlink:href="#id12">December</textPath></text></svg>