<?xml version="1.0" encoding="utf-8" ?>
<svg baseProfile="full" height="200mm" version="1.1" viewBox="0,0,200,200" width="200mm" xmlns="http://www.w3.org/2000/svg" xmlns:ev="http://www.w3.org/2001/xml-events" xmlns:xlink="http://www.w3.org/1999/xlink"><defs /><rect fill="#1a1a1a" height="200" width="200" x="0" y="0" /><rect fill="#1a1a1a" height="200" width="180" x="10" y="0" /><text alignment-baseline="middle" fill="#e1ed5e" style="dominant-baseline: central; font-size:9.0px; font-family:Arial;" text-anchor="middle" x="100.0" y="100.0">2026</text><line stroke="#e1ed5e" stroke-width="0.3" x1="100.0" x2="100.0" y1="15.0" y2="10.0" /><path d="M 100.0 14.0 a86.0,86.0 0 0,1 42.46469731375804,11.215312516191453" fill="none" id="id145" stroke="none" /><text fill="#e1ed5e" style="font-size:6.75px; font-family:Arial;" text-anchor="middle"><textPath startOffset="22.20632615414155" xlink:href="#id145">January</textPath></text><line stroke="#e1ed5e" stroke-width="0.3" x1="143.23703022742887" x2="145.7803849466894" y1="26.81831364943548" y2="22.513508569990506" /><path d="M 143.74570117128098 25.957352633546492 a86.0,86.0 0 0,1 28.547481713284135,27.462654790039103" fill="none" id="id146" stroke="none" /><text fill="#e1ed5e" style="font-size:6.75px; font-family:Arial;" text-anchor="middle"><textPath startOffset="19.985693538727396" xlink:href="#id146">February</textPath></text><path d="M 114.68862486808459 84.99185889309783 l 3.939618321762592 -4.025315385977331 a26.632384617349327,26.632384617349327 0 0,0 0.3248696902447333,0.3234745965515748 l -4.008323812174648 3.956904938775637" fill="red" stroke="none" /><path d="M 115.4437574822437 85.77008943001954 l 22.042036697032387 -20.309578892288457 a50.97216002451961,50.97216002451961 0 0,0 0.5889866086422272,0.650373724067645 l -22.38836694629065 19.927152380951263" fill="red" stroke="none" /><path d="M 116.15771136456269 86.58626213691792 l 28.142868508347433 -23.36352298717876 a57.57697710651557,57.57697710651557 0 0,0 0.6264964805009949,0.7680106073165226 l -28.540863480924838 22.87562821025414" fill="red" stroke="none" /><path d="M 117.04232023915458 87.72973835380427 l 23.820827411420375 -17.150703710840435 a50.35265671692619,50.35265671692619 0 0,0 0.500379238865226,0.7077509476536641 l -24.112519270089486 16.738126262854976" fill="red" stroke="none" /><path d="M 117.45458315368197 88.32363383020206 l 33.011938699617616 -22.083568586990147 a60.717402964489125,60.717402964489125 0 0,0 0.5736446209753975,0.8737001132408114 l -33.38717995595094 21.512050409771664" fill="red" stroke="none" /><line stroke="#e1ed5e" stroke-width="0.3" x1="172.23445277983987" x2="176.4835382374775" y1="55.19839476539836" y2="52.563006222186495" /><path d="M 173.08426987136738 54.67131705675599 a86.0,86.0 0 0,1 12.851231095245387,41.99856678651699" fill="none" id="id147" stroke="none" /><text fill="#e1ed5e" style="font-size:6.75px; font-family:Arial;" text-anchor="middle"><textPath startOffset="22.20632615414155" xlink:href="#id147">March</textPath></text><path d="M 117.84615892207809 88.93136811851018 l 11.589511993821331 -7.188103754193281 a34.63765463105647,34.63765463105647 0 0,0 0.30989848045683444,0.509391619552058 l -11.711526272564388 6.987544361434142" fill="red" stroke="none" /><path d="M 118.3937258080291 89.86733742301442 l 28.324179801103575 -15.603111609349659 a53.33753628987629,53.33753628987629 0 0,0 0.4360772851720463,0.8079849807621307 l -28.588565185494087 15.11324564525507" fill="red" stroke="none" /><path d="M 118.73160827565052 90.50648371742162 l 25.3643872483178 -12.855128069944984 a49.43600636828797,49.43600636828797 0 0,0 0.3781618772684292,0.7623512688226148 l -25.581909138539636 12.41661721262342" fill="red" stroke="none" /><path d="M 118.89224826269711 90.83032412892265 l 37.0700276833252 -17.992572067726375 a62.20582000221357,62.20582000221357 0 0,0 0.45926203269989535,0.9673229672867724 l -37.37424790986685 17.35180668479906" fill="red" stroke="none" /><path d="M 119.34039704204932 91.81776055985345 l 41.09996972575295 -17.387946718349856 a65.62676553972943,65.62676553972943 0 0,0 0.43119382877556656,1.0441700583677362 l -41.39318524141471 16.677902089528818" fill="red" stroke="none" /><path d="M 119.47837535516314 92.15188598940014 l 27.767592618738977 -11.187957347479161 a50.936759835514266,50.936759835514266 0 0,0 0.3206746761134153,0.816082073049677 l -27.956060844734093 10.7083262695337" fill="red" stroke="none" /><path d="M 119.85752413597 93.16781622104841 l 51.28768542558275 -17.64605144253153 a75.23845322117882,75.23845322117882 0 0,0 0.4108116504174499,1.2282745456543505 l -51.58383436977197 16.760603793954864" fill="red" stroke="none" /><path d="M 120.08093135843002 93.85539295169968 l 28.480398036786067 -8.714777785531766 a50.78389538299122,50.78389538299122 0 0,0 0.24858499843179746,0.8381050364896826 l -28.626188932329566 8.223243362295552" fill="red" stroke="none" /><path d="M 120.6074358757038 95.95851677861258 l 48.709074935812836 -9.552712441749495 a70.63696501698493,70.63696501698493 0 0,0 0.2237317425385403,1.1951839148592753 l -48.86629240226124 8.712850449427657" fill="red" stroke="none" /><path d="M 120.78858239683441 97.02765380044208 l 26.698594940957747 -3.817358283091782 a47.97011672356692,47.97011672356692 0 0,0 0.1098378637015095,0.8184196643367203 l -26.76034880371709 3.3572202766903976" fill="red" stroke="none" /><path d="M 120.96714384426684 98.82574320788733 l 53.79693169465432 -3.0128763796573272 a74.88123313212495,74.88123313212495 0 0,0 0.06099750999604825,1.2875610288754362 l -53.84082281288386 2.0864042441588913" fill="red" stroke="none" /><line stroke="#e1ed5e" stroke-width="0.3" x1="184.98032266829074" x2="189.97916517819016" y1="98.17113171792111" y2="98.06355123074" /><path d="M 185.9800911702706 98.14961562048488 a86.0,86.0 0 0,1 -9.607161424134198,41.387399972396054" fill="none" id="id148" stroke="none" /><text fill="#e1ed5e" style="font-size:6.75px; font-family:Arial;" text-anchor="middle"><textPath startOffset="21.466115282336823" xlink:href="#id148">April</textPath></text><path d="M 120.99513854157772 99.54816195383933 l 32.689332576889676 -0.7035097259581193 a53.69690184493048,53.69690184493048 0 0,0 0.011933478986238916,0.9242610986394578 l -32.69659906299363 0.14071236925819885" fill="red" stroke="none" /><path d="M 120.9904718944345 100.63252640178507 l 29.75590652966371 0.8966638093568277 a50.76941348748903,50.76941348748903 0 0,0 -0.0338411192962002,0.8732889194016683 l -29.73606327751631 -1.408729975772502" fill="red" stroke="none" /><path d="M 120.95626037817324 101.35467743843564 l 54.54511872680526 3.525965052092828 a75.65896455724223,75.65896455724223 0 0,0 -0.09519858149977357,1.298909008939265 l -54.47634358664115 -4.4643471975288636" fill="red" stroke="none" /><path d="M 120.89721153311464 102.0752229133903 l 35.873276629375056 3.562439204948418 a57.04972883693607,57.04972883693607 0 0,0 -0.10545424635423478,0.9763753514033383 l -35.80664008151977 -4.179410878236548" fill="red" stroke="none" /><path d="M 120.81339534386255 102.79330883721812 l 37.56873057406822 5.041996530688881 a58.90555692721592,58.90555692721592 0 0,0 -0.14352184383698166,1.003791441519999 l -37.476374679214636 -5.68793344418929" fill="red" stroke="none" /><path d="M 120.5718875245553 104.21870165774334 l 59.74791985642997 12.25257761321957 a81.99130745719711,81.99130745719711 0 0,0 -0.29542624261850275,1.3801330530532945 l -59.528159575087024 -13.279224485689033" fill="red" stroke="none" /><path d="M 120.32669344350535 105.2749913415812 l 25.90551476993359 6.722754317636727 a47.76361562103578,47.76361562103578 0 0,0 -0.21337126963244313,0.7940338703629337 l -25.78595542395937 -7.167679121175209" fill="red" stroke="none" /><path d="M 120.13307415673323 105.97154293290107 l 52.54444903624257 15.58487446392376 a75.80700171126455,75.80700171126455 0 0,0 -0.38182624941112253,1.2478302753944859 l -52.26839601432531 -16.487031711870305" fill="red" stroke="none" /><path d="M 119.67450827220406 107.3425965602758 l 50.78434185694887 18.952897255455998 a75.20573486467387,75.20573486467387 0 0,0 -0.4630729393036372,1.20893732044328 l -50.45057463805173 -19.824258142732422" fill="red" stroke="none" /><path d="M 119.12269723197855 108.67885076344098 l 25.531064621279647 11.587293204083638 a49.03748605872788,49.03748605872788 0 0,0 -0.35546429069053714,0.7656384585595705 l -25.327825713749277 -12.025051729922039" fill="red" stroke="none" /><line stroke="#e1ed5e" stroke-width="0.3" x1="174.80103733775053" x2="179.2010983576182" y1="140.37084112569926" y2="142.7455964860345" /><path d="M 175.68104954172406 140.8457921977663 a86.0,86.0 0 0,1 -30.038265399797805,32.042727171017184" fill="none" id="id149" stroke="none" /><text fill="#e1ed5e" style="font-size:6.75px; font-family:Arial;" text-anchor="middle"><textPath startOffset="22.206326154141568" xlink:href="#id149">May</textPath></text><path d="M 118.48025628344425 109.97397251340804 l 48.63911821109205 26.251001104808374 a76.2709587338345,76.2709587338345 0 0,0 -0.6334978322348171,1.1499825773903058 l -48.18004396940572 -27.084354200596486" fill="red" stroke="none" /><path d="M 118.12598468904814 110.60418214915192 l 28.707256066437004 16.794506756632966 a54.25901393701525,54.25901393701525 0 0,0 -0.47856224032817374,0.8020978416386527 l -28.4139129504106 -17.286166692157725" fill="red" stroke="none" /><path d="M 117.55443506779139 111.5257021239791 l 22.08140100599345 14.497968718012034 a47.415513762483286,47.415513762483286 0 0,0 -0.4538271915054456,0.6784100752187029 l -21.828570709077283 -14.875915707436544" fill="red" stroke="none" /><path d="M 117.14729908036423 112.12312394758627 l 48.28899687552381 34.14027431859235 a80.13869756591774,80.13869756591774 0 0,0 -0.8060434446962819,1.119523846131214 l -47.69417363845192 -34.966431770174694" fill="red" stroke="none" /><path d="M 116.71984013943494 112.70617746262583 l 26.75399333106053 20.331593141048515 a54.602824863567086,54.602824863567086 0 0,0 -0.5751320295455615,0.743435676765422 l -26.4000544842969 -20.78910681192719" fill="red" stroke="none" /><path d="M 116.27256486870786 113.27417163493432 l 28.59021083682227 23.32216026108696 a57.896115174063695,57.896115174063695 0 0,0 -0.6365925992531156,0.7668167948814493 l -28.184522237675612 -23.81083831308218" fill="red" stroke="none" /><path d="M 115.56566222782051 114.09645910891815 l 39.880706370768834 36.11646831096822 a74.8039963561133,74.8039963561133 0 0,0 -0.8725479811288037,0.9469785031961069 l -39.2531119816443 -36.79759806896567" fill="red" stroke="none" /><path d="M 114.81725581225074 114.88116024355365 l 20.552182351160564 20.640820594424124 a50.12791915339231,50.12791915339231 0 0,0 -0.6166928714562495,0.6035637713638513 l -20.193839527328517 -20.991534468710547" fill="red" stroke="none" /><path d="M 114.55890576462653 115.13401014063108 l 27.121085808671324 28.192420109663818 a60.11989068339903,60.11989068339903 0 0,0 -0.751968615374803,0.7110332613513282 l -26.631781358905716 -28.655088007761066" fill="red" stroke="none" /><path d="M 113.75828350139079 115.86535959552629 l 22.505312801188648 25.951993238441776 a55.35105613117992,55.35105613117992 0 0,0 -0.7251898309337759,0.6180225065791576 l -22.055257493677825 -26.335540135243882" fill="red" stroke="none" /><path d="M 112.34349029814194 116.9893568818739 l 23.713221849656744 32.63844982998953 a61.34334267008352,61.34334267008352 0 0,0 -0.859603303152715,0.6133041329162089 l -23.147891218655143 -33.04179822474996" fill="red" stroke="none" /><path d="M 111.7513745106137 117.40417183066458 l 35.25412353184112 52.21251549199374 a84.0,84.0 0 0,0 -1.2053012050401435,0.7988079156347263 l -34.35014762806101 -52.81162142871979" fill="red" stroke="none" /><line stroke="#e1ed5e" stroke-width="0.3" x1="143.8653032363475" x2="146.44561519142675" y1="172.8068346515853" y2="177.08958963109032" /><path d="M 144.38136562736335 173.6633856474863 a86.0,86.0 0 0,1 -40.68145358897372,12.25698825130547" fill="none" id="id150" stroke="none" /><text fill="#e1ed5e" style="font-size:6.75px; font-family:Arial;" text-anchor="middle"><textPath startOffset="21.466115282336833" xlink:href="#id150">June</textPath></text><path d="M 110.21172684928248 118.3499491758327 l 14.00449002048513 25.165349984602724 a49.7996628553428,49.7996628553428 0 0,0 -0.7526322365199047,0.41039510458708534 l -13.569234972096577 -25.40268574094958" fill="red" stroke="none" /><path d="M 109.57404056367764 118.69057910512821 l 18.823911777535795 36.74831016287657 a62.28895680972611,62.28895680972611 0 0,0 -0.9584968089323951,0.4806101980660548 l -18.188561060920637 -37.066888201851924" fill="red" stroke="none" /><path d="M 108.2653958097858 119.30500536409082 l 15.901969353071982 37.141307049954584 a61.40234298509242,61.40234298509242 0 0,0 -0.9752111352025801,0.40763833360664337 l -15.260286758371942 -37.4095304265812" fill="red" stroke="none" /><path d="M 107.93186726928326 119.44442032107085 l 11.245562722970396 27.567713995819446 a50.773168052989604,50.773168052989604 0 0,0 -0.8120779548373162,0.3231425776087158 l -10.769363692091213 -27.75720341783423" fill="red" stroke="none" /><path d="M 107.2578585660854 119.70592522655815 l 19.854945829649388 53.908473736966634 a78.44860672416289,78.44860672416289 0 0,0 -1.2711679220992043,0.455795590876392 l -18.924058346920447 -54.24225686888299" fill="red" stroke="none" /><path d="M 106.2309692047433 120.05430185196036 l 11.68376352621546 37.604056900695646 a60.37734660343785,60.37734660343785 0 0,0 -0.995148125540241,0.29982996690072333 l -11.034740426234972 -37.79960223670209" fill="red" stroke="none" /><path d="M 104.83641907484287 120.43548508189849 l 6.599496558063294 27.88507599803572 a49.65538026682105,49.65538026682105 0 0,0 -0.8334533818233194,0.18969127621174176 l -6.118523026847112 -27.994544007825148" fill="red" stroke="none" /><path d="M 104.13013068566511 120.58985236759428 l 10.667127844193393 53.17860479827086 a75.23791685467873,75.23791685467873 0 0,0 -1.27199509978916,0.2437808882484453 l -9.75016512983253 -53.354342884867776" fill="red" stroke="none" /><path d="M 102.70371172650421 120.8252237178851 l 6.930688337190847 53.38332993345907 a74.83135104761742,74.83135104761742 0 0,0 -1.2788057041431073,0.15484556164485105 l -6.0107552099963595 -53.49472102382928" fill="red" stroke="none" /><line stroke="#e1ed5e" stroke-width="0.3" x1="102.19456741930631" x2="102.32365962044197" y1="184.97166512339345" y2="189.96999836594603" /><path d="M 102.22038585953345 185.97133177190398 a86.0,86.0 0 0,1 -42.740103519485714,-10.115201625700543" fill="none" id="id151" stroke="none" /><text fill="#e1ed5e" style="font-size:6.75px; font-family:Arial;" text-anchor="middle"><textPath startOffset="22.20632615414155" xlink:href="#id151">July</textPath></text><line stroke="#e1ed5e" stroke-width="0.3" x1="58.666819895761336" x2="56.23545636021788" y1="174.27360380694188" y2="178.64263932499728" /><path d="M 58.180547188652646 175.14741091055294 a86.0,86.0 0 0,1 -31.652253787137756,-30.449443065178592" fill="none" id="id152" stroke="none" /><text fill="#e1ed5e" style="font-size:6.75px; font-family:Arial;" text-anchor="middle"><textPath startOffset="22.20632615414155" xlink:href="#id152">August</textPath></text><line stroke="#e1ed5e" stroke-width="0.3" x1="26.63291911575756" x2="22.317208475507996" y1="142.92168965132927" y2="145.44649492493687" /><path d="M 25.769776987707644 143.4266507060508 a86.0,86.0 0 0,1 -11.730757126820373,-40.83630448921669" fill="none" id="id153" stroke="none" /><text fill="#e1ed5e" style="font-size:6.75px; font-family:Arial;" text-anchor="middle"><textPath startOffset="21.46611528233685" xlink:href="#id153">September</textPath></text><line stroke="#e1ed5e" stroke-width="0.3" x1="15.007084014347285" x2="10.007500721073583" y1="101.09737516637583" y2="101.16192664675087" /><path d="M 14.007167355692545 101.11028546245083 a86.0,86.0 0 0,1 10.666146001902534,-42.60595125391555" fill="none" id="id154" stroke="none" /><text fill="#e1ed5e" style="font-size:6.75px; font-family:Arial;" text-anchor="middle"><textPath startOffset="22.20632615414155" xlink:href="#id154">October</textPath></text><line stroke="#e1ed5e" stroke-width="0.3" x1="26.266209847984243" x2="21.928928074336255" y1="57.711370442889674" y2="55.22380399835377" /><path d="M 25.398753493254645 57.213857153982495 a86.0,86.0 0 0,1 29.58750427330803,-30.492523968695096" fill="none" id="id155" stroke="none" /><text fill="#e1ed5e" style="font-size:6.75px; font-family:Arial;" text-anchor="middle"><textPath startOffset="21.46611528233685" xlink:href="#id155">November</textPath></text><line stroke="#e1ed5e" stroke-width="0.3" x1="56.762969772571076" x2="54.21961505331055" y1="26.818313649435495" y2="22.513508569990535" /><path d="M 56.25429882871897 25.957352633546506 a86.0,86.0 0 0,1 42.265352541879196,-11.944610805530505" fill="none" id="id156" stroke="none" /><text fill="#e1ed5e" style="font-size:6.75px; font-family:Arial;" text-anchor="middle"><textPath startOffset="22.20632615414155" xlink:href="#id156">December</textPath></text></svg>