<?xml version="1.0" encoding="utf-8" ?>
<svg baseProfile="full" height="200mm" version="1.1" viewBox="0,0,200,200" width="200mm" xmlns="http://www.w3.org/2000/svg" xmlns:ev="http://www.w3.org/2001/xml-events" xmlns:xlink="http://www.w3.org/1999/xlink"><defs /><rect fill="#1a1a1a" height="200" width="200" x="0" y="0" /><rect fill="#1a1a1a" height="200" width="180" x="10" y="0" /><text alignment-baseline="middle" fill="#e1ed5e" style="dominant-baseline: central; font-size:9.0px; font-family:Arial;" text-anchor="middle" x="100.0" y="100.0">2026</text><line stroke="#e1ed5e" stroke-width="0.3" x1="100.0" x2="100.0" y1="15.0" y2="10.0" /><path d="M 100.0 14.0 a86.0,86.0 0 0,1 42.46469731375804,11.215312516191453" fill="none" id="id145" stroke="none" /><text fill="#e1ed5e" style="font-size:6.75px; font-family:Arial;" text-anchor="middle"><textPath startOffset="22.20632615414155" xlink:href="#id145">January</textPath></text><line stroke="#e1ed5e" stroke-width="0.3" x1="143.23703022742887" x2="145.7803849466894" y1="26.81831364943548" y2="22.513508569990506" /><path d="M 143.74570117128098 25.957352633546492 a86.0,86.0 0 0,1 28.547481713284135,27.462654790039103" fill="none" id="id146" stroke="none" /><text fill="#e1ed5e" style="font-size:6.75px; font-family:Arial;" text-anchor="middle"><textPath startOffset="19.985693538727396" xlink:href="#id146">February</textPath></text><path d="M 114.68862486808459 84.99185889309783 l 4.069366023104586 -4.157885441208837 a26.817882017728998,26.817882017728998 0 0,0 0.32713244229898564,0.325727631629406 l -4.140334265570894 4.0872219589293115" fill="red" stroke="none" /><path d="M 115.4437574822437 85.77008943001954 l 22.767970876629846 -20.978456169546973 a51.95926551287463,51.95926551287463 0 0,0 0.6003926764580443,0.6629685890331525 l -23.125707193703924 20.583434793244272" fill="red" stroke="none" /><path d="M 116.15771136456269 86.58626213691792 l 29.069727965254014 -24.132979100755026 a58.78160616293794,58.78160616293794 0 0,0 0.6396040784000941,0.784078972480997 l -29.480830535730515 23.629015958665928" fill="red" stroke="none" /><path d="M 117.04232023915458 87.72973835380427 l 24.605344425066868 -17.715546343078877 a51.31935943436049,51.31935943436049 0 0,0 0.5099858416047418,0.7213388059509902 l -24.906642886475492 17.289381036796094" fill="red" stroke="none" /><path d="M 117.45458315368197 88.32363383020206 l 34.099156499234795 -22.810870581135692 a62.02545905445335,62.02545905445335 0 0,0 0.5860028461844193,0.8925225380832488 l -34.48675598077714 22.22052997907477" fill="red" stroke="none" /><line stroke="#e1ed5e" stroke-width="0.3" x1="172.23445277983987" x2="176.4835382374775" y1="55.19839476539836" y2="52.563006222186495" /><path d="M 173.08426987136738 54.67131705675599 a86.0,86.0 0 0,1 12.851231095245387,41.99856678651699" fill="none" id="id147" stroke="none" /><text fill="#e1ed5e" style="font-size:6.75px; font-family:Arial;" text-anchor="middle"><textPath startOffset="22.20632615414155" xlink:href="#id147">March</textPath></text><path d="M 117.84615892207809 88.93136811851018 l 11.97120189828929 -7.42483733164732 a35.08679822710004,35.08679822710004 0 0,0 0.31391690836147734,0.5159968584528158 l -12.097234604936993 7.217672699987424" fill="red" stroke="none" /><path d="M 118.3937258080291 89.86733742301442 l 29.257010578463333 -16.116985720938715 a54.402543267201345,54.402543267201345 0 0,0 0.4447845743283575,0.8241182651607362 l -29.530103252010157 15.610986472445518" fill="red" stroke="none" /><path d="M 118.73160827565052 90.50648371742162 l 26.199739983692698 -13.278499874345083 a50.37252005065429,50.37252005065429 0 0,0 0.3853257604019664,0.7767932200737516 l -26.424425757048073 12.825547065772382" fill="red" stroke="none" /><path d="M 118.89224826269711 90.83032412892265 l 38.29089490643317 -18.58514085900289 a63.56289573659772,63.56289573659772 0 0,0 0.46928124569763074,0.9884259850778832 l -38.60513434597255 17.92327245828447" fill="red" stroke="none" /><path d="M 119.34039704204932 91.81776055985345 l 42.453559378761824 -17.96060273055807 a67.09650696496412,67.09650696496412 0 0,0 0.4408506117549646,1.0675547243215036 l -42.756431677402986 17.22717343578326" fill="red" stroke="none" /><path d="M 119.47837535516314 92.15188598940014 l 28.682092709821514 -11.556422419470767 a51.92269945124524,51.92269945124524 0 0,0 0.32688170357183405,0.8318782808985035 l -28.876767963275046 11.060995133676478" fill="red" stroke="none" /><path d="M 119.85752413597 93.16781622104841 l 52.97679811306348 -18.227207896136083 a77.02474672857747,77.02474672857747 0 0,0 0.4205650431639378,1.2574359485310884 l -53.28270044999919 17.31259884468268" fill="red" stroke="none" /><path d="M 120.08093135843002 93.85539295169968 l 29.418373717873052 -9.001790966258657 a51.76480054875474,51.76480054875474 0 0,0 0.2533864873143288,0.8542932700535951 l -29.568966102299086 8.494068309458532" fill="red" stroke="none" /><path d="M 120.6074358757038 95.95851677861258 l 50.31326346151477 -9.867322228705595 a72.27171274799493,72.27171274799493 0 0,0 0.2289095550108322,1.2228439961281412 l -50.47565874043547 8.99980015511489" fill="red" stroke="none" /><path d="M 120.78858239683441 97.02765380044208 l 27.577888577987146 -3.94307946265224 a48.85835268045589,48.85835268045589 0 0,0 0.11187167030093392,0.8335738858258612 l -27.641676247345917 3.4677872347617145" fill="red" stroke="none" /><path d="M 120.96714384426684 98.82574320788733 l 55.568684097184224 -3.112102688594086 a76.65576192486282,76.65576192486282 0 0,0 0.062443023554596556,1.3180735354485478 l -55.614020728972314 2.1551180465225386" fill="red" stroke="none" /><line stroke="#e1ed5e" stroke-width="0.3" x1="184.98032266829074" x2="189.97916517819016" y1="98.17113171792111" y2="98.06355123074" /><path d="M 185.9800911702706 98.14961562048488 a86.0,86.0 0 0,1 -9.607161424134198,41.387399972396054" fill="none" id="id148" stroke="none" /><text fill="#e1ed5e" style="font-size:6.75px; font-family:Arial;" text-anchor="middle"><textPath startOffset="21.466115282336823" xlink:href="#id148">April</textPath></text><path d="M 120.99513854157772 99.54816195383933 l 33.765925640950215 -0.7266791709042391 a54.77374419586323,54.77374419586323 0 0,0 0.01217279401419823,0.9427963112893207 l -33.77343144208213 0.14534660155445567" fill="red" stroke="none" /><path d="M 120.9904718944345 100.63252640178507 l 30.73588990831848 0.9261946061596394 a51.74984170536091,51.74984170536091 0 0,0 -0.034494638531566965,0.8901533470190411 l -30.71539313693571 -1.4551252001926867" fill="red" stroke="none" /><path d="M 120.95626037817324 101.35467743843564 l 56.34151198021638 3.642089463941073 a77.45910721823554,77.45910721823554 0 0,0 -0.09746362740446786,1.3298137607214688 l -56.27047179414758 -4.611376361159312" fill="red" stroke="none" /><path d="M 120.89721153311464 102.0752229133903 l 37.054729958636784 3.679764859431075 a58.23699345715492,58.23699345715492 0 0,0 -0.10764885969071684,0.9966947452796578 l -36.98589879744502 -4.317055926595524" fill="red" stroke="none" /><path d="M 120.81339534386255 102.79330883721812 l 38.806022117615825 5.20805004313638 a60.1539415365133,60.1539415365133 0 0,0 -0.14656350018131356,1.0250647789079532 l -38.71062456641791 -5.875260294024742" fill="red" stroke="none" /><path d="M 120.5718875245553 104.21870165774334 l 61.715662573665874 12.656104973230008 a84.0,84.0 0 0,0 -0.30266384510222766,1.4139447223353239 l -61.488664689839204 -13.716563514981502" fill="red" stroke="none" /><path d="M 120.32669344350535 105.2749913415812 l 26.758689041896098 6.944162039948791 a48.6450506542845,48.6450506542845 0 0,0 -0.21730884658714847,0.8086870590259738 l -26.635192118967172 -7.4037400321503135" fill="red" stroke="none" /><path d="M 120.13307415673323 105.97154293290107 l 54.27495207585782 16.098147951923224 a77.61201983959478,77.61201983959478 0 0,0 -0.39091780146438104,1.277541993538216 l -53.989807501887306 -17.030016918013498" fill="red" stroke="none" /><path d="M 119.67450827220406 107.3425965602758 l 52.456877387537325 19.57709347240481 a76.99095082313212,76.99095082313212 0 0,0 -0.47406525528409493,1.2376347888094177 l -52.11211785265972 -20.47715182804737" fill="red" stroke="none" /><path d="M 119.12269723197855 108.67885076344098 l 26.371906722436005 11.968910034754922 a49.96087484170536,49.96087484170536 0 0,0 -0.3621577769426585,0.7800556324661485 l -26.161974328653518 -12.4210857344999" fill="red" stroke="none" /><line stroke="#e1ed5e" stroke-width="0.3" x1="174.80103733775053" x2="179.2010983576182" y1="140.37084112569926" y2="142.7455964860345" /><path d="M 175.68104954172406 140.8457921977663 a86.0,86.0 0 0,1 -30.038265399797805,32.042727171017184" fill="none" id="id149" stroke="none" /><text fill="#e1ed5e" style="font-size:6.75px; font-family:Arial;" text-anchor="middle"><textPath startOffset="22.206326154141568" xlink:href="#id149">May</textPath></text><line stroke="#e1ed5e" stroke-width="0.3" x1="143.8653032363475" x2="146.44561519142675" y1="172.8068346515853" y2="177.08958963109032" /><path d="M 144.38136562736335 173.6633856474863 a86.0,86.0 0 0,1 -40.68145358897372,12.25698825130547" fill="none" id="id150" stroke="none" /><text fill="#e1ed5e" style="font-size:6.75px; font-family:Arial;" text-anchor="middle"><textPath startOffset="21.466115282336833" xlink:href="#id150">June</textPath></text><line stroke="#e1ed5e" stroke-width="0.3" x1="102.19456741930631" x2="102.32365962044197" y1="184.97166512339345" y2="189.96999836594603" /><path d="M 102.22038585953345 185.97133177190398 a86.0,86.0 0 0,1 -42.740103519485714,-10.115201625700543" fill="none" id="id151" stroke="none" /><text fill="#e1ed5e" style="font-size:6.75px; font-family:Arial;" text-anchor="middle"><textPath startOffset="22.20632615414155" xlink:href="#id151">July</textPath></text><line stroke="#e1ed5e" stroke-width="0.3" x1="58.666819895761336" x2="56.23545636021788" y1="174.27360380694188" y2="178.64263932499728" /><path d="M 58.180547188652646 175.14741091055294 a86.0,86.0 0 0,1 -31.652253787137756,-30.449443065178592" fill="none" id="id152" stroke="none" /><text fill="#e1ed5e" style="font-size:6.75px; font-family:Arial;" text-anchor="middle"><textPath startOffset="22.20632615414155" xlink:href="#id152">August</textPath></text><line stroke="#e1ed5e" stroke-width="0.3" x1="26.63291911575756" x2="22.317208475507996" y1="142.92168965132927" y2="145.44649492493687" /><path d="M 25.769776987707644 143.4266507060508 a86.0,86.0 0 0,1 -11.730757126820373,-40.83630448921669" fill="none" id="id153" stroke="none" /><text fill="#e1ed5e" style="font-size:6.75px; font-family:Arial;" text-anchor="middle"><textPath startOffset="21.46611528233685" xlink:href="#id153">September</textPath></text><line stroke="#e1ed5e" stroke-width="0.3" x1="15.007084014347285" x2="10.007500721073583" y1="101.09737516637583" y2="101.16192664675087" /><path d="M 14.007167355692545 101.11028546245083 a86.0,86.0 0 0,1 10.666146001902534,-42.60595125391555" fill="none" id="id154" stroke="none" /><text fill="#e1ed5e" style="font-size:6.75px; font-family:Arial;" text-anchor="middle"><textPath startOffset="22.20632615414155" xlink:href="#id154">October</textPath></text><line stroke="#e1ed5e" stroke-width="0.3" x1="26.266209847984243" x2="21.928928074336255" y1="57.711370442889674" y2="55.22380399835377" /><path d="M 25.398753493254645 57.213857153982495 a86.0,86.0 0 0,1 29.58750427330803,-30.492523968695096" fill="none" id="id155" stroke="none" /><text fill="#e1ed5e" style="font-size:6.75px; font-family:Arial;" text-anchor="middle"><textPath startOffset="21.46611528233685" xlink:href="#id155">November</textPath></text><line stroke="#e1ed5e" stroke-width="0.3" x1="56.762969772571076" x2="54.21961505331055" y1="26.818313649435495" y2="22.513508569990535" /><path d="M 56.25429882871897 25.957352633546506 a86.0,86.0 0 0,1 42.265352541879196,-11.944610805530505" fill="none" id="id156" stroke="none" /><text fill="#e1ed5e" style="font-size:6.75px; font-family:Arial;" text-anchor="middle"><textPath startOffset="22.20632615414155" xlink:href="#id156">December</textPath></text></svg>