<?xml version="1.0" encoding="utf-8" ?>
<svg baseProfile="full" height="200mm" version="1.1" viewBox="0,0,200,200" width="200mm" xmlns="http://www.w3.org/2000/svg" xmlns:ev="http://www.w3.org/2001/xml-events" xmlns:xlink="http://www.w3.org/1999/xlink"><defs /><rect fill="#1a1a1a" height="200" width="200" x="0" y="0" /><rect fill="#1a1a1a" height="200" width="180" x="10" y="0" /><text alignment-baseline="middle" fill="#e1ed5e" style="dominant-baseline: central; font-size:9.0px; font-family:Arial;" text-anchor="middle" x="100.0" y="100.0">2015</text><line stroke="#e1ed5e" stroke-width="0.3" x1="100.0" x2="100.0" y1="15.0" y2="10.0" /><path d="M 100.0 14.0 a86.0,86.0 0 0,1 42.46469731375804,11.215312516191453" fill="none" id="id13" stroke="none" /><text fill="#e1ed5e" style="font-size:6.75px; font-family:Arial;" text-anchor="middle"><textPath startOffset="22.20632615414155" xlink:href="#id13">January</textPath></text><line stroke="#e1ed5e" stroke-width="0.3" x1="143.23703022742887" x2="145.7803849466894" y1="26.81831364943548" y2="22.513508569990506" /><path d="M 143.74570117128098 25.957352633546492 a86.0,86.0 0 0,1 28.547481713284135,27.462654790039103" fill="none" id="id14" stroke="none" /><text fill="#e1ed5e" style="font-size:6.75px; font-family:Arial;" text-anchor="middle"><textPath startOffset="19.985693538727396" xlink:href="#id14">February</textPath></text><line stroke="#e1ed5e" stroke-width="0.3" x1="172.23445277983987" x2="176.4835382374775" y1="55.19839476539836" y2="52.563006222186495" /><path d="M 173.08426987136738 54.67131705675599 a86.0,86.0 0 0,1 12.851231095245387,41.99856678651699" fill="none" id="id15" stroke="none" /><text fill="#e1ed5e" style="font-size:6.75px; font-family:Arial;" text-anchor="middle"><textPath startOffset="22.20632615414155" xlink:href="#id15">March</textPath></text><path d="M 118.73160827565052 90.50648371742162 l 30.49421699263295 -15.455018132124899 a55.18705684112181,55.18705684112181 0 0,0 0.4221546712427303,0.8510380569981301 l -30.75573167682909 14.92782048662782" fill="red" stroke="none" /><path d="M 120.08093135843002 93.85539295169968 l 32.145102235773074 -9.83614844554242 a54.616326598708696,54.616326598708696 0 0,0 0.2673445855127873,0.9013530382364897 l -32.309652718397565 9.281366020559402" fill="red" stroke="none" /><path d="M 120.28053869075195 94.5502522615342 l 41.98486668080294 -11.282093426237793 a64.47429887051837,64.47429887051837 0 0,0 0.27878584940635565,1.0742756016679091 l -42.1728488620796 10.557721399021032" fill="red" stroke="none" /><path d="M 120.45610955862082 95.25157060432595 l 42.03196578405017 -9.75678299507534 a64.14951867732195,64.14951867732195 0 0,0 0.24042510433442205,1.0777786001057863 l -42.19368527538663 9.031826225419591" fill="red" stroke="none" /><path d="M 120.6074358757038 95.95851677861258 l 42.90399456722589 -8.414233348573696 a64.72129998832146,64.72129998832146 0 0,0 0.20499478173028735,1.095090320998695 l -43.04247507286603 7.674464950112438" fill="red" stroke="none" /><path d="M 120.73433829027371 96.67025291283417 l 43.08621717757642 -6.919256555745891 a64.63826556999618,64.63826556999618 0 0,0 0.16696404597512884,1.1000844518168071 l -43.19893711699085 6.176572991537002" fill="red" stroke="none" /><path d="M 120.98425023603335 99.18683210126433 l 48.233072348867786 -1.8690963770601854 a69.26927376165767,69.26927376165767 0 0,0 0.03591547702630939,1.1918598322036735 l -48.258099520349745 1.0385663974315127" fill="red" stroke="none" /><line stroke="#e1ed5e" stroke-width="0.3" x1="184.98032266829074" x2="189.97916517819016" y1="98.17113171792111" y2="98.06355123074" /><path d="M 185.9800911702706 98.14961562048488 a86.0,86.0 0 0,1 -9.607161424134198,41.387399972396054" fill="none" id="id16" stroke="none" /><text fill="#e1ed5e" style="font-size:6.75px; font-family:Arial;" text-anchor="middle"><textPath startOffset="21.466115282336823" xlink:href="#id16">April</textPath></text><path d="M 120.99980553446 99.90962569577887 l 48.71552678806885 -0.20965107657844598 a69.71597791087606,69.71597791087606 0 0,0 -0.005164635038137997,1.200079296787761 l -48.71191785574121 -0.6289376984129996" fill="red" stroke="none" /><path d="M 120.9904718944345 100.63252640178507 l 34.76512982158856 1.0476116298972171 a55.780910592435646,55.780910592435646 0 0,0 -0.037181608376753654,0.9594920994411994 l -34.7419460803606 -1.6458809763524227" fill="red" stroke="none" /><path d="M 120.95626037817324 101.35467743843564 l 48.579897346075434 3.1403547058802364 a69.681292647525,69.681292647525 0 0,0 -0.08767712135547596,1.196284661098231 l -48.518643666055624 -3.9761125034752376" fill="red" stroke="none" /><path d="M 120.89721153311464 102.0752229133903 l 48.497400909297454 4.816093163787255 a69.73594821401758,69.73594821401758 0 0,0 -0.12890423868142828,1.1934931564271252 l -48.40731436911497 -5.650182642099172" fill="red" stroke="none" /><path d="M 120.81339534386255 102.79330883721812 l 48.288299492954735 6.4806405432393825 a69.72123325380804,69.72123325380804 0 0,0 -0.16987395541542763,1.1880980485231079 l -48.169591486522705 -7.3108840637429" fill="red" stroke="none" /><path d="M 120.70491114924044 103.5080841355445 l 48.01381120972696 8.135098391767352 a69.69810974490733,69.69810974490733 0 0,0 -0.21059966788323953,1.1811547794071842 l -47.86666509950453 -8.960371921907754" fill="red" stroke="none" /><path d="M 120.5718875245553 104.21870165774334 l 52.46330694732975 10.758713303541747 a74.55509768264403,74.55509768264403 0 0,0 -0.2686325301976336,1.2549617487091556 l -52.270340378407674 -11.66018887166707" fill="red" stroke="none" /><path d="M 120.41448212921028 104.9243191809786 l 53.50052714097233 12.905234153150069 a76.03500225228984,76.03500225228984 0 0,0 -0.31785775787145776,1.2696837391063973 l -53.27045806880581 -13.824245731653862" fill="red" stroke="none" /><path d="M 119.79798401119884 107.00284435728193 l 50.44309251442741 17.84247959684648 a74.50569745908342,74.50569745908342 0 0,0 -0.43807838348006317,1.2054035641580139 l -50.12848986994212 -18.708130958010624" fill="red" stroke="none" /><path d="M 119.54520255179757 107.68017299344265 l 49.658164397187875 19.512885174584277 a74.35434358264234,74.35434358264234 0 0,0 -0.47833702079155277,1.187193257471077 l -49.31492476213893 -20.364777799898167" fill="red" stroke="none" /><path d="M 119.26925614724726 108.34839909993367 l 48.902098781069405 21.18681875050319 a74.29443267321778,74.29443267321778 0 0,0 -0.5185005458615369,1.1690818507712777 l -48.5301571504766 -22.025448937767155" fill="red" stroke="none" /><path d="M 118.81262510543309 109.33194174019688 l 47.8976672861547 23.759482693175137 a74.46680792138673,74.46680792138673 0 0,0 -0.5794983241563532,1.1434051705807424 l -47.48159029221208 -24.580442075458574" fill="red" stroke="none" /><line stroke="#e1ed5e" stroke-width="0.3" x1="174.80103733775053" x2="179.2010983576182" y1="140.37084112569926" y2="142.7455964860345" /><path d="M 175.68104954172406 140.8457921977663 a86.0,86.0 0 0,1 -30.038265399797805,32.042727171017184" fill="none" id="id17" stroke="none" /><text fill="#e1ed5e" style="font-size:6.75px; font-family:Arial;" text-anchor="middle"><textPath startOffset="22.206326154141568" xlink:href="#id17">May</textPath></text><path d="M 117.75023020441432 111.22182372390056 l 45.206983630939284 28.58018152742019 a74.48362501876909,74.48362501876909 0 0,0 -0.6944538827010689,1.07780784775019 l -44.70832488486117 -29.354110975091835" fill="red" stroke="none" /><path d="M 117.35343817320211 111.8261652097733 l 44.18078410832369 30.108687785525515 a74.46470578421395,74.46470578421395 0 0,0 -0.7309565189902997,1.052997382918815 l -43.655966682171254 -30.86472643063135" fill="red" stroke="none" /><path d="M 116.93607887273984 112.41649034213515 l 43.17246365809471 31.651392396367225 a74.53197417374332,74.53197417374332 0 0,0 -0.7674618898116367,1.0281406182322765 l -42.62124050158799 -32.38984589410882" fill="red" stroke="none" /><path d="M 116.0416608686014 113.55231037782055 l 40.84509443137974 34.50673852786101 a74.46996112714592,74.46996112714592 0 0,0 -0.8356859119802318,0.9720915128334041 l -40.24506600982873 -35.20470713985594" fill="red" stroke="none" /><path d="M 115.07121518719521 114.62390073753431 l 38.30702151443971 37.17006712595498 a74.37641602295668,74.37641602295668 0 0,0 -0.8994565773237869,0.9111447640740197 l -37.661524312060386 -37.823952384009665" fill="red" stroke="none" /><path d="M 114.55890576462653 115.13401014063108 l 36.99102215096187 38.45223764722448 a74.35644571981514,74.35644571981514 0 0,0 -0.9300368463171642,0.8794078881659076 l -36.3236494702539 -39.08328017213631" fill="red" stroke="none" /><path d="M 114.0293411484842 115.62618273729858 l 35.689048526645 39.75123194277203 a74.42161197217172,74.42161197217172 0 0,0 -0.9605974778131328,0.8476155874164689 l -34.99950869592528 -40.359670671960785" fill="red" stroke="none" /><path d="M 112.34349029814194 116.9893568818739 l 31.354718277480423 43.156067358591095 a74.3438328967784,74.3438328967784 0 0,0 -1.0417789697376656,0.7432816339606249 l -30.607211979893872 -43.68939325439594" fill="red" stroke="none" /><line stroke="#e1ed5e" stroke-width="0.3" x1="143.8653032363475" x2="146.44561519142675" y1="172.8068346515853" y2="177.08958963109032" /><path d="M 144.38136562736335 173.6633856474863 a86.0,86.0 0 0,1 -40.68145358897372,12.25698825130547" fill="none" id="id18" stroke="none" /><text fill="#e1ed5e" style="font-size:6.75px; font-family:Arial;" text-anchor="middle"><textPath startOffset="21.466115282336833" xlink:href="#id18">June</textPath></text><path d="M 110.5260780823613 118.17145234162733 l 26.78557509451673 46.240660335658745 a74.43842906955405,74.43842906955405 0 0,0 -1.1142767603077701,0.6327154253398333 l -25.985649567287762 -46.69487892679321" fill="red" stroke="none" /><path d="M 108.2653958097858 119.30500536409082 l 21.063459169374894 49.19669930019094 a74.51620814494737,74.51620814494737 0 0,0 -1.1834896260175094,0.4946987596591696 l -20.213498083859925 -49.55198310287008" fill="red" stroke="none" /><path d="M 107.59598834532513 119.57807347666477 l 19.312305175802763 49.77597549479341 a74.39113098316622,74.39113098316622 0 0,0 -1.197802699844356,0.4529064891783157 l -18.452632255198132 -50.10103023407836" fill="red" stroke="none" /><path d="M 106.2309692047433 120.05430185196036 l 15.857738139914963 51.03794560645724 a74.44473548107243,74.44473548107243 0 0,0 -1.2270088557702539,0.3696877029364539 l -14.976854309704462 -51.303348678499425" fill="red" stroke="none" /><line stroke="#e1ed5e" stroke-width="0.3" x1="102.19456741930631" x2="102.32365962044197" y1="184.97166512339345" y2="189.96999836594603" /><path d="M 102.22038585953345 185.97133177190398 a86.0,86.0 0 0,1 -42.740103519485714,-10.115201625700543" fill="none" id="id19" stroke="none" /><text fill="#e1ed5e" style="font-size:6.75px; font-family:Arial;" text-anchor="middle"><textPath startOffset="22.20632615414155" xlink:href="#id19">July</textPath></text><path d="M 99.81925306533755 120.99922214144158 l -0.4527071574956989 52.59562593980643 a73.59757420043711,73.59757420043711 0 0,0 -1.2667204781977794,-0.0218077417933787 l 1.3579873255861463 -52.5800407207339" fill="red" stroke="none" /><path d="M 90.7491055286396 118.85261126421891 l -23.13688233373323 47.1511862830387 a73.52189726221658,73.52189726221658 0 0,0 -1.1313482761921352,-0.5672815120876868 l 23.945084517608127 -46.74593693004171" fill="red" stroke="none" /><path d="M 90.10565033884886 118.52300852407294 l -24.862072960264513 46.54377550222179 a73.76784731143329,73.76784731143329 0 0,0 -1.1148681882955314,-0.6079150274667502 l 25.659563960428684 -46.108919822995276" fill="red" stroke="none" /><line stroke="#e1ed5e" stroke-width="0.3" x1="58.666819895761336" x2="56.23545636021788" y1="174.27360380694188" y2="178.64263932499728" /><path d="M 58.180547188652646 175.14741091055294 a86.0,86.0 0 0,1 -31.652253787137756,-30.449443065178592" fill="none" id="id20" stroke="none" /><text fill="#e1ed5e" style="font-size:6.75px; font-family:Arial;" text-anchor="middle"><textPath startOffset="22.20632615414155" xlink:href="#id20">August</textPath></text><path d="M 88.8546689885994 117.79835938074946 l -27.983726631420822 44.6881678874504 a73.72685563656384,73.72685563656384 0 0,0 -1.0698054566819217,-0.6828004585477166 l 28.74881389014967 -44.199853000078875" fill="red" stroke="none" /><path d="M 88.24862548938628 117.40417183066458 l -29.589490092258195 43.82300721352077 a73.8771584444185,73.8771584444185 0 0,0 -1.047800144109236,-0.7206864934701394 l 30.33944712099032 -43.30717993068552" fill="red" stroke="none" /><path d="M 85.44109423537348 115.13401014063109 l -36.386212672092995 37.823537047445214 a73.48405879310633,73.48405879310633 0 0,0 -0.9040290518485218,-0.8847827001270845 l 37.031891676317315 -37.19160424439556" fill="red" stroke="none" /><path d="M 84.43433777217949 114.09645910891817 l -21.133193092570398 19.13848494912399 a49.51128647458249,49.51128647458249 0 0,0 -0.5666475974615155,-0.6366345827379553 l 21.45949953968025 -18.77187619664517" fill="red" stroke="none" /><line stroke="#e1ed5e" stroke-width="0.3" x1="26.63291911575756" x2="22.317208475507996" y1="142.92168965132927" y2="145.44649492493687" /><path d="M 25.769776987707644 143.4266507060508 a86.0,86.0 0 0,1 -11.730757126820373,-40.83630448921669" fill="none" id="id21" stroke="none" /><text fill="#e1ed5e" style="font-size:6.75px; font-family:Arial;" text-anchor="middle"><textPath startOffset="21.46611528233685" xlink:href="#id21">September</textPath></text><line stroke="#e1ed5e" stroke-width="0.3" x1="15.007084014347285" x2="10.007500721073583" y1="101.09737516637583" y2="101.16192664675087" /><path d="M 14.007167355692545 101.11028546245083 a86.0,86.0 0 0,1 10.666146001902534,-42.60595125391555" fill="none" id="id22" stroke="none" /><text fill="#e1ed5e" style="font-size:6.75px; font-family:Arial;" text-anchor="middle"><textPath startOffset="22.20632615414155" xlink:href="#id22">October</textPath></text><path d="M 80.02781315780177 93.51064311812611 l -49.895313604238424 -16.211970139734735 a73.4630374213784,73.4630374213784 0 0,0 0.40111765135622873,-1.1992907223367852 l 49.608858659110425 17.068433964993844" fill="red" stroke="none" /><path d="M 80.803312248108 91.48605970444005 l -47.982911943617026 -21.28094454496723 a73.49036520462471,73.49036520462471 0 0,0 0.522823347004193,-1.1519719422629013 l 47.60948627964948 22.103738496072204" fill="red" stroke="none" /><path d="M 81.10775173730289 90.83032412892265 l -47.1964224062464 -22.907590971808837 a73.46198635279201,73.46198635279201 0 0,0 0.5619491683870989,-1.1328552328653256 l 46.79511322490589 23.716605793173127" fill="red" stroke="none" /><line stroke="#e1ed5e" stroke-width="0.3" x1="26.266209847984243" x2="21.928928074336255" y1="57.711370442889674" y2="55.22380399835377" /><path d="M 25.398753493254645 57.213857153982495 a86.0,86.0 0 0,1 29.58750427330803,-30.492523968695096" fill="none" id="id23" stroke="none" /><text fill="#e1ed5e" style="font-size:6.75px; font-family:Arial;" text-anchor="middle"><textPath startOffset="21.46611528233685" xlink:href="#id23">November</textPath></text><path d="M 82.54541684631803 88.32363383020206 l -43.58826332787373 -29.15867533705425 a73.44201604965048,73.44201604965048 0 0,0 0.7119522695082162,-1.0447021052074972 l 43.07988659269678 29.904655465532162" fill="red" stroke="none" /><path d="M 83.39014120810768 87.1503855733568 l -41.462989401506356 -32.0763369189758 a73.42204574650896,73.42204574650896 0 0,0 0.7819305202690244,-0.9929723544540869 l 40.90470480064336 32.78530166738293" fill="red" stroke="none" /><path d="M 83.84228863543731 86.58626213691792 l -40.3351079607065 -33.48522279279344 a73.42309681509536,73.42309681509536 0 0,0 0.8156585338985277,-0.9654824321906452 l 39.752738813320846 34.174564174613195" fill="red" stroke="none" /><path d="M 85.57189188830299 84.74124197986013 l -43.25543875185804 -45.745725486662664 a83.95795725654415,83.95795725654415 0 0,0 1.0586383416295877,-0.9838889639702992 l 42.46159252643359 46.483519036707605" fill="red" stroke="none" /><path d="M 86.65592168130627 83.78471172551755 l -40.0068554047318 -48.615024421317 a83.96005939371696,83.96005939371696 0 0,0 1.1238517786617392,-0.9087433130253814 l 39.164100227505564 49.29647383160652" fill="red" stroke="none" /><path d="M 87.22198572758235 83.33499621200491 l -38.334042817252964 -49.99501136398527 a84.0,84.0 0 0,0 1.1550153849664402,-0.8699336419765826 l 37.467781278528136 50.64746159546771" fill="red" stroke="none" /><line stroke="#e1ed5e" stroke-width="0.3" x1="56.762969772571076" x2="54.21961505331055" y1="26.818313649435495" y2="22.513508569990535" /><path d="M 56.25429882871897 25.957352633546506 a86.0,86.0 0 0,1 42.265352541879196,-11.944610805530505" fill="none" id="id24" stroke="none" /><text fill="#e1ed5e" style="font-size:6.75px; font-family:Arial;" text-anchor="middle"><textPath startOffset="22.20632615414155" xlink:href="#id24">December</textPath></text><path d="M 89.3179101791058 81.91981866633112 l -32.035041853634816 -54.22154049037048 a83.9779275596857,83.9779275596857 0 0,0 1.250884292450492,-0.7245929211816584 l 31.096960828719006 54.76493756894218" fill="red" stroke="none" /><path d="M 89.94658935756843 81.56283822128135 l -30.148155556880546 -55.28933822579261 a83.9747743539265,83.9747743539265 0 0,0 1.2750367985436808,-0.6810805004613806 l 29.191973711808558 55.80009745275574" fill="red" stroke="none" /><path d="M 91.23893434514133 80.91482961587045 l -26.26565700096997 -57.21730196561384 a83.95795725654415,83.95795725654415 0 0,0 1.3186112190576427,-0.5916224173967045 l 25.276863663445553 57.66094471352707" fill="red" stroke="none" /><path d="M 92.23578459929587 80.48803036053334 l -23.27593615044838 -58.493915490356635 a83.95480405078499,83.95480405078499 0 0,0 1.3473420163937098,-0.5227477701466295 l 22.265610969054993 58.88590596439382" fill="red" stroke="none" /><path d="M 93.59665428221793 80.00007090966166 l -19.186320662424666 -59.925712223749386 a83.92222092460668,83.92222092460668 0 0,0 1.3795799151321892,-0.42864219508248713 l 18.15195537458175 60.2470945537144" fill="red" stroke="none" /><path d="M 94.63758080256005 79.69619591428918 l -16.078400596031184 -60.87787688609717 a83.96531473664893,83.96531473664893 0 0,0 1.4005858767149786,-0.35704052532005465 l 15.028105830631205 61.14562040758609" fill="red" stroke="none" /><path d="M 95.33964822691252 79.52364482259891 l -13.978489517221846 -61.41779207550806 a83.98843824554964,83.98843824554964 0 0,0 1.4124346692094547,-0.3087035118364368 l 12.91921212385887 61.649309085440365" fill="red" stroke="none" /><path d="M 96.75951476605007 79.25152402106235 l -9.716752216383643 -62.21531202880367 a83.96951901099452,83.96951901099452 0 0,0 1.4300049855627586,-0.21074556258237095 l 8.644378250392235 62.37335207554702" fill="red" stroke="none" /><path d="M 98.55514903715128 79.0497635885617 l -4.333106567156549 -62.82973767682 a83.97897862827207,83.97897862827207 0 0,0 1.442990599465085,-0.08704513359612395 l 3.2509539188518413 62.895016079796434" fill="red" stroke="none" /><path d="M 99.27714615592234 79.0124445844662 l -2.16791030168893 -62.94375822357069 a83.98108076544489,83.98108076544489 0 0,0 1.4451678921990212,-0.03732442299491332 l 1.0841157742950298 62.97174943870797" fill="red" stroke="none" /></svg>